<svg width="135" height="41" viewBox="0 0 135 41" fill="none" xmlns="http://www.w3.org/2000/svg">
<rect x="0.5" y="0.781616" width="134" height="39" rx="6.5" fill="black"/>
<rect x="0.5" y="0.781616" width="134" height="39" rx="6.5" stroke="#A6A6A6"/>
<path d="M81.5267 19.4825V21.7736H80.0906V23.276H81.5267V28.381C81.5267 30.1241 82.3152 30.8214 84.2991 30.8214C84.6478 30.8214 84.9798 30.7799 85.2703 30.7301V29.2443C85.0213 29.2692 84.8636 29.2858 84.5896 29.2858C83.7015 29.2858 83.3113 28.8707 83.3113 27.9244V23.276H85.2703V21.7736H83.3113V19.4825H81.5267Z" fill="white"/>
<path d="M90.3242 30.9459C92.9638 30.9459 94.5825 29.1778 94.5825 26.2477C94.5825 23.3341 92.9555 21.5577 90.3242 21.5577C87.6845 21.5577 86.0576 23.3341 86.0576 26.2477C86.0576 29.1778 87.6762 30.9459 90.3242 30.9459ZM90.3242 29.3605C88.7719 29.3605 87.9003 28.2233 87.9003 26.2477C87.9003 24.2887 88.7719 23.1432 90.3242 23.1432C91.8681 23.1432 92.748 24.2887 92.748 26.2477C92.748 28.215 91.8681 29.3605 90.3242 29.3605Z" fill="white"/>
<path d="M95.9674 30.7716H97.752V25.4342C97.752 24.1642 98.7066 23.3092 100.06 23.3092C100.375 23.3092 100.906 23.3673 101.056 23.4171V21.6573C100.865 21.6075 100.524 21.5826 100.259 21.5826C99.0802 21.5826 98.0758 22.2301 97.8184 23.1183H97.6856V21.732H95.9674V30.7716Z" fill="white"/>
<path d="M105.487 23.0768C106.807 23.0768 107.67 23.9982 107.712 25.4176H103.146C103.246 24.0065 104.167 23.0768 105.487 23.0768ZM107.703 28.3312C107.371 29.0367 106.633 29.4269 105.553 29.4269C104.126 29.4269 103.204 28.4225 103.146 26.837V26.7374H109.53V26.1149C109.53 23.276 108.01 21.5577 105.495 21.5577C102.947 21.5577 101.328 23.3922 101.328 26.2809C101.328 29.1695 102.914 30.9459 105.504 30.9459C107.571 30.9459 109.015 29.9498 109.422 28.3312H107.703Z" fill="white"/>
<path d="M69.8231 27.4334C69.9607 29.6531 71.8105 31.0727 74.5636 31.0727C77.506 31.0727 79.3472 29.5843 79.3472 27.2097C79.3472 25.3428 78.2975 24.3104 75.7509 23.7167L74.3829 23.3812C72.7655 23.0026 72.1116 22.495 72.1116 21.6089C72.1116 20.4904 73.1268 19.7591 74.6497 19.7591C76.095 19.7591 77.093 20.4732 77.2737 21.6175H79.1493C79.0374 19.5268 77.1963 18.0556 74.6755 18.0556C71.9654 18.0556 70.1586 19.5268 70.1586 21.7379C70.1586 23.5619 71.1824 24.6459 73.4279 25.1707L75.0282 25.5579C76.6715 25.945 77.3942 26.5129 77.3942 27.4592C77.3942 28.5605 76.2585 29.3606 74.7099 29.3606C73.0494 29.3606 71.8965 28.6121 71.7331 27.4334H69.8231Z" fill="white"/>
<path d="M51.3357 21.5826C50.1072 21.5826 49.0447 22.1969 48.4969 23.2262H48.3641V21.732H46.6458V33.7765H48.4305V29.402H48.5716C49.0447 30.3566 50.0657 30.921 51.3523 30.921C53.6351 30.921 55.0877 29.1197 55.0877 26.2477C55.0877 23.3756 53.6351 21.5826 51.3357 21.5826ZM50.8294 29.319C49.3353 29.319 48.3973 28.1403 48.3973 26.256C48.3973 24.3634 49.3353 23.1847 50.8377 23.1847C52.3484 23.1847 53.2532 24.3385 53.2532 26.2477C53.2532 28.1652 52.3484 29.319 50.8294 29.319Z" fill="white"/>
<path d="M61.3325 21.5826C60.104 21.5826 59.0415 22.1969 58.4937 23.2262H58.3609V21.732H56.6426V33.7765H58.4273V29.402H58.5684C59.0415 30.3566 60.0625 30.921 61.3491 30.921C63.6319 30.921 65.0845 29.1197 65.0845 26.2477C65.0845 23.3756 63.6319 21.5826 61.3325 21.5826ZM60.8262 29.319C59.3321 29.319 58.3941 28.1403 58.3941 26.256C58.3941 24.3634 59.3321 23.1847 60.8345 23.1847C62.3452 23.1847 63.25 24.3385 63.25 26.2477C63.25 28.1652 62.3452 29.319 60.8262 29.319Z" fill="white"/>
<path d="M43.4438 30.7716H45.4914L41.009 18.3567H38.9356L34.4531 30.7716H36.4319L37.5762 27.4765H42.3081L43.4438 30.7716ZM39.8733 20.6108H40.0196L41.8177 25.859H38.0666L39.8733 20.6108Z" fill="white"/>
<path d="M35.6504 8.99255V14.9816H37.8127C39.5974 14.9816 40.6309 13.8817 40.6309 11.9684C40.6309 10.0841 39.5891 8.99255 37.8127 8.99255H35.6504ZM36.5801 9.83923H37.709C38.95 9.83923 39.6846 10.6278 39.6846 11.9808C39.6846 13.3546 38.9624 14.1349 37.709 14.1349H36.5801V9.83923Z" fill="white"/>
<path d="M43.7959 15.0687C45.1158 15.0687 45.9251 14.1847 45.9251 12.7196C45.9251 11.2628 45.1116 10.3746 43.7959 10.3746C42.4761 10.3746 41.6626 11.2628 41.6626 12.7196C41.6626 14.1847 42.472 15.0687 43.7959 15.0687ZM43.7959 14.276C43.0198 14.276 42.584 13.7074 42.584 12.7196C42.584 11.7401 43.0198 11.1674 43.7959 11.1674C44.5679 11.1674 45.0079 11.7401 45.0079 12.7196C45.0079 13.7032 44.5679 14.276 43.7959 14.276Z" fill="white"/>
<path d="M52.8172 10.4618H51.9249L51.1197 13.9108H51.0492L50.1195 10.4618H49.2645L48.3348 13.9108H48.2684L47.4591 10.4618H46.5543L47.7994 14.9816H48.7167L49.6463 11.653H49.7169L50.6507 14.9816H51.5763L52.8172 10.4618Z" fill="white"/>
<path d="M53.8449 14.9816H54.7372V12.3378C54.7372 11.6322 55.1564 11.1923 55.8163 11.1923C56.4762 11.1923 56.7916 11.5533 56.7916 12.2797V14.9816H57.684V12.0555C57.684 10.9806 57.1278 10.3746 56.1193 10.3746C55.4386 10.3746 54.9904 10.6776 54.7704 11.1798H54.704V10.4618H53.8449V14.9816Z" fill="white"/>
<path d="M59.0893 14.9816H59.9816V8.69788H59.0893V14.9816Z" fill="white"/>
<path d="M63.3376 15.0687C64.6575 15.0687 65.4668 14.1847 65.4668 12.7196C65.4668 11.2628 64.6533 10.3746 63.3376 10.3746C62.0178 10.3746 61.2043 11.2628 61.2043 12.7196C61.2043 14.1847 62.0137 15.0687 63.3376 15.0687ZM63.3376 14.276C62.5615 14.276 62.1257 13.7074 62.1257 12.7196C62.1257 11.7401 62.5615 11.1674 63.3376 11.1674C64.1096 11.1674 64.5496 11.7401 64.5496 12.7196C64.5496 13.7032 64.1096 14.276 63.3376 14.276Z" fill="white"/>
<path d="M68.1255 14.3051C67.6399 14.3051 67.2872 14.0685 67.2872 13.6617C67.2872 13.2633 67.5694 13.0516 68.1919 13.0101L69.2959 12.9396V13.3173C69.2959 13.8776 68.7979 14.3051 68.1255 14.3051ZM67.8973 15.0563C68.4908 15.0563 68.9847 14.799 69.2544 14.3466H69.325V14.9816H70.1841V11.8937C70.1841 10.9391 69.545 10.3746 68.4119 10.3746C67.3868 10.3746 66.6563 10.8727 66.565 11.6488H67.4283C67.5279 11.3292 67.8724 11.1466 68.3704 11.1466C68.9805 11.1466 69.2959 11.4164 69.2959 11.8937V12.2838L68.0716 12.3544C66.9966 12.4208 66.3907 12.8898 66.3907 13.7032C66.3907 14.5292 67.0257 15.0563 67.8973 15.0563Z" fill="white"/>
<path d="M73.2123 15.0563C73.8348 15.0563 74.3619 14.7616 74.6317 14.2677H74.7022V14.9816H75.5572V8.69788H74.6649V11.1798H74.5985C74.3536 10.6818 73.8307 10.3871 73.2123 10.3871C72.0709 10.3871 71.3363 11.2919 71.3363 12.7196C71.3363 14.1515 72.0626 15.0563 73.2123 15.0563ZM73.4654 11.1881C74.2125 11.1881 74.6815 11.7816 74.6815 12.7238C74.6815 13.67 74.2166 14.2552 73.4654 14.2552C72.7101 14.2552 72.2577 13.6783 72.2577 12.7196C72.2577 11.7692 72.7142 11.1881 73.4654 11.1881Z" fill="white"/>
<path d="M81.3437 15.0687C82.6635 15.0687 83.4729 14.1847 83.4729 12.7196C83.4729 11.2628 82.6594 10.3746 81.3437 10.3746C80.0239 10.3746 79.2104 11.2628 79.2104 12.7196C79.2104 14.1847 80.0197 15.0687 81.3437 15.0687ZM81.3437 14.276C80.5676 14.276 80.1318 13.7074 80.1318 12.7196C80.1318 11.7401 80.5676 11.1674 81.3437 11.1674C82.1157 11.1674 82.5556 11.7401 82.5556 12.7196C82.5556 13.7032 82.1157 14.276 81.3437 14.276Z" fill="white"/>
<path d="M84.6541 14.9816H85.5464V12.3378C85.5464 11.6322 85.9656 11.1923 86.6255 11.1923C87.2854 11.1923 87.6008 11.5533 87.6008 12.2797V14.9816H88.4932V12.0555C88.4932 10.9806 87.937 10.3746 86.9285 10.3746C86.2478 10.3746 85.7996 10.6776 85.5796 11.1798H85.5132V10.4618H84.6541V14.9816Z" fill="white"/>
<path d="M92.6029 9.33704V10.4825H91.8849V11.2338H92.6029V13.7863C92.6029 14.6578 92.9972 15.0065 93.9891 15.0065C94.1634 15.0065 94.3294 14.9857 94.4747 14.9608V14.2179C94.3502 14.2303 94.2713 14.2386 94.1344 14.2386C93.6903 14.2386 93.4952 14.0311 93.4952 13.558V11.2338H94.4747V10.4825H93.4952V9.33704H92.6029Z" fill="white"/>
<path d="M95.6725 14.9816H96.5648V12.3419C96.5648 11.6571 96.9716 11.1964 97.702 11.1964C98.3329 11.1964 98.6691 11.5616 98.6691 12.2838V14.9816H99.5614V12.0638C99.5614 10.9889 98.9679 10.3788 98.005 10.3788C97.3244 10.3788 96.8471 10.6818 96.6271 11.1881H96.5565V8.69788H95.6725V14.9816Z" fill="white"/>
<path d="M102.78 11.1342C103.44 11.1342 103.872 11.5948 103.893 12.3046H101.61C101.66 11.599 102.121 11.1342 102.78 11.1342ZM103.889 13.7614C103.723 14.1141 103.353 14.3092 102.814 14.3092C102.1 14.3092 101.639 13.807 101.61 13.0143V12.9645H104.802V12.6532C104.802 11.2338 104.042 10.3746 102.785 10.3746C101.51 10.3746 100.701 11.2919 100.701 12.7362C100.701 14.1805 101.494 15.0687 102.789 15.0687C103.822 15.0687 104.544 14.5707 104.748 13.7614H103.889Z" fill="white"/>
<path d="M24.77 20.5824C24.7916 18.9014 25.6944 17.3108 27.1265 16.4304C26.2231 15.1401 24.7098 14.322 23.1354 14.2727C21.4561 14.0964 19.8282 15.2775 18.9725 15.2775C18.1002 15.2775 16.7827 14.2902 15.364 14.3194C13.5147 14.3791 11.7907 15.4305 10.891 17.0473C8.95705 20.3957 10.3996 25.3167 12.2522 28.0233C13.1791 29.3487 14.2624 30.8291 15.6799 30.7766C17.0669 30.7191 17.585 29.8922 19.2593 29.8922C20.918 29.8922 21.4041 30.7766 22.8503 30.7433C24.3387 30.7191 25.2764 29.412 26.1708 28.0741C26.8368 27.1298 27.3492 26.086 27.6892 24.9816C25.9401 24.2418 24.772 22.4816 24.77 20.5824Z" fill="white"/>
<path d="M22.0383 12.4927C22.8498 11.5185 23.2496 10.2663 23.1528 9.00208C21.913 9.1323 20.7677 9.72485 19.9452 10.6617C19.141 11.577 18.7224 12.8072 18.8015 14.0231C20.0418 14.0358 21.2611 13.4593 22.0383 12.4927Z" fill="white"/>
</svg>
