<svg width="200" height="184" viewBox="0 0 200 184" fill="none" xmlns="http://www.w3.org/2000/svg">
<g clip-path="url(#clip0_218_450)">
<path d="M168.602 15.3873C157.107 1.2916 137.037 -4.67314 121.387 5.2848C106.658 14.657 100.068 33.0088 86.7544 44.1006C72.7963 55.73 57.4298 56.3399 40.5305 54.2642C25.9634 52.4755 9.38468 52.7567 3.6279 69.8758C-2.61403 88.4398 6.59629 110.286 17.744 124.597C28.735 138.707 44.0634 148.158 60.9563 151.858C94.624 159.234 134.297 146.899 158.285 120.693C183.082 93.6026 193.663 46.1164 168.602 15.3873Z" fill="#F7F7F7"/>
<path d="M34.3935 83.5269C32.9542 83.5269 31.5032 83.4351 30.0813 83.2541C29.889 83.2294 29.7529 83.0524 29.7768 82.8584C29.8013 82.6644 29.9761 82.5284 30.169 82.5512C31.5619 82.7289 32.9832 82.8187 34.3935 82.8187C35.2342 82.8187 36.0877 82.7868 36.9303 82.7237C37.1232 82.7106 37.3 82.8545 37.3142 83.0498C37.3284 83.2444 37.1923 83.4136 36.9987 83.4286L36.9774 83.4299C36.1226 83.4943 35.2516 83.5269 34.3935 83.5269ZM47.6026 80.8628C47.4652 80.8628 47.3348 80.7814 47.2787 80.6454C47.2039 80.4651 47.2884 80.2574 47.4671 80.1819C49.5497 79.3019 51.5535 78.2032 53.4226 76.9151C53.5826 76.8051 53.8006 76.8461 53.9103 77.0082C54.0194 77.1696 53.9781 77.3903 53.8181 77.5003C51.9097 78.8151 49.8639 79.9365 47.7381 80.8354C47.6935 80.8537 47.6477 80.8628 47.6026 80.8628ZM19.6426 80.1266C19.5916 80.1266 19.5394 80.1155 19.4903 80.0915C17.4142 79.0806 15.4297 77.8524 13.591 76.4406C13.4368 76.3222 13.4071 76.1002 13.5245 75.9447C13.6419 75.7891 13.8619 75.7591 14.0161 75.8776C15.8174 77.2601 17.7619 78.4636 19.7955 79.4542C19.9703 79.5395 20.0432 79.751 19.9587 79.9268C19.8987 80.0524 19.7729 80.1266 19.6426 80.1266ZM61.5458 69.9682C61.4716 69.9682 61.3968 69.9448 61.3335 69.8959C61.1794 69.7775 61.1497 69.5555 61.2671 69.4C62.6387 67.5833 63.8323 65.6222 64.8148 63.5706C64.8994 63.3949 65.109 63.3207 65.2832 63.4059C65.4581 63.4912 65.531 63.7027 65.4464 63.8785C64.4432 65.9724 63.2252 67.9745 61.8252 69.8283C61.7561 69.92 61.6516 69.9682 61.5458 69.9682ZM6.2729 68.5206C6.16065 68.5206 6.05097 68.4666 5.98258 68.3663C4.67871 66.4417 3.56581 64.3784 2.67419 62.2337C2.59935 62.0534 2.68323 61.8457 2.86194 61.7702C3.04065 61.6947 3.24645 61.7794 3.32129 61.9597C4.19484 64.0601 5.28516 66.0811 6.56194 67.9667C6.67161 68.1281 6.63032 68.3488 6.47032 68.4588C6.40968 68.5004 6.34129 68.5206 6.2729 68.5206ZM68.2387 53.5046C68.2239 53.5046 68.209 53.504 68.1942 53.502C68.0019 53.4773 67.8658 53.3002 67.8903 53.1063C68.0677 51.6958 68.1574 50.2567 68.1574 48.828C68.1574 47.9799 68.1258 47.1187 68.0632 46.2687L68.0581 46.2029C68.0432 46.0083 68.1884 45.8378 68.3819 45.8235C68.5755 45.8085 68.7439 45.9549 68.7581 46.1502L68.7632 46.2173C68.8271 47.0842 68.8594 47.9629 68.8594 48.8286C68.8594 50.2866 68.7677 51.7557 68.5864 53.1961C68.5639 53.3738 68.4129 53.5046 68.2387 53.5046ZM0.448387 51.7283C0.266452 51.7283 0.112903 51.5871 0.0987097 51.4009L0.096129 51.3677C0.0322581 50.5001 0 49.6214 0 48.7551C0 47.3081 0.0903226 45.8502 0.268387 44.4208C0.292903 44.2268 0.468387 44.0901 0.660645 44.1136C0.852903 44.1383 0.989032 44.3147 0.965161 44.5093C0.790323 45.9094 0.701935 47.3381 0.701935 48.7551C0.701935 49.6038 0.733548 50.465 0.796129 51.3144L0.79871 51.3469C0.813548 51.5415 0.668387 51.7121 0.474839 51.7264C0.466452 51.7277 0.457419 51.7283 0.448387 51.7283ZM65.849 35.8102C65.7123 35.8102 65.5819 35.7288 65.5252 35.5934C64.6497 33.4937 63.5574 31.474 62.2787 29.5896C62.169 29.4282 62.2103 29.2082 62.3697 29.0976C62.5297 28.9869 62.7484 29.0286 62.8574 29.1894C64.1632 31.1127 65.2781 33.1747 66.1716 35.3188C66.2465 35.4991 66.1626 35.7067 65.9839 35.7822C65.9406 35.8011 65.8942 35.8102 65.849 35.8102ZM3.71419 34.2429C3.66323 34.2429 3.61097 34.2318 3.56194 34.2077C3.3871 34.1231 3.31419 33.9109 3.39806 33.7352C4.39935 31.64 5.61548 29.6372 7.01419 27.7815C7.13161 27.6259 7.35161 27.5953 7.50581 27.7138C7.66 27.8323 7.69032 28.0542 7.5729 28.2098C6.20323 30.0277 5.01097 31.9901 4.03032 34.0424C3.97032 34.1687 3.84452 34.2429 3.71419 34.2429ZM55.0297 21.7588C54.9555 21.7588 54.8813 21.7354 54.8174 21.6866C53.0148 20.3054 51.069 19.1038 49.0348 18.1158C48.86 18.0312 48.7871 17.8196 48.871 17.6432C48.9548 17.4668 49.1645 17.3933 49.3394 17.4779C51.4161 18.4868 53.4026 19.7131 55.2426 21.1229C55.3968 21.2413 55.4271 21.4633 55.3097 21.6189C55.24 21.7106 55.1355 21.7588 55.0297 21.7588ZM15.2123 20.748C15.1 20.748 14.9903 20.694 14.9219 20.5937C14.8123 20.4323 14.8535 20.2123 15.0135 20.1016C16.9206 18.7855 18.9652 17.6615 21.0903 16.7606C21.269 16.6851 21.4748 16.7697 21.5497 16.95C21.6245 17.1303 21.5406 17.338 21.3619 17.4135C19.28 18.2954 17.2774 19.3967 15.4097 20.6861C15.349 20.7278 15.28 20.748 15.2123 20.748ZM38.7019 15.0306C38.6871 15.0306 38.6729 15.0299 38.6581 15.028C37.2755 14.8535 35.8645 14.765 34.4658 14.765C33.6245 14.765 32.771 14.7969 31.929 14.86L31.88 14.8639C31.6852 14.877 31.5181 14.7325 31.5039 14.5372C31.489 14.3419 31.6342 14.172 31.8277 14.1577L31.8768 14.1538C32.7368 14.0894 33.6077 14.0568 34.4664 14.0568C35.8948 14.0568 37.3342 14.1473 38.7458 14.3257C38.9381 14.3497 39.0748 14.5268 39.0503 14.7207C39.0277 14.8997 38.8761 15.0306 38.7019 15.0306Z" fill="#3FA7D6"/>
<path d="M164.349 135.196C162.922 135.196 161.762 134.025 161.762 132.585C161.762 131.145 162.922 129.974 164.349 129.974C165.777 129.974 166.937 131.145 166.937 132.585C166.937 134.025 165.777 135.196 164.349 135.196ZM164.349 131.045C163.508 131.045 162.823 131.736 162.823 132.585C162.823 133.434 163.508 134.125 164.349 134.125C165.191 134.125 165.876 133.434 165.876 132.585C165.876 131.736 165.191 131.045 164.349 131.045Z" fill="#3FA7D6"/>
<path d="M18.8952 169.501H17.3062V167.24C17.3062 166.988 17.1043 166.785 16.8552 166.785C16.6062 166.785 16.4043 166.988 16.4043 167.24V169.501H14.8152C14.5662 169.501 14.3643 169.705 14.3643 169.956C14.3643 170.207 14.5662 170.411 14.8152 170.411H16.4043V172.672C16.4043 172.923 16.6062 173.127 16.8552 173.127C17.1043 173.127 17.3062 172.923 17.3062 172.672V170.411H18.8952C19.1443 170.411 19.3462 170.207 19.3462 169.956C19.3462 169.705 19.1443 169.501 18.8952 169.501Z" fill="#3FA7D6"/>
<path d="M190.195 41.0824H187.81V37.6887C187.81 37.3118 187.507 37.0059 187.133 37.0059C186.76 37.0059 186.456 37.3118 186.456 37.6887V41.0824H184.071C183.698 41.0824 183.395 41.3883 183.395 41.7652C183.395 42.142 183.698 42.448 184.071 42.448H186.456V45.8417C186.456 46.2186 186.76 46.5245 187.133 46.5245C187.507 46.5245 187.81 46.2186 187.81 45.8417V42.448H190.195C190.569 42.448 190.872 42.142 190.872 41.7652C190.872 41.3883 190.569 41.0824 190.195 41.0824Z" fill="#3FA7D6"/>
<path d="M139.393 183.343C139.209 183.343 139.026 183.343 138.842 183.341C138.67 183.339 138.533 183.197 138.534 183.024C138.535 182.852 138.675 182.714 138.844 182.714C138.846 182.714 138.846 182.714 138.847 182.714C140.934 182.733 143.055 182.64 145.144 182.438C145.315 182.422 145.467 182.547 145.483 182.72C145.499 182.892 145.375 183.045 145.204 183.061C143.277 183.249 141.322 183.343 139.393 183.343ZM128.76 182.384C128.742 182.384 128.724 182.383 128.705 182.379C126.624 182 124.538 181.505 122.506 180.906C122.341 180.858 122.246 180.684 122.295 180.518C122.343 180.352 122.515 180.257 122.68 180.305C124.691 180.897 126.756 181.388 128.815 181.763C128.984 181.793 129.096 181.956 129.066 182.127C129.038 182.278 128.908 182.384 128.76 182.384ZM155.14 181.249C155.002 181.249 154.877 181.156 154.84 181.016C154.795 180.849 154.894 180.677 155.059 180.633C157.085 180.086 159.1 179.425 161.051 178.669C161.211 178.607 161.391 178.687 161.453 178.849C161.514 179.01 161.435 179.191 161.274 179.254C159.303 180.018 157.266 180.686 155.22 181.238C155.193 181.245 155.166 181.249 155.14 181.249ZM113.144 177.24C113.098 177.24 113.052 177.229 113.008 177.208C111.107 176.276 109.231 175.231 107.435 174.102C107.289 174.011 107.244 173.817 107.335 173.67C107.426 173.523 107.617 173.479 107.763 173.57C109.541 174.688 111.397 175.722 113.279 176.645C113.433 176.72 113.498 176.908 113.422 177.063C113.369 177.175 113.259 177.24 113.144 177.24ZM170.275 174.817C170.169 174.817 170.066 174.762 170.008 174.664C169.92 174.515 169.969 174.323 170.117 174.234C171.914 173.156 173.676 171.969 175.353 170.704C175.49 170.601 175.685 170.629 175.787 170.768C175.89 170.907 175.862 171.103 175.725 171.207C174.031 172.484 172.251 173.684 170.434 174.773C170.384 174.802 170.329 174.817 170.275 174.817ZM99.4791 168.043C99.4062 168.043 99.3326 168.017 99.2733 167.964C97.6881 166.55 96.1604 165.036 94.732 163.464C94.6159 163.336 94.6249 163.138 94.7514 163.021C94.8778 162.904 95.0739 162.913 95.1901 163.041C96.6036 164.596 98.1159 166.095 99.6849 167.495C99.8133 167.609 99.8255 167.807 99.712 167.937C99.6501 168.007 99.5649 168.043 99.4791 168.043ZM183.113 164.487C183.036 164.487 182.958 164.458 182.898 164.4C182.774 164.281 182.769 164.083 182.887 163.957C184.331 162.429 185.711 160.805 186.989 159.131C187.093 158.995 187.289 158.969 187.424 159.075C187.56 159.18 187.586 159.378 187.48 159.514C186.189 161.205 184.795 162.845 183.337 164.389C183.277 164.454 183.195 164.487 183.113 164.487ZM88.7701 155.482C88.6681 155.482 88.5681 155.431 88.5088 155.339C87.361 153.546 86.2952 151.671 85.3417 149.766C85.2643 149.612 85.3255 149.423 85.4791 149.345C85.632 149.267 85.8191 149.329 85.8959 149.484C86.8397 151.369 87.8939 153.224 89.0301 154.998C89.123 155.143 89.0817 155.337 88.9378 155.431C88.8862 155.466 88.8281 155.482 88.7701 155.482ZM192.726 151.051C192.677 151.051 192.627 151.04 192.58 151.015C192.429 150.934 192.372 150.743 192.452 150.591C193.437 148.726 194.335 146.787 195.12 144.83C195.184 144.67 195.366 144.593 195.524 144.657C195.683 144.722 195.76 144.904 195.696 145.065C194.903 147.043 193.996 149 193.001 150.885C192.945 150.991 192.837 151.051 192.726 151.051ZM81.8339 140.463C81.701 140.463 81.5784 140.377 81.5372 140.242C80.9165 138.208 80.3939 136.112 79.9843 134.014C79.9514 133.844 80.061 133.679 80.2288 133.646C80.3965 133.613 80.5604 133.723 80.5933 133.893C80.9984 135.97 81.5152 138.044 82.1301 140.057C82.1804 140.223 82.0888 140.398 81.9249 140.449C81.8952 140.459 81.8643 140.463 81.8339 140.463ZM198.404 135.5C198.382 135.5 198.36 135.498 198.337 135.493C198.169 135.456 198.064 135.289 198.1 135.12C198.549 133.056 198.893 130.945 199.123 128.844C199.142 128.672 199.295 128.549 199.466 128.567C199.636 128.586 199.759 128.741 199.74 128.913C199.508 131.035 199.16 133.168 198.707 135.254C198.676 135.4 198.547 135.5 198.404 135.5ZM79.1623 124.111C78.9946 124.111 78.8565 123.976 78.852 123.806C78.8359 123.238 78.8281 122.661 78.8281 122.093C78.8281 120.529 78.8888 118.944 79.0088 117.385C79.0223 117.213 79.1707 117.081 79.3423 117.097C79.5133 117.11 79.641 117.261 79.6281 117.434C79.5094 118.976 79.4494 120.544 79.4494 122.093C79.4494 122.655 79.4572 123.225 79.4733 123.788C79.4778 123.961 79.343 124.105 79.1714 124.11C79.1681 124.111 79.1649 124.111 79.1623 124.111ZM199.689 118.978C199.526 118.978 199.389 118.849 199.379 118.683C199.257 116.58 199.022 114.454 198.682 112.363L198.667 112.273C198.639 112.103 198.753 111.941 198.922 111.913C199.091 111.886 199.251 112.001 199.279 112.171L199.294 112.261C199.638 114.374 199.875 116.522 199.998 118.646C200.009 118.818 199.878 118.966 199.707 118.977C199.701 118.978 199.695 118.978 199.689 118.978ZM80.9539 107.639C80.9288 107.639 80.9036 107.636 80.8778 107.629C80.7114 107.587 80.6107 107.417 80.6526 107.249C81.1694 105.181 81.8017 103.115 82.532 101.11C82.5914 100.948 82.7694 100.864 82.9307 100.924C83.0914 100.984 83.1739 101.163 83.1152 101.326C82.392 103.311 81.7662 105.355 81.2552 107.402C81.2191 107.544 81.0926 107.639 80.9539 107.639ZM196.495 102.63C196.366 102.63 196.246 102.548 196.202 102.418C195.521 100.419 194.727 98.4361 193.842 96.5244C193.769 96.3676 193.837 96.1814 193.992 96.1079C194.147 96.035 194.332 96.1027 194.405 96.2595C195.299 98.1914 196.101 100.195 196.789 102.215C196.844 102.379 196.758 102.557 196.596 102.614C196.563 102.625 196.529 102.63 196.495 102.63ZM87.103 92.2709C87.0507 92.2709 86.9978 92.2579 86.9488 92.2292C86.7997 92.1433 86.7481 91.952 86.8339 91.8016C87.8849 89.9498 89.0449 88.1332 90.2817 86.4018C90.3817 86.2612 90.5759 86.23 90.7152 86.3309C90.8546 86.4318 90.8855 86.6277 90.7856 86.7683C89.561 88.4821 88.4126 90.2805 87.3726 92.1127C87.3152 92.2143 87.2107 92.2709 87.103 92.2709ZM189.081 87.8481C188.982 87.8481 188.886 87.8012 188.826 87.7134C187.635 85.9794 186.338 84.289 184.971 82.6878C184.859 82.557 184.873 82.3591 185.003 82.2459C185.133 82.1333 185.329 82.1476 185.441 82.2784C186.822 83.8959 188.133 85.6038 189.336 87.356C189.433 87.4979 189.398 87.6932 189.258 87.7921C189.204 87.8299 189.142 87.8481 189.081 87.8481ZM97.1204 79.1373C97.0404 79.1373 96.9604 79.106 96.8997 79.0442C96.7791 78.9212 96.7804 78.7226 96.9023 78.6009C98.4081 77.1013 100.009 75.6661 101.659 74.335C101.793 74.2269 101.988 74.2491 102.095 74.3845C102.202 74.5198 102.18 74.7164 102.046 74.8245C100.412 76.1412 98.8281 77.5621 97.3378 79.0461C97.2778 79.1067 97.1991 79.1373 97.1204 79.1373ZM177.976 75.642C177.906 75.642 177.836 75.6185 177.778 75.5697C176.166 74.2224 174.466 72.9454 172.723 71.7738C172.58 71.6781 172.542 71.4835 172.637 71.3396C172.731 71.1958 172.924 71.1567 173.067 71.2524C174.827 72.4357 176.546 73.7258 178.174 75.0874C178.306 75.1981 178.324 75.3953 178.215 75.5287C178.154 75.6036 178.065 75.642 177.976 75.642ZM110.269 69.2125C110.16 69.2125 110.053 69.1539 109.997 69.0511C109.913 68.8994 109.968 68.7094 110.118 68.6254C111.969 67.5924 113.895 66.6486 115.844 65.8188C116.002 65.7517 116.184 65.8259 116.251 65.9854C116.318 66.1449 116.244 66.3284 116.086 66.3955C114.157 67.2169 112.251 68.1515 110.418 69.1734C110.371 69.1995 110.319 69.2125 110.269 69.2125ZM164.026 66.8921C163.984 66.8921 163.941 66.8836 163.9 66.8647C161.986 66.0023 160.007 65.233 158.018 64.5788C157.855 64.5254 157.766 64.3484 157.819 64.1837C157.872 64.0191 158.047 63.9292 158.211 63.9833C160.22 64.6439 162.22 65.4211 164.153 66.2926C164.31 66.3629 164.38 66.5484 164.31 66.7066C164.258 66.8231 164.145 66.8921 164.026 66.8921ZM125.593 63.2556C125.452 63.2556 125.324 63.1586 125.291 63.0141C125.251 62.8455 125.355 62.6769 125.522 62.6372C126.878 62.315 128.266 62.0358 129.647 61.8073C130.356 61.6902 131.075 61.5841 131.786 61.4917C131.956 61.4689 132.112 61.5906 132.134 61.7624C132.156 61.9343 132.036 62.0911 131.866 62.1133C131.162 62.2044 130.449 62.3092 129.748 62.4257C128.381 62.6522 127.007 62.9282 125.664 63.2471C125.64 63.253 125.617 63.2556 125.593 63.2556ZM148.255 62.2597C148.24 62.2597 148.224 62.2584 148.209 62.2565C146.138 61.9492 144.026 61.7507 141.932 61.6661C141.76 61.6589 141.627 61.5131 141.634 61.3407C141.641 61.1675 141.784 61.0315 141.957 61.0399C144.073 61.1252 146.206 61.3263 148.299 61.6368C148.469 61.6622 148.586 61.821 148.561 61.9922C148.539 62.1478 148.406 62.2597 148.255 62.2597Z" fill="#3FA7D6"/>
<path d="M94.5513 36.3634L42.9326 81.1049L43.8933 101.349C43.8933 103.764 46.7804 137.999 49.5268 137.999L97.7255 105.458L141.155 134.659C143.901 134.659 149.202 102.843 149.202 100.428L152.413 81.0574L100.747 36.3634C98.9345 35.0936 96.3642 35.0936 94.5513 36.3634Z" fill="#FC9C14"/>
<path d="M139.191 141.009H55.9077C53.6884 141.009 51.8896 139.194 51.8896 136.955V51.3684C51.8896 49.1293 53.6884 47.3147 55.9077 47.3147H139.191C141.41 47.3147 143.209 49.1293 143.209 51.3684V136.955C143.21 139.193 141.41 141.009 139.191 141.009Z" fill="white"/>
<path d="M97.7245 98.5051C106.861 98.5051 114.268 91.0324 114.268 81.8143C114.268 72.5963 106.861 65.1236 97.7245 65.1236C88.5876 65.1236 81.1807 72.5963 81.1807 81.8143C81.1807 91.0324 88.5876 98.5051 97.7245 98.5051Z" fill="#85C74C"/>
<path d="M97.7244 60.419C97.6528 60.419 97.5947 60.3604 97.5947 60.2882V54.3605C97.5947 54.2883 97.6528 54.2297 97.7244 54.2297C97.796 54.2297 97.8541 54.2883 97.8541 54.3605V60.2882C97.8541 60.3604 97.796 60.419 97.7244 60.419Z" fill="#FFC057"/>
<path d="M97.8225 60.6572C97.7915 60.6657 97.7586 60.6702 97.7244 60.6702C97.5154 60.6702 97.3457 60.499 97.3457 60.2882V54.3605C97.3457 54.1496 97.516 53.9784 97.7244 53.9784C97.8257 53.9784 97.9205 54.0181 97.9922 54.0904C98.0638 54.1626 98.1031 54.2583 98.1031 54.3605V60.2882C98.1031 60.4645 97.9844 60.6136 97.8225 60.6572Z" fill="#FFC057"/>
<path d="M97.7244 109.398C97.6528 109.398 97.5947 109.34 97.5947 109.268V103.34C97.5947 103.268 97.6528 103.209 97.7244 103.209C97.796 103.209 97.8541 103.268 97.8541 103.34V109.268C97.8541 109.34 97.796 109.398 97.7244 109.398Z" fill="#FFC057"/>
<path d="M97.8231 109.637C97.7915 109.645 97.758 109.65 97.7244 109.65C97.5154 109.65 97.3457 109.478 97.3457 109.268V103.34C97.3457 103.129 97.5154 102.957 97.7244 102.958C97.9334 102.958 98.1031 103.129 98.1031 103.34V109.268C98.1031 109.37 98.0638 109.465 97.9922 109.538C97.9451 109.586 97.887 109.62 97.8231 109.637Z" fill="#FFC057"/>
<path d="M76.389 81.9452H70.5135C70.4419 81.9452 70.3838 81.8866 70.3838 81.8144C70.3838 81.7421 70.4419 81.6835 70.5135 81.6835H76.389C76.4606 81.6835 76.5186 81.7421 76.5186 81.8144C76.518 81.8866 76.4606 81.9452 76.389 81.9452Z" fill="#FFC057"/>
<path d="M76.4877 82.1834C76.4561 82.1919 76.4225 82.1964 76.389 82.1964H70.5135C70.4122 82.1964 70.3174 82.1567 70.2457 82.0845C70.1741 82.0122 70.1348 81.9165 70.1348 81.8144C70.1348 81.6035 70.3044 81.4323 70.5135 81.4323H76.389C76.4903 81.4323 76.5851 81.472 76.6567 81.5442C76.7283 81.6165 76.7677 81.7122 76.7677 81.8144C76.7677 81.9165 76.7283 82.0122 76.6567 82.0845C76.609 82.1326 76.5509 82.1665 76.4877 82.1834Z" fill="#FFC057"/>
<path d="M124.937 81.9445H119.061C118.99 81.9445 118.932 81.886 118.932 81.8137C118.932 81.7415 118.99 81.6829 119.061 81.6829H124.937C125.008 81.6829 125.066 81.7415 125.066 81.8137C125.066 81.886 125.008 81.9445 124.937 81.9445Z" fill="#FFC057"/>
<path d="M125.036 82.1828C125.004 82.1912 124.97 82.1958 124.937 82.1958H119.061C118.852 82.1958 118.683 82.0246 118.683 81.8137C118.683 81.6028 118.852 81.4316 119.061 81.4316H124.937C125.038 81.4316 125.133 81.4713 125.205 81.5436C125.276 81.6158 125.316 81.7115 125.316 81.8137C125.316 81.9159 125.276 82.0116 125.205 82.0838C125.157 82.132 125.099 82.1658 125.036 82.1828Z" fill="#FFC057"/>
<path d="M78.4838 101.357C78.4509 101.357 78.4174 101.344 78.3922 101.319C78.3419 101.268 78.3419 101.185 78.3922 101.134L82.5464 96.943C82.5968 96.8922 82.6793 96.8922 82.7297 96.943C82.78 96.9937 82.78 97.077 82.7297 97.1278L78.5755 101.319C78.5503 101.345 78.5168 101.357 78.4838 101.357Z" fill="#FFC057"/>
<path d="M78.5819 101.596C78.5503 101.605 78.5174 101.609 78.4832 101.609C78.3819 101.609 78.2871 101.569 78.2155 101.497C78.1438 101.425 78.1045 101.329 78.1045 101.227C78.1045 101.125 78.1438 101.029 78.2155 100.957L82.3697 96.7659C82.5174 96.6169 82.7574 96.6169 82.9051 96.7659C82.9768 96.8382 83.0161 96.9339 83.0161 97.0361C83.0161 97.1382 82.9768 97.2339 82.9051 97.3062L78.7509 101.497C78.7032 101.545 78.6451 101.579 78.5819 101.596Z" fill="#FFC057"/>
<path d="M112.813 66.7235C112.78 66.7235 112.746 66.7105 112.721 66.6851C112.671 66.6343 112.671 66.551 112.721 66.5002L116.876 62.3092C116.926 62.2584 117.008 62.2584 117.059 62.3092C117.109 62.3599 117.109 62.4432 117.059 62.494L112.905 66.6851C112.879 66.7111 112.846 66.7235 112.813 66.7235Z" fill="#FFC057"/>
<path d="M112.911 66.9624C112.879 66.9708 112.846 66.9754 112.812 66.9754C112.711 66.9754 112.616 66.9357 112.544 66.8634C112.397 66.7144 112.397 66.4723 112.544 66.3232L116.699 62.1321C116.846 61.9831 117.086 61.9831 117.234 62.1321C117.306 62.2044 117.345 62.3001 117.345 62.4023C117.345 62.5044 117.306 62.6001 117.234 62.6724L113.08 66.8634C113.032 66.911 112.974 66.9448 112.911 66.9624Z" fill="#FFC057"/>
<path d="M82.638 66.7235C82.6051 66.7235 82.5716 66.7105 82.5464 66.6851L78.3922 62.4934C78.3419 62.4426 78.3419 62.3593 78.3922 62.3085C78.4426 62.2578 78.5251 62.2578 78.5755 62.3085L82.7297 66.5002C82.78 66.551 82.78 66.6343 82.7297 66.6851C82.7045 66.7111 82.6716 66.7235 82.638 66.7235Z" fill="#FFC057"/>
<path d="M82.7361 66.9624C82.7045 66.9708 82.6716 66.9754 82.6374 66.9754C82.5361 66.9754 82.4413 66.9357 82.3697 66.8634L78.2155 62.6717C78.1438 62.5995 78.1045 62.5038 78.1045 62.4016C78.1045 62.2994 78.1438 62.2037 78.2155 62.1315C78.3632 61.9824 78.6032 61.9824 78.7509 62.1315L82.9051 66.3232C83.0529 66.4723 83.0529 66.7144 82.9051 66.8634C82.8574 66.911 82.7993 66.9448 82.7361 66.9624Z" fill="#FFC057"/>
<path d="M116.967 101.358C116.934 101.358 116.901 101.345 116.876 101.32L112.721 97.1278C112.671 97.077 112.671 96.9937 112.721 96.943C112.772 96.8922 112.854 96.8922 112.905 96.943L117.059 101.135C117.109 101.185 117.109 101.269 117.059 101.32C117.034 101.345 117.001 101.358 116.967 101.358Z" fill="#FFC057"/>
<path d="M117.066 101.596C117.034 101.605 117.001 101.609 116.967 101.609H116.966C116.865 101.609 116.77 101.569 116.699 101.497L112.545 97.3055C112.473 97.2332 112.434 97.1376 112.434 97.0354C112.434 96.9332 112.473 96.8375 112.545 96.7653C112.692 96.6162 112.932 96.6162 113.08 96.7653L117.234 100.956C117.306 101.029 117.345 101.124 117.345 101.226C117.345 101.329 117.306 101.424 117.234 101.497C117.187 101.545 117.129 101.579 117.066 101.596Z" fill="#FFC057"/>
<path d="M97.7244 60.419C97.6528 60.419 97.5947 60.3604 97.5947 60.2882V54.3605C97.5947 54.2883 97.6528 54.2297 97.7244 54.2297C97.796 54.2297 97.8541 54.2883 97.8541 54.3605V60.2882C97.8541 60.3604 97.796 60.419 97.7244 60.419Z" fill="#FFC057"/>
<path d="M97.8225 60.6572C97.7915 60.6657 97.7586 60.6702 97.7244 60.6702C97.5154 60.6702 97.3457 60.499 97.3457 60.2882V54.3605C97.3457 54.1496 97.516 53.9784 97.7244 53.9784C97.8257 53.9784 97.9205 54.0181 97.9922 54.0904C98.0638 54.1626 98.1031 54.2583 98.1031 54.3605V60.2882C98.1031 60.4645 97.9844 60.6136 97.8225 60.6572Z" fill="#FFC057"/>
<path d="M97.7244 109.398C97.6528 109.398 97.5947 109.34 97.5947 109.268V103.34C97.5947 103.268 97.6528 103.209 97.7244 103.209C97.796 103.209 97.8541 103.268 97.8541 103.34V109.268C97.8541 109.34 97.796 109.398 97.7244 109.398Z" fill="#FFC057"/>
<path d="M97.8231 109.637C97.7915 109.645 97.758 109.65 97.7244 109.65C97.5154 109.65 97.3457 109.478 97.3457 109.268V103.34C97.3457 103.129 97.5154 102.957 97.7244 102.958C97.9334 102.958 98.1031 103.129 98.1031 103.34V109.268C98.1031 109.37 98.0638 109.465 97.9922 109.538C97.9451 109.586 97.887 109.62 97.8231 109.637Z" fill="#FFC057"/>
<path d="M76.389 81.9452H70.5135C70.4419 81.9452 70.3838 81.8866 70.3838 81.8144C70.3838 81.7421 70.4419 81.6835 70.5135 81.6835H76.389C76.4606 81.6835 76.5186 81.7421 76.5186 81.8144C76.518 81.8866 76.4606 81.9452 76.389 81.9452Z" fill="#FFC057"/>
<path d="M76.4877 82.1834C76.4561 82.1919 76.4225 82.1964 76.389 82.1964H70.5135C70.4122 82.1964 70.3174 82.1567 70.2457 82.0845C70.1741 82.0122 70.1348 81.9165 70.1348 81.8144C70.1348 81.6035 70.3044 81.4323 70.5135 81.4323H76.389C76.4903 81.4323 76.5851 81.472 76.6567 81.5442C76.7283 81.6165 76.7677 81.7122 76.7677 81.8144C76.7677 81.9165 76.7283 82.0122 76.6567 82.0845C76.609 82.1326 76.5509 82.1665 76.4877 82.1834Z" fill="#FFC057"/>
<path d="M124.937 81.9445H119.061C118.99 81.9445 118.932 81.886 118.932 81.8137C118.932 81.7415 118.99 81.6829 119.061 81.6829H124.937C125.008 81.6829 125.066 81.7415 125.066 81.8137C125.066 81.886 125.008 81.9445 124.937 81.9445Z" fill="#FFC057"/>
<path d="M125.036 82.1828C125.004 82.1912 124.97 82.1958 124.937 82.1958H119.061C118.852 82.1958 118.683 82.0246 118.683 81.8137C118.683 81.6028 118.852 81.4316 119.061 81.4316H124.937C125.038 81.4316 125.133 81.4713 125.205 81.5436C125.276 81.6158 125.316 81.7115 125.316 81.8137C125.316 81.9159 125.276 82.0116 125.205 82.0838C125.157 82.132 125.099 82.1658 125.036 82.1828Z" fill="#FFC057"/>
<path d="M78.4838 101.357C78.4509 101.357 78.4174 101.344 78.3922 101.319C78.3419 101.268 78.3419 101.185 78.3922 101.134L82.5464 96.943C82.5968 96.8922 82.6793 96.8922 82.7297 96.943C82.78 96.9937 82.78 97.077 82.7297 97.1278L78.5755 101.319C78.5503 101.345 78.5168 101.357 78.4838 101.357Z" fill="#FFC057"/>
<path d="M78.5819 101.596C78.5503 101.605 78.5174 101.609 78.4832 101.609C78.3819 101.609 78.2871 101.569 78.2155 101.497C78.1438 101.425 78.1045 101.329 78.1045 101.227C78.1045 101.125 78.1438 101.029 78.2155 100.957L82.3697 96.7659C82.5174 96.6169 82.7574 96.6169 82.9051 96.7659C82.9768 96.8382 83.0161 96.9339 83.0161 97.0361C83.0161 97.1382 82.9768 97.2339 82.9051 97.3062L78.7509 101.497C78.7032 101.545 78.6451 101.579 78.5819 101.596Z" fill="#FFC057"/>
<path d="M112.813 66.7235C112.78 66.7235 112.746 66.7105 112.721 66.6851C112.671 66.6343 112.671 66.551 112.721 66.5002L116.876 62.3092C116.926 62.2584 117.008 62.2584 117.059 62.3092C117.109 62.3599 117.109 62.4432 117.059 62.494L112.905 66.6851C112.879 66.7111 112.846 66.7235 112.813 66.7235Z" fill="#FFC057"/>
<path d="M112.911 66.9624C112.879 66.9708 112.846 66.9754 112.812 66.9754C112.711 66.9754 112.616 66.9357 112.544 66.8634C112.397 66.7144 112.397 66.4723 112.544 66.3232L116.699 62.1321C116.846 61.9831 117.086 61.9831 117.234 62.1321C117.306 62.2044 117.345 62.3001 117.345 62.4023C117.345 62.5044 117.306 62.6001 117.234 62.6724L113.08 66.8634C113.032 66.911 112.974 66.9448 112.911 66.9624Z" fill="#FFC057"/>
<path d="M82.638 66.7235C82.6051 66.7235 82.5716 66.7105 82.5464 66.6851L78.3922 62.4934C78.3419 62.4426 78.3419 62.3593 78.3922 62.3085C78.4426 62.2578 78.5251 62.2578 78.5755 62.3085L82.7297 66.5002C82.78 66.551 82.78 66.6343 82.7297 66.6851C82.7045 66.7111 82.6716 66.7235 82.638 66.7235Z" fill="#FFC057"/>
<path d="M82.7361 66.9624C82.7045 66.9708 82.6716 66.9754 82.6374 66.9754C82.5361 66.9754 82.4413 66.9357 82.3697 66.8634L78.2155 62.6717C78.1438 62.5995 78.1045 62.5038 78.1045 62.4016C78.1045 62.2994 78.1438 62.2037 78.2155 62.1315C78.3632 61.9824 78.6032 61.9824 78.7509 62.1315L82.9051 66.3232C83.0529 66.4723 83.0529 66.7144 82.9051 66.8634C82.8574 66.911 82.7993 66.9448 82.7361 66.9624Z" fill="#FFC057"/>
<path d="M116.967 101.358C116.934 101.358 116.901 101.345 116.876 101.32L112.721 97.1278C112.671 97.077 112.671 96.9937 112.721 96.943C112.772 96.8922 112.854 96.8922 112.905 96.943L117.059 101.135C117.109 101.185 117.109 101.269 117.059 101.32C117.034 101.345 117.001 101.358 116.967 101.358Z" fill="#FFC057"/>
<path d="M117.066 101.596C117.034 101.605 117.001 101.609 116.967 101.609H116.966C116.865 101.609 116.77 101.569 116.699 101.497L112.545 97.3055C112.473 97.2332 112.434 97.1376 112.434 97.0354C112.434 96.9332 112.473 96.8375 112.545 96.7653C112.692 96.6162 112.932 96.6162 113.08 96.7653L117.234 100.956C117.306 101.029 117.345 101.124 117.345 101.226C117.345 101.329 117.306 101.424 117.234 101.497C117.187 101.545 117.129 101.579 117.066 101.596Z" fill="#FFC057"/>
<path d="M77.9918 73.7433C77.9757 73.7433 77.9589 73.7401 77.9428 73.7336L72.5157 71.4776C72.4492 71.4503 72.4182 71.3735 72.4453 71.3071C72.4724 71.24 72.5486 71.2088 72.6144 71.2361L78.0415 73.4921C78.1079 73.5194 78.1389 73.5962 78.1118 73.6626C78.0911 73.7134 78.0428 73.7433 77.9918 73.7433Z" fill="#FFC057"/>
<path d="M78.0904 73.9822C78.0588 73.9907 78.0259 73.9952 77.9917 73.9952C77.942 73.9952 77.8936 73.9855 77.8472 73.9666L72.4201 71.7113C72.2272 71.6312 72.1343 71.4073 72.2143 71.2127C72.253 71.1183 72.3253 71.0447 72.4188 71.0057C72.5124 70.9666 72.6149 70.966 72.7085 71.005L78.1356 73.2604C78.3285 73.3404 78.4214 73.5643 78.3414 73.759C78.2962 73.8703 78.202 73.9516 78.0904 73.9822Z" fill="#FFC057"/>
<path d="M122.885 92.4024C122.869 92.4024 122.852 92.3991 122.836 92.3926L117.409 90.1366C117.343 90.1093 117.312 90.0325 117.339 89.9661C117.366 89.8991 117.442 89.8678 117.508 89.8951L122.935 92.1511C123.001 92.1785 123.032 92.2553 123.005 92.3217C122.985 92.3718 122.936 92.4024 122.885 92.4024Z" fill="#FFC057"/>
<path d="M122.984 92.6406C122.952 92.649 122.919 92.6536 122.885 92.6536C122.835 92.6536 122.787 92.6438 122.74 92.625L117.313 90.3696C117.12 90.2889 117.028 90.0657 117.108 89.8704C117.146 89.776 117.219 89.7025 117.312 89.6634C117.406 89.6244 117.508 89.6237 117.602 89.6628L123.029 91.9181C123.122 91.9572 123.195 92.03 123.234 92.1244C123.273 92.2188 123.273 92.3223 123.235 92.4167C123.19 92.5286 123.096 92.61 122.984 92.6406Z" fill="#FFC057"/>
<path d="M87.3606 107.329C87.3445 107.329 87.3277 107.326 87.3116 107.319C87.2451 107.292 87.2141 107.215 87.2412 107.149L89.4767 101.674C89.5038 101.607 89.5799 101.575 89.6458 101.603C89.7122 101.63 89.7432 101.707 89.7161 101.773L87.4806 107.248C87.4599 107.299 87.4116 107.329 87.3606 107.329Z" fill="#FFC057"/>
<path d="M87.4589 107.567C87.4273 107.576 87.3944 107.58 87.3602 107.58H87.3596C87.3099 107.58 87.2615 107.571 87.2157 107.552C87.0228 107.472 86.9306 107.248 87.0099 107.053L89.2454 101.578C89.2841 101.484 89.3564 101.41 89.4499 101.371C89.5435 101.332 89.646 101.331 89.7396 101.37C89.8331 101.409 89.906 101.482 89.9448 101.577C89.9835 101.671 89.9841 101.775 89.9454 101.869L87.7099 107.344C87.6648 107.456 87.5712 107.537 87.4589 107.567Z" fill="#FFC057"/>
<path d="M105.854 62.0365C105.837 62.0365 105.821 62.0332 105.805 62.0267C105.738 61.9993 105.707 61.9225 105.734 61.8562L107.97 56.3809C107.997 56.3138 108.073 56.2826 108.139 56.3099C108.205 56.3373 108.236 56.4141 108.209 56.4805L105.974 61.9557C105.953 62.0059 105.905 62.0365 105.854 62.0365Z" fill="#FFC057"/>
<path d="M105.952 62.2747C105.92 62.2831 105.888 62.2877 105.853 62.2877C105.804 62.2877 105.755 62.2779 105.709 62.2591C105.516 62.179 105.424 61.9551 105.503 61.7605L107.739 56.2852C107.777 56.1908 107.85 56.1173 107.943 56.0782C108.037 56.0392 108.139 56.0385 108.233 56.0776C108.326 56.1166 108.399 56.1895 108.438 56.2839C108.477 56.3783 108.477 56.4818 108.439 56.5761L106.203 62.0514C106.158 62.1634 106.064 62.2447 105.952 62.2747Z" fill="#FFC057"/>
<path d="M108.187 107.289C108.136 107.289 108.088 107.258 108.068 107.208L105.811 101.741C105.783 101.675 105.815 101.598 105.881 101.57C105.946 101.542 106.022 101.574 106.05 101.64L108.307 107.107C108.335 107.174 108.303 107.25 108.237 107.278C108.221 107.286 108.203 107.289 108.187 107.289Z" fill="#FFC057"/>
<path d="M108.285 107.527C108.253 107.536 108.22 107.54 108.187 107.54H108.187C108.033 107.54 107.896 107.448 107.837 107.305L105.58 101.838C105.541 101.744 105.541 101.64 105.579 101.546C105.618 101.452 105.69 101.378 105.784 101.339C105.878 101.3 105.98 101.299 106.074 101.338C106.167 101.377 106.24 101.45 106.279 101.545L108.536 107.012C108.616 107.206 108.525 107.43 108.332 107.511C108.317 107.517 108.301 107.523 108.285 107.527Z" fill="#FFC057"/>
<path d="M89.52 62.0683C89.469 62.0683 89.4213 62.0378 89.4006 61.9876L87.1439 56.5208C87.1161 56.4544 87.1477 56.3776 87.2135 56.3496C87.2793 56.3217 87.3555 56.3535 87.3832 56.4199L89.64 61.8868C89.6677 61.9531 89.6361 62.0299 89.5703 62.0579C89.5535 62.0651 89.5368 62.0683 89.52 62.0683Z" fill="#FFC057"/>
<path d="M89.6177 62.3066C89.586 62.315 89.5531 62.3196 89.5202 62.3196C89.3667 62.3196 89.2293 62.2272 89.1706 62.0846L86.9138 56.6178C86.8338 56.4232 86.9248 56.1993 87.1177 56.1179C87.2112 56.0789 87.3138 56.0782 87.4073 56.1173C87.5009 56.1563 87.5738 56.2292 87.6125 56.3236L89.8693 61.7904C89.9493 61.985 89.8577 62.2089 89.6654 62.2903C89.6499 62.2968 89.6338 62.302 89.6177 62.3066Z" fill="#FFC057"/>
<path d="M72.605 92.5C72.554 92.5 72.5063 92.4694 72.4857 92.4193C72.4579 92.3529 72.4895 92.2761 72.5553 92.2481L77.974 89.9713C78.0398 89.9433 78.116 89.9752 78.1437 90.0416C78.1715 90.108 78.1399 90.1848 78.074 90.2128L72.6553 92.4896C72.6386 92.4967 72.6218 92.5 72.605 92.5Z" fill="#FFC057"/>
<path d="M72.7017 92.7382C72.6701 92.7467 72.6372 92.7512 72.6043 92.7512C72.4507 92.7512 72.3133 92.6588 72.2546 92.5163C72.1746 92.3217 72.2656 92.0978 72.4585 92.0164L77.8772 89.7396C77.9707 89.7005 78.0733 89.6999 78.1669 89.7389C78.2604 89.778 78.3333 89.8509 78.372 89.9453C78.452 90.1399 78.3611 90.3638 78.1682 90.4451L72.7495 92.722C72.734 92.7285 72.7178 92.7337 72.7017 92.7382Z" fill="#FFC057"/>
<path d="M117.426 73.6672C117.375 73.6672 117.328 73.6366 117.307 73.5865C117.279 73.5201 117.311 73.4433 117.377 73.4153L122.795 71.1385C122.861 71.1105 122.937 71.1424 122.965 71.2088C122.993 71.2752 122.961 71.352 122.895 71.38L117.477 73.6568C117.46 73.6639 117.443 73.6672 117.426 73.6672Z" fill="#FFC057"/>
<path d="M117.525 73.9054C117.493 73.9139 117.46 73.9184 117.427 73.9184C117.273 73.9184 117.137 73.826 117.077 73.6828C117.038 73.5891 117.038 73.4849 117.077 73.3905C117.115 73.2962 117.188 73.2226 117.281 73.1836L122.7 70.9068C122.793 70.8677 122.896 70.867 122.989 70.9061C123.083 70.9452 123.156 71.0181 123.195 71.1124C123.233 71.2068 123.234 71.3103 123.195 71.4047C123.157 71.4991 123.084 71.5726 122.991 71.6117L117.572 73.8885C117.557 73.8956 117.541 73.9008 117.525 73.9054Z" fill="#FFC057"/>
<path d="M77.9918 73.7433C77.9757 73.7433 77.9589 73.7401 77.9428 73.7336L72.5157 71.4776C72.4492 71.4503 72.4182 71.3735 72.4453 71.3071C72.4724 71.24 72.5486 71.2088 72.6144 71.2361L78.0415 73.4921C78.1079 73.5194 78.1389 73.5962 78.1118 73.6626C78.0911 73.7134 78.0428 73.7433 77.9918 73.7433Z" fill="#FFC057"/>
<path d="M78.0904 73.9822C78.0588 73.9907 78.0259 73.9952 77.9917 73.9952C77.942 73.9952 77.8936 73.9855 77.8472 73.9666L72.4201 71.7113C72.2272 71.6312 72.1343 71.4073 72.2143 71.2127C72.253 71.1183 72.3253 71.0447 72.4188 71.0057C72.5124 70.9666 72.6149 70.966 72.7085 71.005L78.1356 73.2604C78.3285 73.3404 78.4214 73.5643 78.3414 73.759C78.2962 73.8703 78.202 73.9516 78.0904 73.9822Z" fill="#FFC057"/>
<path d="M122.885 92.4024C122.869 92.4024 122.852 92.3991 122.836 92.3926L117.409 90.1366C117.343 90.1093 117.312 90.0325 117.339 89.9661C117.366 89.8991 117.442 89.8678 117.508 89.8951L122.935 92.1511C123.001 92.1785 123.032 92.2553 123.005 92.3217C122.985 92.3718 122.936 92.4024 122.885 92.4024Z" fill="#FFC057"/>
<path d="M122.984 92.6406C122.952 92.649 122.919 92.6536 122.885 92.6536C122.835 92.6536 122.787 92.6438 122.74 92.625L117.313 90.3696C117.12 90.2889 117.028 90.0657 117.108 89.8704C117.146 89.776 117.219 89.7025 117.312 89.6634C117.406 89.6244 117.508 89.6237 117.602 89.6628L123.029 91.9181C123.122 91.9572 123.195 92.03 123.234 92.1244C123.273 92.2188 123.273 92.3223 123.235 92.4167C123.19 92.5286 123.096 92.61 122.984 92.6406Z" fill="#FFC057"/>
<path d="M87.3606 107.329C87.3445 107.329 87.3277 107.326 87.3116 107.319C87.2451 107.292 87.2141 107.215 87.2412 107.149L89.4767 101.674C89.5038 101.607 89.5799 101.575 89.6458 101.603C89.7122 101.63 89.7432 101.707 89.7161 101.773L87.4806 107.248C87.4599 107.299 87.4116 107.329 87.3606 107.329Z" fill="#FFC057"/>
<path d="M87.4589 107.567C87.4273 107.576 87.3944 107.58 87.3602 107.58H87.3596C87.3099 107.58 87.2615 107.571 87.2157 107.552C87.0228 107.472 86.9306 107.248 87.0099 107.053L89.2454 101.578C89.2841 101.484 89.3564 101.41 89.4499 101.371C89.5435 101.332 89.646 101.331 89.7396 101.37C89.8331 101.409 89.906 101.482 89.9448 101.577C89.9835 101.671 89.9841 101.775 89.9454 101.869L87.7099 107.344C87.6648 107.456 87.5712 107.537 87.4589 107.567Z" fill="#FFC057"/>
<path d="M105.854 62.0365C105.837 62.0365 105.821 62.0332 105.805 62.0267C105.738 61.9993 105.707 61.9225 105.734 61.8562L107.97 56.3809C107.997 56.3138 108.073 56.2826 108.139 56.3099C108.205 56.3373 108.236 56.4141 108.209 56.4805L105.974 61.9557C105.953 62.0059 105.905 62.0365 105.854 62.0365Z" fill="#FFC057"/>
<path d="M105.952 62.2747C105.92 62.2831 105.888 62.2877 105.853 62.2877C105.804 62.2877 105.755 62.2779 105.709 62.2591C105.516 62.179 105.424 61.9551 105.503 61.7605L107.739 56.2852C107.777 56.1908 107.85 56.1173 107.943 56.0782C108.037 56.0392 108.139 56.0385 108.233 56.0776C108.326 56.1166 108.399 56.1895 108.438 56.2839C108.477 56.3783 108.477 56.4818 108.439 56.5761L106.203 62.0514C106.158 62.1634 106.064 62.2447 105.952 62.2747Z" fill="#FFC057"/>
<path d="M108.187 107.289C108.136 107.289 108.088 107.258 108.068 107.208L105.811 101.741C105.783 101.675 105.815 101.598 105.881 101.57C105.946 101.542 106.022 101.574 106.05 101.64L108.307 107.107C108.335 107.174 108.303 107.25 108.237 107.278C108.221 107.286 108.203 107.289 108.187 107.289Z" fill="#FFC057"/>
<path d="M108.285 107.527C108.253 107.536 108.22 107.54 108.187 107.54H108.187C108.033 107.54 107.896 107.448 107.837 107.305L105.58 101.838C105.541 101.744 105.541 101.64 105.579 101.546C105.618 101.452 105.69 101.378 105.784 101.339C105.878 101.3 105.98 101.299 106.074 101.338C106.167 101.377 106.24 101.45 106.279 101.545L108.536 107.012C108.616 107.206 108.525 107.43 108.332 107.511C108.317 107.517 108.301 107.523 108.285 107.527Z" fill="#FFC057"/>
<path d="M89.52 62.0683C89.469 62.0683 89.4213 62.0378 89.4006 61.9876L87.1439 56.5208C87.1161 56.4544 87.1477 56.3776 87.2135 56.3496C87.2793 56.3217 87.3555 56.3535 87.3832 56.4199L89.64 61.8868C89.6677 61.9531 89.6361 62.0299 89.5703 62.0579C89.5535 62.0651 89.5368 62.0683 89.52 62.0683Z" fill="#FFC057"/>
<path d="M89.6177 62.3066C89.586 62.315 89.5531 62.3196 89.5202 62.3196C89.3667 62.3196 89.2293 62.2272 89.1706 62.0846L86.9138 56.6178C86.8338 56.4232 86.9248 56.1993 87.1177 56.1179C87.2112 56.0789 87.3138 56.0782 87.4073 56.1173C87.5009 56.1563 87.5738 56.2292 87.6125 56.3236L89.8693 61.7904C89.9493 61.985 89.8577 62.2089 89.6654 62.2903C89.6499 62.2968 89.6338 62.302 89.6177 62.3066Z" fill="#FFC057"/>
<path d="M72.605 92.5C72.554 92.5 72.5063 92.4694 72.4857 92.4193C72.4579 92.3529 72.4895 92.2761 72.5553 92.2481L77.974 89.9713C78.0398 89.9433 78.116 89.9752 78.1437 90.0416C78.1715 90.108 78.1399 90.1848 78.074 90.2128L72.6553 92.4896C72.6386 92.4967 72.6218 92.5 72.605 92.5Z" fill="#FFC057"/>
<path d="M72.7017 92.7382C72.6701 92.7467 72.6372 92.7512 72.6043 92.7512C72.4507 92.7512 72.3133 92.6588 72.2546 92.5163C72.1746 92.3217 72.2656 92.0978 72.4585 92.0164L77.8772 89.7396C77.9707 89.7005 78.0733 89.6999 78.1669 89.7389C78.2604 89.778 78.3333 89.8509 78.372 89.9453C78.452 90.1399 78.3611 90.3638 78.1682 90.4451L72.7495 92.722C72.734 92.7285 72.7178 92.7337 72.7017 92.7382Z" fill="#FFC057"/>
<path d="M117.426 73.6672C117.375 73.6672 117.328 73.6366 117.307 73.5865C117.279 73.5201 117.311 73.4433 117.377 73.4153L122.795 71.1385C122.861 71.1105 122.937 71.1424 122.965 71.2088C122.993 71.2752 122.961 71.352 122.895 71.38L117.477 73.6568C117.46 73.6639 117.443 73.6672 117.426 73.6672Z" fill="#FFC057"/>
<path d="M117.525 73.9054C117.493 73.9139 117.46 73.9184 117.427 73.9184C117.273 73.9184 117.137 73.826 117.077 73.6828C117.038 73.5891 117.038 73.4849 117.077 73.3905C117.115 73.2962 117.188 73.2226 117.281 73.1836L122.7 70.9068C122.793 70.8677 122.896 70.867 122.989 70.9061C123.083 70.9452 123.156 71.0181 123.195 71.1124C123.233 71.2068 123.234 71.3103 123.195 71.4047C123.157 71.4991 123.084 71.5726 122.991 71.6117L117.572 73.8885C117.557 73.8956 117.541 73.9008 117.525 73.9054Z" fill="#FFC057"/>
<path d="M94.7546 88.5374C94.692 88.5543 94.6268 88.5628 94.561 88.5628C94.363 88.5628 94.1727 88.4834 94.0327 88.3421L88.4765 82.7367C88.1849 82.4425 88.1849 81.9647 88.4765 81.6705C88.7681 81.3763 89.2417 81.3757 89.5333 81.6705L94.561 86.7429L105.917 75.2859C106.209 74.9917 106.682 74.9917 106.974 75.2859C107.266 75.5801 107.266 76.0579 106.974 76.3521L95.0894 88.3421C94.9959 88.4372 94.8804 88.5035 94.7546 88.5374Z" fill="white"/>
<path d="M98.7829 114.939L123.691 90.2147C130.232 83.7214 139.569 80.0114 149.368 80.0114C151.669 80.0114 153.535 81.4863 153.535 83.3062V116.992V149.39C153.535 151.21 150.424 153.973 148.123 153.973H133.97L98.7835 119.045C97.6061 117.877 97.6061 116.108 98.7829 114.939Z" fill="#FCB43A"/>
<path d="M96.6673 114.894L71.7596 90.1698C65.2183 83.6766 55.8815 79.9665 46.0821 79.9665C43.7808 79.9665 41.915 81.4414 41.915 83.2613V116.947V149.742C41.915 151.562 44.586 153.973 46.8873 153.973L61.4802 153.928L96.6666 119C97.8441 117.832 97.8441 116.062 96.6673 114.894Z" fill="#FCB43A"/>
<path d="M153.535 135.864V150.115C153.535 152.246 151.309 153.972 148.563 153.972H46.8873C44.1415 153.972 41.915 152.245 41.915 150.115V135.864L94.6266 103.298C95.4847 102.768 96.5118 102.488 97.5492 102.46C98.7028 102.428 99.8673 102.708 100.823 103.298L153.535 135.864Z" fill="#FFC057"/>
<path d="M107.596 106.146L153.535 129.802L153.534 135.864L106.77 106.966L107.596 106.146Z" fill="#FC9C14"/>
<path d="M87.8537 106.146L41.915 129.802V135.864L88.6796 106.966L87.8537 106.146Z" fill="#FC9C14"/>
<path d="M166.57 97.9674C171.588 92.9045 171.588 84.696 166.57 79.6331C161.552 74.5702 153.415 74.5702 148.397 79.6331C143.379 84.696 143.379 92.9045 148.397 97.9674C153.415 103.03 161.552 103.03 166.57 97.9674Z" fill="#EE5A47"/>
<path d="M162.428 90.4679V87.5383C162.428 84.7844 160.215 82.5518 157.485 82.5518C154.756 82.5518 152.543 84.7844 152.543 87.5383V90.4679C152.543 92.0613 152.11 92.6699 151.291 94.0322H163.679C162.86 92.6699 162.428 92.0613 162.428 90.4679Z" fill="white"/>
<path d="M157.485 96.5746C156.455 96.5746 155.619 95.7317 155.619 94.6922H159.35C159.351 95.7317 158.515 96.5746 157.485 96.5746Z" fill="white"/>
<path d="M157.485 81.0242C156.649 81.0242 155.971 81.7083 155.971 82.5518C155.971 83.3954 156.649 84.0795 157.485 84.0795C158.321 84.0795 158.999 83.3954 158.999 82.5518C158.999 81.7083 158.321 81.0242 157.485 81.0242ZM157.485 83.4689C156.982 83.4689 156.575 83.0582 156.575 82.5512C156.575 82.0441 156.982 81.6334 157.485 81.6334C157.987 81.6334 158.395 82.0441 158.395 82.5512C158.395 83.0582 157.987 83.4689 157.485 83.4689Z" fill="white"/>
<path d="M157.485 104.653C153.287 104.653 149.341 103.004 146.373 100.01C143.405 97.0152 141.771 93.0344 141.771 88.7997C141.771 84.565 143.405 80.5835 146.373 77.5894C149.341 74.5954 153.287 72.946 157.485 72.946C161.682 72.946 165.629 74.5954 168.596 77.5894C171.565 80.5842 173.199 84.565 173.199 88.7997C173.199 93.0344 171.564 97.0159 168.596 100.01C165.629 103.005 161.682 104.653 157.485 104.653ZM157.485 74.1827C153.614 74.1827 149.976 75.7032 147.24 78.4636C144.503 81.2247 142.996 84.895 142.996 88.7991C142.996 92.7031 144.503 96.3741 147.24 99.1345C149.977 101.895 153.615 103.415 157.485 103.415C161.354 103.415 164.993 101.895 167.729 99.1345C170.466 96.3734 171.973 92.7031 171.973 88.7991C171.973 84.8944 170.466 81.224 167.729 78.4636C164.993 75.7032 161.355 74.1827 157.485 74.1827Z" fill="#EE5A47"/>
<path d="M151.601 39.972C151.601 39.7656 151.521 39.571 151.376 39.4252C151.078 39.1239 150.591 39.1239 150.292 39.4252L146.274 43.479C146.13 43.6248 146.05 43.8194 146.05 44.0257C146.05 44.232 146.13 44.4267 146.274 44.5725C146.419 44.7183 146.612 44.799 146.816 44.799C147.021 44.799 147.214 44.7183 147.358 44.5725L151.376 40.5187C151.521 40.3723 151.601 40.1783 151.601 39.972Z" fill="#85C74C"/>
<path d="M155.522 49.0616L148.835 48.0482C148.417 47.9844 148.026 48.2767 147.964 48.6978C147.901 49.1196 148.19 49.514 148.607 49.5771L155.294 50.5906C155.332 50.5964 155.371 50.599 155.409 50.599C155.784 50.599 156.11 50.3159 156.166 49.9403C156.228 49.5192 155.94 49.1248 155.522 49.0616Z" fill="#85C74C"/>
<path d="M141.825 35.2433C141.795 35.0389 141.687 34.8592 141.522 34.7362C141.358 34.6139 141.155 34.5631 140.953 34.5937C140.751 34.6243 140.572 34.733 140.451 34.899C140.329 35.0649 140.279 35.2693 140.309 35.473L141.314 42.2188C141.37 42.5944 141.695 42.8775 142.071 42.8775C142.109 42.8775 142.148 42.8743 142.186 42.8691C142.389 42.8385 142.568 42.7298 142.689 42.5638C142.811 42.3978 142.86 42.1935 142.83 41.9897L141.825 35.2433Z" fill="#85C74C"/>
<path d="M42.5972 56.5696L55.9914 62.6229L73.6836 20.8964L21.9727 47.2502L35.3972 53.3171" fill="#85C74C"/>
<path d="M42.5975 56.5696L73.6839 20.8964L35.3975 53.3171L37.8871 65.3664L42.5975 56.5696Z" fill="#6BBA27"/>
<path d="M37.8867 65.3664L46.0158 58.1149L42.597 56.5696L37.8867 65.3664Z" fill="#60AD1D"/>
<path d="M33.6231 44.1207C37.069 44.1207 39.8625 41.3025 39.8625 37.826C39.8625 34.3495 37.069 31.5312 33.6231 31.5312C30.1772 31.5312 27.3838 34.3495 27.3838 37.826C27.3838 41.3025 30.1772 44.1207 33.6231 44.1207Z" fill="white"/>
<path d="M33.6228 44.4423C30.0067 44.4423 27.0654 41.4742 27.0654 37.8266C27.0654 34.1784 30.0074 31.211 33.6228 31.211C37.239 31.211 40.1803 34.1791 40.1803 37.8266C40.1803 41.4742 37.2383 44.4423 33.6228 44.4423ZM33.6228 31.8528C30.3577 31.8528 27.7016 34.5325 27.7016 37.8266C27.7016 41.1208 30.3577 43.8005 33.6228 43.8005C36.888 43.8005 39.5441 41.1208 39.5441 37.8266C39.5435 34.5325 36.8874 31.8528 33.6228 31.8528Z" fill="#EE5A47"/>
<path d="M36.894 41.1272C38.7012 39.3039 38.7012 36.3478 36.894 34.5245C35.0867 32.7012 32.1567 32.7012 30.3494 34.5245C28.5422 36.3478 28.5422 39.3039 30.3494 41.1272C32.1567 42.9504 35.0867 42.9504 36.894 41.1272Z" fill="#EE5A47"/>
<path d="M33.4941 35.9013H33.4787L32.5916 36.3843L32.458 35.8538L33.5728 35.2517H34.1619V40.4002H33.4948V35.9013H33.4941Z" fill="white"/>
</g>
<defs>
<clipPath id="clip0_218_450">
<rect width="200" height="183" fill="white" transform="translate(0 0.343262)"/>
</clipPath>
</defs>
</svg>
