<svg width="16" height="17" viewBox="0 0 16 17" fill="none" xmlns="http://www.w3.org/2000/svg">
<path d="M16 8.28162C16 3.86287 12.4187 0.281616 8 0.281616C3.58125 0.281616 0 3.86287 0 8.28162C0 12.7004 3.58125 16.2816 8 16.2816C8.04688 16.2816 8.09375 16.2816 8.14062 16.2785V10.0535H6.42188V8.05037H8.14062V6.57537C8.14062 4.86599 9.18438 3.93474 10.7094 3.93474C11.4406 3.93474 12.0688 3.98787 12.25 4.01287V5.80037H11.2C10.3719 5.80037 10.2094 6.19412 10.2094 6.77224V8.04724H12.1938L11.9344 10.0504H10.2094V15.9722C13.5531 15.0129 16 11.9347 16 8.28162Z" fill="#667085"/>
</svg>
