<svg width="336" height="216" viewBox="0 0 336 216" fill="none" xmlns="http://www.w3.org/2000/svg">
<path d="M283.445 210.158C303.625 187.932 315.92 158.435 315.92 126.068C315.92 56.9075 259.782 0.841522 190.533 0.841522C121.284 0.841522 65.1465 56.9075 65.1465 126.068C65.1465 158.435 77.4418 187.932 97.6213 210.158H283.445Z" fill="#ECF3FE"/>
<path d="M148.554 210.158C159.679 197.631 166.438 181.15 166.438 163.088C166.438 123.892 134.622 92.1175 95.3762 92.1175C56.1299 92.1175 24.3145 123.892 24.3145 163.088C24.3145 181.15 31.0733 197.631 42.1982 210.158H148.554Z" fill="#ECF3FE"/>
<path d="M166.616 215.817C247.486 215.817 313.043 212.301 313.043 207.964C313.043 203.627 247.486 200.111 166.616 200.111C85.747 200.111 20.1895 203.627 20.1895 207.964C20.1895 212.301 85.747 215.817 166.616 215.817Z" fill="#D7E4F9"/>
<path d="M69.461 192.358C67.0167 187.805 57.6267 177.117 40.0681 173.802C37.1952 173.26 30.8159 172.056 28.5037 173.658C23.9098 176.843 44.4162 189.265 41.7546 190.92C38.9248 192.679 14.776 179.588 10.6753 181.714C8.74905 182.712 27.3296 190.834 26.8173 201.852C26.7015 204.342 25.6513 206.412 24.6489 207.894H74.8055C74.8055 207.894 75.4841 203.578 69.461 192.358Z" fill="#33DA82"/>
<path d="M287.787 170.672H223.192C221.352 170.672 219.855 169.177 219.855 167.34V124.647C219.855 122.81 221.352 121.315 223.192 121.315H257.191C257.618 121.315 258.028 121.185 258.377 120.938L266.246 115.366C266.813 114.964 267.48 114.752 268.175 114.752H287.787C289.627 114.752 291.124 116.247 291.124 118.084V167.34C291.124 169.177 289.627 170.672 287.787 170.672ZM223.192 122.6C222.062 122.6 221.142 123.518 221.142 124.647V167.34C221.142 168.469 222.062 169.387 223.192 169.387H287.787C288.918 169.387 289.837 168.469 289.837 167.34V118.084C289.837 116.955 288.918 116.037 287.787 116.037H268.176C267.748 116.037 267.338 116.167 266.99 116.414L259.121 121.986C258.554 122.388 257.886 122.6 257.191 122.6L223.192 122.6Z" fill="white"/>
<path d="M303.751 159.713C304.25 159.713 304.655 159.067 304.655 158.27V147.191C304.655 146.393 304.25 145.747 303.751 145.747H278.172C277.672 145.747 277.268 146.393 277.268 147.191V158.27C277.268 159.067 277.672 159.713 278.172 159.713H279.352V161.367H278.172C277.672 161.367 277.268 162.014 277.268 162.811V173.89C277.268 174.687 277.672 175.333 278.172 175.333H279.352V177.123H278.172C277.672 177.123 277.268 177.769 277.268 178.566V189.646C277.268 190.443 277.672 191.089 278.172 191.089H279.354C279.353 191.096 279.352 191.103 279.352 191.11V193.015H278.172C277.672 193.015 277.268 193.661 277.268 194.458V205.537C277.268 206.334 277.672 206.981 278.172 206.981H303.751C304.25 206.981 304.655 206.334 304.655 205.537V194.458C304.655 193.661 304.25 193.015 303.751 193.015H302.571V191.11C302.571 191.103 302.569 191.096 302.569 191.089H303.751C304.25 191.089 304.655 190.443 304.655 189.646V178.566C304.655 177.769 304.25 177.123 303.751 177.123H302.571V175.333H303.751C304.25 175.333 304.655 174.687 304.655 173.89V162.811C304.655 162.014 304.25 161.367 303.751 161.367H302.571V159.713H303.751Z" fill="#9BB9DD"/>
<path d="M291.013 162.706H269.436C268.985 162.706 268.615 162.338 268.615 161.887V159.382C268.615 158.931 268.985 158.562 269.436 158.562H291.013C291.464 158.562 291.834 158.931 291.834 159.382V161.887C291.834 162.338 291.464 162.706 291.013 162.706Z" fill="#36588E"/>
<path d="M292.776 159.713H267.674C267.043 159.713 266.531 159.202 266.531 158.571V146.889C266.531 146.259 267.043 145.747 267.674 145.747H292.776C293.407 145.747 293.919 146.259 293.919 146.889V158.571C293.919 159.202 293.407 159.713 292.776 159.713Z" fill="#C4D7F2"/>
<path d="M291.448 158.086H290.476C290.227 158.086 290.025 157.885 290.025 157.637V147.823C290.025 147.575 290.227 147.374 290.476 147.374H291.448C291.696 147.374 291.898 147.575 291.898 147.823V157.637C291.898 157.885 291.696 158.086 291.448 158.086Z" fill="#ECF3FE"/>
<path d="M288.085 158.086H287.112C286.864 158.086 286.662 157.885 286.662 157.637V147.823C286.662 147.575 286.864 147.374 287.112 147.374H288.085C288.333 147.374 288.535 147.575 288.535 147.823V157.637C288.535 157.885 288.333 158.086 288.085 158.086Z" fill="#ECF3FE"/>
<path d="M284.723 158.086H283.751C283.502 158.086 283.301 157.885 283.301 157.637V147.823C283.301 147.575 283.502 147.374 283.751 147.374H284.723C284.972 147.374 285.174 147.575 285.174 147.823V157.637C285.174 157.885 284.972 158.086 284.723 158.086Z" fill="#ECF3FE"/>
<path d="M281.36 158.086H280.388C280.139 158.086 279.938 157.885 279.938 157.637V147.823C279.938 147.575 280.139 147.374 280.388 147.374H281.36C281.609 147.374 281.81 147.575 281.81 147.823V157.637C281.81 157.885 281.609 158.086 281.36 158.086Z" fill="#ECF3FE"/>
<path d="M271.862 149.054H268.393C268.141 149.054 267.936 148.849 267.936 148.597V148.356C267.936 148.105 268.141 147.9 268.393 147.9H271.862C272.114 147.9 272.319 148.105 272.319 148.356V148.597C272.319 148.849 272.114 149.054 271.862 149.054Z" fill="#1DB562"/>
<path d="M291.013 194.218H269.436C268.985 194.218 268.615 193.849 268.615 193.398V190.893C268.615 190.443 268.985 190.074 269.436 190.074H291.013C291.464 190.074 291.834 190.442 291.834 190.893V193.398C291.834 193.849 291.464 194.218 291.013 194.218Z" fill="#36588E"/>
<path d="M291.013 178.326H269.436C268.985 178.326 268.615 177.958 268.615 177.507V175.002C268.615 174.551 268.985 174.182 269.436 174.182H291.013C291.464 174.182 291.834 174.551 291.834 175.002V177.507C291.834 177.958 291.464 178.326 291.013 178.326Z" fill="#36588E"/>
<path d="M292.776 175.333H267.674C267.043 175.333 266.531 174.822 266.531 174.191V162.509C266.531 161.878 267.043 161.367 267.674 161.367H292.776C293.407 161.367 293.919 161.879 293.919 162.509V174.191C293.919 174.822 293.407 175.333 292.776 175.333Z" fill="#C4D7F2"/>
<path d="M291.448 173.706H290.476C290.227 173.706 290.025 173.505 290.025 173.257V163.444C290.025 163.195 290.227 162.994 290.476 162.994H291.448C291.696 162.994 291.898 163.195 291.898 163.444V173.257C291.898 173.505 291.696 173.706 291.448 173.706Z" fill="#ECF3FE"/>
<path d="M288.085 173.706H287.112C286.864 173.706 286.662 173.505 286.662 173.257V163.444C286.662 163.195 286.864 162.994 287.112 162.994H288.085C288.333 162.994 288.535 163.195 288.535 163.444V173.257C288.535 173.505 288.333 173.706 288.085 173.706Z" fill="#ECF3FE"/>
<path d="M284.723 173.706H283.751C283.502 173.706 283.301 173.505 283.301 173.257V163.444C283.301 163.195 283.502 162.994 283.751 162.994H284.723C284.972 162.994 285.174 163.195 285.174 163.444V173.257C285.174 173.505 284.972 173.706 284.723 173.706Z" fill="#ECF3FE"/>
<path d="M281.36 173.706H280.388C280.139 173.706 279.938 173.505 279.938 173.257V163.444C279.938 163.195 280.139 162.994 280.388 162.994H281.36C281.609 162.994 281.81 163.195 281.81 163.444V173.257C281.81 173.505 281.609 173.706 281.36 173.706Z" fill="#ECF3FE"/>
<path d="M271.862 164.674H268.393C268.141 164.674 267.936 164.469 267.936 164.217V163.976C267.936 163.725 268.141 163.52 268.393 163.52H271.862C272.114 163.52 272.319 163.725 272.319 163.976V164.217C272.319 164.469 272.114 164.674 271.862 164.674Z" fill="#1DB562"/>
<path d="M292.776 191.089H267.674C267.043 191.089 266.531 190.578 266.531 189.947V178.265C266.531 177.634 267.043 177.123 267.674 177.123H292.776C293.407 177.123 293.919 177.634 293.919 178.265V189.947C293.919 190.578 293.407 191.089 292.776 191.089Z" fill="#C4D7F2"/>
<path d="M291.448 189.463H290.476C290.227 189.463 290.025 189.261 290.025 189.013V179.2C290.025 178.951 290.227 178.75 290.476 178.75H291.448C291.696 178.75 291.898 178.951 291.898 179.2V189.013C291.898 189.261 291.696 189.463 291.448 189.463Z" fill="#ECF3FE"/>
<path d="M288.085 189.463H287.112C286.864 189.463 286.662 189.261 286.662 189.013V179.2C286.662 178.951 286.864 178.75 287.112 178.75H288.085C288.333 178.75 288.535 178.951 288.535 179.2V189.013C288.535 189.261 288.333 189.463 288.085 189.463Z" fill="#ECF3FE"/>
<path d="M284.723 189.463H283.751C283.502 189.463 283.301 189.261 283.301 189.013V179.2C283.301 178.951 283.502 178.75 283.751 178.75H284.723C284.972 178.75 285.174 178.951 285.174 179.2V189.013C285.174 189.261 284.972 189.463 284.723 189.463Z" fill="#ECF3FE"/>
<path d="M281.36 189.463H280.388C280.139 189.463 279.938 189.261 279.938 189.013V179.2C279.938 178.951 280.139 178.75 280.388 178.75H281.36C281.609 178.75 281.81 178.951 281.81 179.2V189.013C281.81 189.261 281.609 189.463 281.36 189.463Z" fill="#ECF3FE"/>
<path d="M271.862 180.43H268.393C268.141 180.43 267.936 180.224 267.936 179.973V179.732C267.936 179.481 268.141 179.276 268.393 179.276H271.862C272.114 179.276 272.319 179.481 272.319 179.732V179.973C272.319 180.224 272.114 180.43 271.862 180.43Z" fill="#1DB562"/>
<path d="M292.776 206.981H267.674C267.043 206.981 266.531 206.469 266.531 205.839V194.157C266.531 193.526 267.043 193.015 267.674 193.015H292.776C293.407 193.015 293.919 193.526 293.919 194.157V205.839C293.919 206.469 293.407 206.981 292.776 206.981Z" fill="#C4D7F2"/>
<path d="M291.448 205.354H290.476C290.227 205.354 290.025 205.153 290.025 204.904V195.091C290.025 194.843 290.227 194.641 290.476 194.641H291.448C291.696 194.641 291.898 194.843 291.898 195.091V204.904C291.898 205.153 291.696 205.354 291.448 205.354Z" fill="#ECF3FE"/>
<path d="M288.085 205.354H287.112C286.864 205.354 286.662 205.153 286.662 204.904V195.091C286.662 194.843 286.864 194.641 287.112 194.641H288.085C288.333 194.641 288.535 194.843 288.535 195.091V204.904C288.535 205.153 288.333 205.354 288.085 205.354Z" fill="#ECF3FE"/>
<path d="M284.723 205.354H283.751C283.502 205.354 283.301 205.153 283.301 204.904V195.091C283.301 194.843 283.502 194.641 283.751 194.641H284.723C284.972 194.641 285.174 194.843 285.174 195.091V204.904C285.174 205.153 284.972 205.354 284.723 205.354Z" fill="#ECF3FE"/>
<path d="M281.36 205.354H280.388C280.139 205.354 279.938 205.153 279.938 204.904V195.091C279.938 194.843 280.139 194.641 280.388 194.641H281.36C281.609 194.641 281.81 194.843 281.81 195.091V204.904C281.81 205.153 281.609 205.354 281.36 205.354Z" fill="#ECF3FE"/>
<path d="M271.862 196.322H268.393C268.141 196.322 267.936 196.116 267.936 195.865V195.624C267.936 195.373 268.141 195.167 268.393 195.167H271.862C272.114 195.167 272.319 195.373 272.319 195.624V195.865C272.319 196.116 272.114 196.322 271.862 196.322Z" fill="#1DB562"/>
<path d="M302.57 175.333H291.834V177.123H302.57V175.333Z" fill="#77A0C9"/>
<path d="M302.57 159.713H291.834V161.367H302.57V159.713Z" fill="#77A0C9"/>
<path d="M302.569 191.089H291.834V193.015H302.569V191.089Z" fill="#77A0C9"/>
<path d="M170.191 196.411H132.243C130.742 196.411 129.521 195.192 129.521 193.693V180.332C129.521 178.833 130.742 177.614 132.243 177.614H170.191C171.691 177.614 172.912 178.833 172.912 180.332V193.693C172.912 195.192 171.691 196.411 170.191 196.411ZM132.243 178.899C131.452 178.899 130.808 179.542 130.808 180.332V193.693C130.808 194.483 131.452 195.126 132.243 195.126H170.191C170.982 195.126 171.626 194.483 171.626 193.693V180.332C171.626 179.542 170.982 178.899 170.191 178.899H132.243Z" fill="white"/>
<path d="M154.863 181.226V184.19H168.967V181.226H154.863Z" fill="white"/>
<path d="M154.863 185.53V188.494H168.967V185.53H154.863Z" fill="white"/>
<path d="M154.863 189.835V192.798H168.967V189.835H154.863Z" fill="white"/>
<path d="M260.04 57.8886H222.092C220.592 57.8886 219.371 56.6694 219.371 55.1707V41.8096C219.371 40.311 220.592 39.0918 222.092 39.0918H260.04C261.541 39.0918 262.762 40.311 262.762 41.8096V55.1707C262.762 56.6694 261.541 57.8886 260.04 57.8886ZM222.092 40.3766C221.301 40.3766 220.658 41.0194 220.658 41.8096V55.1707C220.658 55.9609 221.301 56.6038 222.092 56.6038H260.04C260.832 56.6038 261.475 55.9609 261.475 55.1707V41.8096C261.475 41.0194 260.832 40.3766 260.04 40.3766H222.092Z" fill="white"/>
<path d="M244.713 42.7038V45.6674H258.817V42.7038H244.713Z" fill="white"/>
<path d="M244.713 47.0081V49.9717H258.817V47.0081H244.713Z" fill="white"/>
<path d="M244.713 51.3124V54.276H258.817V51.3124H244.713Z" fill="white"/>
<path d="M294.48 104.197H256.532C255.031 104.197 253.811 102.978 253.811 101.479V88.1178C253.811 86.6192 255.031 85.4 256.532 85.4H294.48C295.981 85.4 297.201 86.6192 297.201 88.1178V101.479C297.201 102.978 295.981 104.197 294.48 104.197ZM256.532 86.6848C255.741 86.6848 255.097 87.3276 255.097 88.1178V101.479C255.097 102.269 255.741 102.912 256.532 102.912H294.48C295.271 102.912 295.915 102.269 295.915 101.479V88.1178C295.915 87.3276 295.271 86.6848 294.48 86.6848H256.532Z" fill="white"/>
<path d="M279.152 89.0121V91.9756H293.256V89.0121H279.152Z" fill="white"/>
<path d="M279.152 93.3164V96.28H293.256V93.3164H279.152Z" fill="white"/>
<path d="M279.152 97.6206V100.584H293.256V97.6206H279.152Z" fill="white"/>
<path d="M235.264 77.0059H170.669C168.829 77.0059 167.332 75.511 167.332 73.6736V30.9813C167.332 29.1439 168.829 27.649 170.669 27.649H204.667C205.095 27.649 205.505 27.5186 205.853 27.2718L213.722 21.7C214.289 21.2984 214.957 21.0861 215.652 21.0861H235.264C237.104 21.0861 238.6 22.5809 238.6 24.4183V73.6737C238.6 75.511 237.104 77.0059 235.264 77.0059ZM170.669 28.9338C169.538 28.9338 168.619 29.8522 168.619 30.9812V73.6736C168.619 74.8025 169.538 75.721 170.669 75.721H235.264C236.394 75.721 237.314 74.8025 237.314 73.6736V24.4181C237.314 23.2892 236.394 22.3708 235.264 22.3708H215.652C215.225 22.3708 214.815 22.5012 214.466 22.7479L206.597 28.3198C206.03 28.7214 205.363 28.9337 204.668 28.9337H170.669V28.9338Z" fill="white"/>
<path opacity="0.18" d="M244.817 93.567L240.337 91.3834C239.447 90.9498 238.946 89.987 239.1 89.0104L240.343 81.1612C240.75 78.5917 238.994 76.1791 236.421 75.7727L156.769 63.1909C153.943 62.7446 151.291 64.6703 150.844 67.492L134.045 173.573C133.598 176.395 135.526 179.044 138.351 179.49L218.004 192.072C220.577 192.478 222.992 190.725 223.399 188.155L233.04 127.278C233.193 126.313 233.951 125.557 234.917 125.407L240.138 124.592C241.883 124.319 243.249 122.948 243.512 121.204L247.042 97.7972C247.305 96.0532 246.404 94.3404 244.817 93.567Z" fill="#003889"/>
<path d="M238.88 112.348L241.049 88.7773C241.211 87.021 240.212 85.3632 238.583 84.6827L233.984 82.7616C233.071 82.3801 232.514 81.4477 232.612 80.4639L233.399 72.556C233.656 69.9673 231.764 67.6602 229.172 67.403L148.924 59.4412C146.077 59.1588 143.541 61.2344 143.258 64.0772L132.627 170.951C132.345 173.794 134.423 176.327 137.269 176.609L217.517 184.571C220.109 184.828 222.419 182.938 222.677 180.349L228.777 119.017C228.874 118.045 229.587 117.247 230.543 117.041L235.708 115.926C237.434 115.553 238.718 114.105 238.88 112.348Z" fill="white"/>
<path d="M186.006 81.935L150.886 78.4506C149.84 78.3467 149.075 77.4151 149.179 76.3699L149.515 72.9966C149.619 71.9514 150.552 71.1881 151.598 71.292L186.719 74.7764C187.765 74.8803 188.529 75.8119 188.425 76.8571L188.09 80.2304C187.986 81.2756 187.053 82.0388 186.006 81.935Z" fill="#ECF3FE"/>
<path d="M175.488 132.459L144.86 129.42C144.337 129.368 143.955 128.903 144.007 128.38L144.198 126.455C144.25 125.933 144.716 125.551 145.239 125.603L175.867 128.642C176.391 128.694 176.772 129.159 176.72 129.682L176.529 131.607C176.477 132.129 176.011 132.511 175.488 132.459Z" fill="#ECF3FE"/>
<path d="M217.796 144.093L155.317 137.894C154.736 137.836 154.313 137.32 154.37 136.74L154.541 135.022C154.599 134.442 155.116 134.019 155.696 134.077L218.176 140.276C218.756 140.333 219.18 140.85 219.122 141.429L218.951 143.148C218.894 143.727 218.377 144.15 217.796 144.093Z" fill="#ECF3FE"/>
<path d="M216.977 151.447L143.585 144.166C142.957 144.104 142.498 143.544 142.56 142.917L142.714 141.372C142.776 140.744 143.336 140.287 143.964 140.349L217.357 147.63C217.985 147.693 218.444 148.252 218.381 148.879L218.228 150.425C218.165 151.052 217.606 151.51 216.977 151.447Z" fill="#ECF3FE"/>
<path d="M216.245 158.811L142.852 151.529C142.224 151.467 141.766 150.908 141.828 150.281L141.982 148.735C142.044 148.108 142.604 147.65 143.232 147.712L216.625 154.994C217.253 155.056 217.711 155.615 217.649 156.243L217.495 157.788C217.433 158.415 216.873 158.873 216.245 158.811Z" fill="#ECF3FE"/>
<path d="M215.513 166.174L142.12 158.893C141.492 158.83 141.033 158.271 141.096 157.644L141.249 156.099C141.312 155.471 141.871 155.014 142.499 155.076L215.892 162.357C216.52 162.42 216.979 162.979 216.917 163.606L216.763 165.152C216.7 165.779 216.141 166.237 215.513 166.174Z" fill="#ECF3FE"/>
<path d="M214.78 173.538L141.387 166.256C140.759 166.194 140.301 165.635 140.363 165.008L140.517 163.462C140.579 162.835 141.139 162.377 141.767 162.439L215.16 169.721C215.788 169.783 216.247 170.342 216.184 170.969L216.03 172.515C215.968 173.142 215.408 173.6 214.78 173.538Z" fill="#ECF3FE"/>
<path d="M207.979 123.703L160.025 118.945C158.564 118.8 157.497 117.5 157.642 116.04L160.372 88.6006C160.517 87.1412 161.819 86.0756 163.28 86.2206L211.234 90.9784C212.696 91.1234 213.763 92.424 213.617 93.8834L210.888 121.323C210.743 122.783 209.441 123.848 207.979 123.703Z" fill="#33DA82"/>
<path opacity="0.18" d="M208.259 94.663L207.926 70.995C207.901 69.2315 206.733 67.6882 205.041 67.1831L200.264 65.7573C199.316 65.4742 198.664 64.6058 198.657 63.6172L198.604 55.6706C198.586 53.069 196.46 50.9743 193.856 50.9917L113.215 51.532C110.355 51.5512 108.051 53.8826 108.07 56.7393L108.792 164.136C108.811 166.993 111.145 169.293 114.006 169.274L194.647 168.734C197.251 168.717 199.349 166.594 199.331 163.992L198.917 102.359C198.911 101.383 199.536 100.513 200.464 100.208L205.483 98.5543C207.16 98.002 208.284 96.4265 208.259 94.663Z" fill="#003889"/>
<path d="M202.958 89.2038L201.521 65.5771C201.414 63.8167 200.175 62.3293 198.461 61.9035L193.624 60.7015C192.663 60.4628 191.971 59.6256 191.918 58.6384L191.494 50.7028C191.356 48.105 189.134 46.1114 186.533 46.25L106.005 50.5407C103.149 50.6929 100.957 53.1288 101.109 55.9816L106.838 163.229C106.99 166.081 109.429 168.271 112.286 168.118L192.814 163.828C195.415 163.689 197.411 161.471 197.273 158.873L193.985 97.3261C193.933 96.351 194.516 95.4538 195.43 95.1051L200.366 93.2203C202.015 92.5905 203.065 90.9643 202.958 89.2038Z" fill="white"/>
<path d="M142.179 63.5861L111.757 65.2071C111.145 65.2397 110.623 64.7711 110.591 64.1606L110.431 61.1766C110.399 60.5661 110.868 60.0448 111.479 60.0122L141.901 58.3912C142.513 58.3586 143.035 58.8272 143.067 59.4377L143.227 62.4216C143.259 63.0322 142.79 63.5535 142.179 63.5861Z" fill="#ECF3FE"/>
<path d="M183.077 72.7967L123.993 75.9448C123.387 75.9771 122.87 75.5129 122.838 74.908L122.677 71.9038C122.645 71.2989 123.11 70.7823 123.716 70.7501L182.8 67.6019C183.406 67.5696 183.923 68.0339 183.955 68.6388L184.116 71.643C184.148 72.2478 183.683 72.7644 183.077 72.7967Z" fill="#ECF3FE"/>
<path d="M183.583 84.1595L113.058 87.9172C112.397 87.9525 111.833 87.446 111.798 86.7862L111.648 83.981C111.613 83.3211 112.12 82.7576 112.781 82.7224L183.306 78.9647C183.966 78.9294 184.53 79.4358 184.566 80.0957L184.715 82.9009C184.751 83.5608 184.244 84.1243 183.583 84.1595Z" fill="#ECF3FE"/>
<path d="M184.188 95.517L113.664 99.2747C113.003 99.3099 112.439 98.8035 112.404 98.1437L112.254 95.3385C112.218 94.6786 112.725 94.1151 113.386 94.0799L183.911 90.3221C184.572 90.2869 185.136 90.7933 185.171 91.4533L185.321 94.2584C185.356 94.9182 184.849 95.4817 184.188 95.517Z" fill="#ECF3FE"/>
<path d="M184.796 106.874L114.271 110.632C113.61 110.667 113.046 110.161 113.011 109.501L112.861 106.696C112.826 106.036 113.333 105.473 113.994 105.437L184.518 101.68C185.179 101.644 185.743 102.151 185.779 102.811L185.928 105.616C185.964 106.276 185.457 106.839 184.796 106.874Z" fill="#ECF3FE"/>
<path d="M185.403 118.232L114.879 121.99C114.218 122.025 113.654 121.518 113.618 120.859L113.469 118.053C113.433 117.394 113.94 116.83 114.601 116.795L185.126 113.037C185.787 113.002 186.351 113.508 186.386 114.168L186.536 116.973C186.571 117.633 186.064 118.197 185.403 118.232Z" fill="#ECF3FE"/>
<path d="M186.009 129.589L115.484 133.347C114.823 133.382 114.259 132.876 114.224 132.216L114.074 129.411C114.039 128.751 114.546 128.188 115.207 128.152L185.731 124.395C186.392 124.359 186.956 124.866 186.992 125.526L187.141 128.331C187.177 128.991 186.67 129.554 186.009 129.589Z" fill="#ECF3FE"/>
<path d="M186.616 140.947L116.091 144.705C115.431 144.74 114.867 144.233 114.831 143.573L114.681 140.768C114.646 140.108 115.153 139.545 115.814 139.51L186.339 135.752C187 135.717 187.564 136.223 187.599 136.883L187.749 139.688C187.784 140.348 187.277 140.912 186.616 140.947Z" fill="#ECF3FE"/>
<path d="M187.224 152.304L116.699 156.062C116.038 156.097 115.474 155.591 115.439 154.931L115.289 152.126C115.254 151.466 115.761 150.903 116.421 150.867L186.946 147.11C187.607 147.074 188.171 147.581 188.206 148.241L188.356 151.046C188.392 151.706 187.884 152.269 187.224 152.304Z" fill="#ECF3FE"/>
<path d="M156.082 150.226L67.2627 201.83C67.052 201.951 66.7824 201.879 66.6607 201.669L0.309122 86.8913C0.187418 86.6808 0.25963 86.4115 0.470469 86.29L89.2897 34.6857C91.705 33.293 94.7934 34.1195 96.1879 36.5317L157.93 143.336C159.325 145.748 158.497 148.833 156.082 150.226Z" fill="#1061B2"/>
<path opacity="0.18" d="M166.523 155.935L154.219 95.5377C154.024 94.5808 154.47 93.6078 155.322 93.1289L159.928 90.5404C161.467 89.6754 162.265 87.9131 161.901 86.1874L157.005 63.0276C156.64 61.302 155.196 60.0124 153.438 59.8427L148.476 59.3632C147.491 59.268 146.683 58.5414 146.486 57.5727L144.9 49.7854C144.38 47.2361 141.89 45.5899 139.338 46.1086L60.3137 62.1648C57.5108 62.7343 55.7007 65.4654 56.271 68.2648L77.7093 173.508C78.2795 176.308 81.0141 178.116 83.8171 177.546L162.841 161.49C165.394 160.971 167.042 158.484 166.523 155.935Z" fill="#003889"/>
<path d="M160.685 156.384L149.66 159.375L82.8637 177.494C80.1029 178.244 77.2572 176.615 76.5059 173.858L48.3191 70.2149C47.9177 68.7374 48.1982 67.2366 48.9701 66.0469C49.639 65.0139 50.6785 64.2147 51.9599 63.8653L60.5818 61.5268L106.591 49.046L129.784 42.7554C132.298 42.0745 134.889 43.5572 135.571 46.0677L137.657 53.7357C137.917 54.689 138.769 55.3622 139.759 55.3931L144.741 55.5524C146.506 55.6089 148.029 56.8038 148.505 58.5024L154.886 81.2979C155.362 82.9965 154.677 84.8081 153.198 85.7692L148.77 88.6498C147.949 89.1817 147.568 90.1813 147.826 91.1244L164.002 150.602C164.684 153.113 163.199 155.703 160.685 156.384Z" fill="white"/>
<path d="M131.98 62.4122L61.0409 81.6557C60.1737 81.891 59.2797 81.3796 59.0441 80.5135L57.6315 75.3192C57.396 74.4531 57.908 73.5603 58.7752 73.325L129.714 54.0814C130.581 53.8462 131.475 54.3576 131.711 55.2237L133.124 60.418C133.359 61.2841 132.847 62.1769 131.98 62.4122Z" fill="#33DA82"/>
<path d="M114.561 116.337L73.5899 127.451C72.6738 127.699 71.7294 127.159 71.4806 126.244L61.1074 88.1021C60.8586 87.1871 61.3995 86.244 62.3156 85.9955L103.287 74.8813C104.203 74.6328 105.147 75.1731 105.396 76.088L115.769 114.23C116.018 115.145 115.477 116.088 114.561 116.337Z" fill="#ECF3FE"/>
<path d="M107.16 127.999L75.1726 136.676C74.7339 136.795 74.2816 136.537 74.1624 136.099L73.443 133.454C73.3239 133.016 73.5829 132.564 74.0217 132.445L106.009 123.768C106.448 123.649 106.9 123.907 107.019 124.346L107.739 126.99C107.858 127.429 107.599 127.88 107.16 127.999Z" fill="#ECF3FE"/>
<path d="M136.357 76.1341L110.945 83.0278C110.41 83.1729 109.858 82.8574 109.713 82.323L109.088 80.0265C108.943 79.4921 109.259 78.9412 109.794 78.7961L135.206 71.9024C135.742 71.7573 136.293 72.0728 136.438 72.6072L137.063 74.9037C137.208 75.438 136.892 75.989 136.357 76.1341Z" fill="#ECF3FE"/>
<path d="M138.73 84.862L113.318 91.7557C112.783 91.9008 112.231 91.5853 112.086 91.0509L111.461 88.7544C111.316 88.22 111.632 87.6691 112.167 87.524L137.58 80.6303C138.115 80.4852 138.666 80.8007 138.812 81.3351L139.436 83.6316C139.581 84.1659 139.265 84.7169 138.73 84.862Z" fill="#ECF3FE"/>
<path d="M141.103 93.5899L115.691 100.484C115.156 100.629 114.604 100.313 114.459 99.7788L113.834 97.4823C113.689 96.9479 114.005 96.397 114.54 96.2519L139.953 89.3582C140.488 89.2131 141.039 89.5286 141.185 90.063L141.809 92.3594C141.954 92.8938 141.639 93.4448 141.103 93.5899Z" fill="#ECF3FE"/>
<path d="M143.478 102.318L118.066 109.211C117.531 109.357 116.979 109.041 116.834 108.507L116.209 106.21C116.064 105.676 116.38 105.125 116.915 104.98L142.328 98.0861C142.863 97.9409 143.414 98.2564 143.56 98.7909L144.184 101.087C144.33 101.622 144.014 102.173 143.478 102.318Z" fill="#ECF3FE"/>
<path d="M149.54 125.448L77.821 144.903C77.1693 145.08 76.4975 144.696 76.3205 144.045L75.8106 142.17C75.6336 141.519 76.0185 140.848 76.6702 140.671L148.39 121.216C149.041 121.039 149.713 121.424 149.89 122.075L150.4 123.949C150.577 124.6 150.192 125.271 149.54 125.448Z" fill="#ECF3FE"/>
<path d="M151.808 133.779L80.0886 153.234C79.4369 153.411 78.765 153.027 78.588 152.376L78.0782 150.501C77.9012 149.85 78.286 149.179 78.9377 149.003L150.657 129.547C151.309 129.371 151.981 129.755 152.158 130.406L152.667 132.28C152.845 132.931 152.46 133.602 151.808 133.779Z" fill="#ECF3FE"/>
<path d="M154.074 142.11L82.3542 161.565C81.7025 161.742 81.0307 161.358 80.8537 160.707L80.3438 158.832C80.1668 158.181 80.5517 157.511 81.2034 157.334L152.923 137.879C153.574 137.702 154.246 138.086 154.423 138.737L154.933 140.612C155.11 141.262 154.725 141.933 154.074 142.11Z" fill="#ECF3FE"/>
<path d="M143.328 154.54L97.9226 166.856C97.557 166.956 97.1801 166.74 97.0808 166.375C96.9815 166.01 97.1974 165.633 97.563 165.534L142.968 153.217C143.334 153.118 143.711 153.334 143.81 153.699C143.909 154.064 143.693 154.44 143.328 154.54Z" fill="#ECF3FE"/>
<path opacity="0.18" d="M149.66 159.375L82.8637 177.494C80.1029 178.244 77.2572 176.615 76.5059 173.858L48.3191 70.2149C47.9177 68.7374 48.1982 67.2366 48.9701 66.0469L60.5818 61.5268L106.591 49.046L110.582 59.2707L113.739 67.36L117.398 76.7317L119.003 80.8431L120.707 85.2064L122.312 89.3154L124.015 93.6812L125.618 97.7901L127.324 102.156L128.927 106.265L136.067 124.558L137.673 128.667L139.227 132.65L140.83 136.757L142.384 140.737L143.987 144.846L149.66 159.375Z" fill="#003889"/>
<path d="M145.044 167.815L54.8603 208.024C54.638 208.123 54.3774 208.023 54.2781 207.801L0.182917 86.7788C0.0837029 86.5569 0.183444 86.2966 0.405716 86.1975L90.5898 45.9893C93.1364 44.8539 96.1226 45.9953 97.2595 48.5388L147.597 161.154C148.734 163.698 147.591 166.68 145.044 167.815Z" fill="#3B82F4"/>
<path d="M86.9216 100.897L47.9957 118.258C47.0558 118.677 45.9534 118.256 45.5337 117.317L36.3383 96.7531C35.9185 95.8144 36.3402 94.7135 37.2801 94.2943L76.2061 76.9327C77.146 76.5135 78.2484 76.9347 78.6681 77.8734L87.8635 98.4378C88.2833 99.3765 87.8617 100.477 86.9216 100.897Z" fill="#F9F8F7"/>
<path d="M41.5932 99.5158C41.4396 99.5158 41.2931 99.4274 41.2264 99.2783C41.136 99.0761 41.2268 98.8389 41.4293 98.7486L76.7552 82.9928C76.9576 82.9024 77.195 82.9932 77.2854 83.1954C77.3759 83.3975 77.2851 83.6347 77.0826 83.725L41.7566 99.4809C41.7035 99.5045 41.6479 99.5158 41.5932 99.5158Z" fill="#192942"/>
<path d="M44.4389 105.874C44.2853 105.874 44.1387 105.786 44.0721 105.637C43.9817 105.435 44.0726 105.198 44.275 105.107L79.6009 89.3514C79.8032 89.261 80.0407 89.3517 80.1311 89.554C80.2215 89.7561 80.1308 89.9933 79.9283 90.0836L44.6023 105.839C44.5491 105.863 44.4935 105.874 44.4389 105.874Z" fill="#192942"/>
<path d="M47.2826 112.233C47.129 112.233 46.9825 112.145 46.9159 111.996C46.8254 111.793 46.9162 111.556 47.1187 111.466L82.4447 95.71C82.6471 95.6197 82.8845 95.7104 82.975 95.9126C83.0654 96.1148 82.9745 96.352 82.7721 96.4423L47.4461 112.198C47.393 112.222 47.3373 112.233 47.2826 112.233Z" fill="#192942"/>
<path d="M147.222 193.632H142.953V210.729H147.222V193.632Z" fill="#9FB8D6"/>
<path d="M142.952 193.632H113.648V210.729H142.952V193.632Z" fill="white"/>
<path d="M131.649 200.771H124.954C124.262 200.771 123.695 200.205 123.695 199.514C123.695 198.822 124.262 198.257 124.954 198.257H131.649C132.341 198.257 132.907 198.822 132.907 199.514C132.907 200.205 132.341 200.771 131.649 200.771Z" fill="#36588E"/>
<path d="M142.953 188.763H112.621V194.858H142.953V188.763Z" fill="#F4B545"/>
<path d="M148.167 188.763H142.953V194.858H148.167V188.763Z" fill="#E59D29"/>
<path opacity="0.5" d="M113.648 194.858L142.952 197.8V194.858H113.648Z" fill="#9FB8D6"/>
<path d="M133.918 202.451H122.682V207.95H133.918V202.451Z" fill="#C4D7F2"/>
<path d="M131.804 184.732H114.613V188.817H131.804V184.732Z" fill="#D7E3F4"/>
<path d="M141.744 185.459V188.091H142.297V188.817H131.805V184.732H142.297V185.459H141.744Z" fill="#87A7C6"/>
<path d="M141.744 185.459H132.615V188.091H141.744V185.459Z" fill="#D7E3F4"/>
<path d="M141.744 185.459H132.615V186.113H141.744V185.459Z" fill="#9FB8D6"/>
<path d="M124.356 185.65H115.859V187.899H124.356V185.65Z" fill="white"/>
<path d="M126.105 185.65H125.082V187.899H126.105V185.65Z" fill="white"/>
<path d="M128.351 187.899C128.973 187.899 129.477 187.396 129.477 186.775C129.477 186.153 128.973 185.65 128.351 185.65C127.729 185.65 127.225 186.153 127.225 186.775C127.225 187.396 127.729 187.899 128.351 187.899Z" fill="white"/>
<path d="M128.351 187.507C128.756 187.507 129.084 187.179 129.084 186.775C129.084 186.37 128.756 186.042 128.351 186.042C127.946 186.042 127.617 186.37 127.617 186.775C127.617 187.179 127.946 187.507 128.351 187.507Z" fill="#87A7C6"/>
<path d="M135.653 168.047H112.158V175.286H135.653H140.784V168.047H135.653Z" fill="white"/>
<path d="M136.509 175.286H113.014V180.675H136.509H141.822V175.286H136.509Z" fill="white"/>
<path d="M135.653 168.047V175.286H123.213L136.426 177.462V180.675H141.821V175.286H140.783V168.047H135.653Z" fill="#9FB8D6"/>
<path d="M132.652 180.674H115.576V184.732H132.652V180.674Z" fill="#33DA82"/>
<path d="M142.525 181.396V184.011H143.074V184.732H132.652V180.674H143.074V181.396H142.525Z" fill="#1DB562"/>
<path d="M142.525 181.396H133.457V184.011H142.525V181.396Z" fill="#D7E3F4"/>
<path d="M142.525 181.396H133.457V182.047H142.525V181.396Z" fill="#9FB8D6"/>
<path d="M125.252 181.586H116.812V183.821H125.252V181.586Z" fill="white"/>
<path d="M126.994 181.586H125.979V183.821H126.994V181.586Z" fill="white"/>
<path d="M130.308 182.979C130.45 182.378 130.077 181.777 129.476 181.635C128.875 181.493 128.272 181.865 128.13 182.465C127.988 183.066 128.361 183.668 128.962 183.809C129.563 183.951 130.166 183.579 130.308 182.979Z" fill="white"/>
<path d="M129.223 183.431C129.625 183.431 129.951 183.105 129.951 182.703C129.951 182.301 129.625 181.976 129.223 181.976C128.82 181.976 128.494 182.301 128.494 182.703C128.494 183.105 128.82 183.431 129.223 183.431Z" fill="#33DA82"/>
<path d="M112.619 188.763L142.951 191.003V188.763H112.619Z" fill="#E59D29"/>
<path d="M301.281 122.788L292.717 119.788L288.383 132.128L296.946 135.128L301.281 122.788Z" fill="#33DA82"/>
<path d="M288.879 120.651L282.98 128.887L293.631 136.496L299.53 128.26L288.879 120.651Z" fill="#C4D7F2"/>
<path d="M300.05 128.138L293.633 121.729L284.374 130.976L290.791 137.385L300.05 128.138Z" fill="#F9F9F9"/>
<path d="M299.75 145.823H285.128L282.287 126.344H302.591L299.75 145.823Z" fill="white"/>
<path d="M296.273 133.556L288.487 133.577C288.062 133.578 287.725 133.935 287.747 134.358L288.145 142.008C288.166 142.404 288.493 142.714 288.889 142.712L295.922 142.693C296.318 142.692 296.644 142.381 296.663 141.985L297.018 134.333C297.038 133.909 296.699 133.555 296.273 133.556ZM289.94 141.211C289.61 141.212 289.339 140.944 289.338 140.614L289.325 135.672C289.323 135.342 289.593 135.072 289.922 135.071C289.923 135.071 289.923 135.071 289.924 135.071C290.253 135.071 290.523 135.34 290.524 135.669L290.538 140.611C290.539 140.94 290.27 141.211 289.94 141.211ZM292.245 141.206C291.915 141.206 291.644 140.937 291.643 140.608L291.63 135.665C291.629 135.336 291.898 135.065 292.228 135.065C292.229 135.065 292.229 135.065 292.23 135.065C292.559 135.065 292.829 135.333 292.83 135.662L292.843 140.605C292.844 140.934 292.575 141.204 292.245 141.206ZM294.551 141.199C294.221 141.2 293.95 140.931 293.95 140.601L293.935 135.659C293.935 135.329 294.204 135.06 294.534 135.058C294.535 135.058 294.535 135.058 294.535 135.058C294.865 135.058 295.135 135.327 295.135 135.655L295.149 140.598C295.15 140.928 294.88 141.198 294.551 141.199Z" fill="#C4D7F2"/>
<path d="M296.396 131.434L295.412 131.233L295.245 130.572C295.209 130.429 295.094 130.319 294.948 130.29L290.89 129.463C290.744 129.434 290.596 129.49 290.506 129.609L290.094 130.152L289.11 129.952C288.615 129.851 288.127 130.173 288.026 130.668C287.925 131.162 288.248 131.649 288.743 131.749L296.029 133.231C296.524 133.332 297.012 133.01 297.112 132.516C297.213 132.021 296.891 131.535 296.396 131.434ZM294.281 131.016C294.257 131.134 294.153 131.216 294.037 131.216C294.02 131.216 294.003 131.214 293.986 131.211L291.415 130.688C291.28 130.661 291.192 130.528 291.22 130.394C291.243 130.275 291.348 130.194 291.464 130.194C291.481 130.194 291.497 130.195 291.514 130.199L294.086 130.722C294.221 130.749 294.308 130.882 294.281 131.016Z" fill="#C4D7F2"/>
<path d="M136.635 22.1332C140.113 18.6602 140.113 13.0294 136.635 9.55642C133.158 6.08344 127.52 6.08344 124.043 9.55643C120.565 13.0294 120.565 18.6602 124.043 22.1332C127.52 25.6062 133.158 25.6062 136.635 22.1332Z" fill="#F4B545"/>
<path d="M330.399 174.726C333.414 174.726 335.857 172.285 335.857 169.274C335.857 166.264 333.414 163.823 330.399 163.823C327.385 163.823 324.941 166.264 324.941 169.274C324.941 172.285 327.385 174.726 330.399 174.726Z" fill="#C4D7F2"/>
<path d="M29.6178 50.3378C30.3325 47.413 28.5379 44.4634 25.6094 43.7496C22.681 43.0358 19.7276 44.8281 19.0129 47.7529C18.2981 50.6776 20.0927 53.6273 23.0212 54.3411C25.9497 55.0549 28.9031 53.2625 29.6178 50.3378Z" fill="#C4D7F2"/>
</svg>
