<svg width="500" height="117" viewBox="0 0 500 117" fill="none" xmlns="http://www.w3.org/2000/svg">
<path d="M0 0.560547H500V106.594C500 112.117 495.523 116.594 490 116.594H9.99999C4.47714 116.594 0 112.117 0 106.594V0.560547Z" fill="#243B79"/>
<path d="M234.662 94.1949C234.662 94.1949 203.544 90.1576 196.936 78.2012C190.327 66.2417 189.455 55.666 200.748 48.369C212.041 41.072 215.383 34.3749 217.801 26.24C220.22 18.102 234.731 7.67227 252.944 19.0732C271.156 30.4741 276.676 38.6408 292.653 43.9476C308.631 49.2545 313.897 73.71 299.519 82.3813C285.144 91.0495 263.053 98.886 234.662 94.1949Z" fill="#F9F9F9"/>
<path d="M284.975 36.7109H299.873L305.485 52.1396H279.176L284.975 36.7109Z" fill="#29B6DB"/>
<path d="M299.521 91.0496H285.143V93.2618H299.521V91.0496Z" fill="#29B6DB"/>
<path d="M292.654 52.1396H292.01V91.0526H292.654V52.1396Z" fill="#29B6DB"/>
<path d="M287.065 57.5069H261.854C260.441 57.5069 259.299 56.3611 259.299 54.9518V38.1298C259.299 36.7173 260.445 35.5747 261.854 35.5747H287.065C288.477 35.5747 289.62 36.7205 289.62 38.1298V54.9518C289.623 56.3611 288.477 57.5069 287.065 57.5069Z" fill="white" stroke="#13475F" stroke-miterlimit="10"/>
<path d="M269.966 33.6958H260.485C259.828 33.6958 259.295 33.1625 259.295 32.5055V30.4583C259.295 29.8013 259.828 29.2681 260.485 29.2681H269.966C270.623 29.2681 271.156 29.8013 271.156 30.4583V32.5055C271.156 33.1625 270.623 33.6958 269.966 33.6958Z" fill="#13475F"/>
<path d="M263.773 45.2512C263.41 45.2512 263.075 45.1847 262.768 45.0518C262.467 44.9138 262.219 44.7196 262.025 44.4691L262.715 43.6411C263.006 44.0347 263.338 44.2315 263.712 44.2315C264.218 44.2315 264.471 43.935 264.471 43.3421V40.789H262.584V39.7923H265.705V43.2731C265.705 43.9325 265.541 44.4283 265.214 44.7605C264.887 45.0876 264.407 45.2512 263.773 45.2512ZM264.363 49.973C265.002 49.973 265.493 50.1263 265.835 50.433C266.178 50.7346 266.349 51.1921 266.349 51.8054V54.1592H265.23V53.6455C265.005 54.0288 264.586 54.2205 263.972 54.2205C263.655 54.2205 263.379 54.1668 263.144 54.0595C262.914 53.9522 262.738 53.8039 262.615 53.6148C262.492 53.4257 262.431 53.211 262.431 52.9708C262.431 52.5874 262.574 52.2859 262.86 52.0661C263.152 51.8463 263.599 51.7364 264.202 51.7364H265.153C265.153 51.4757 265.074 51.2764 264.915 51.1384C264.757 50.9953 264.519 50.9237 264.202 50.9237C263.982 50.9237 263.765 50.9595 263.551 51.031C263.341 51.0975 263.162 51.1895 263.014 51.3071L262.584 50.4714C262.809 50.3129 263.078 50.1902 263.39 50.1033C263.706 50.0164 264.031 49.973 264.363 49.973ZM264.271 53.4155C264.476 53.4155 264.657 53.3695 264.816 53.2775C264.974 53.1804 265.086 53.0398 265.153 52.8558V52.4341H264.333C263.842 52.4341 263.597 52.5951 263.597 52.9171C263.597 53.0705 263.655 53.1931 263.773 53.2851C263.896 53.372 264.062 53.4155 264.271 53.4155ZM265.207 58.973C265.718 58.973 266.129 59.1263 266.441 59.433C266.758 59.7397 266.916 60.1946 266.916 60.7977V63.1592H265.72V60.9818C265.72 60.6546 265.649 60.4118 265.506 60.2534C265.362 60.0898 265.155 60.008 264.885 60.008C264.583 60.008 264.343 60.1026 264.164 60.2917C263.985 60.4757 263.896 60.7517 263.896 61.1198V63.1592H262.699V59.0343H263.842V59.5174C264 59.3436 264.197 59.2107 264.432 59.1187C264.667 59.0216 264.925 58.973 265.207 58.973Z" fill="#13475F"/>
<path d="M263.169 43.9478C263.169 44.3922 262.807 44.754 262.363 44.754C261.918 44.754 261.557 44.3922 261.557 43.9478C261.557 43.5035 261.918 43.1416 262.363 43.1416C262.807 43.1384 263.169 43.5003 263.169 43.9478Z" fill="#E5E5E5"/>
<path d="M266.355 44.754C266.8 44.754 267.161 44.393 267.161 43.9478C267.161 43.5025 266.8 43.1416 266.355 43.1416C265.91 43.1416 265.549 43.5025 265.549 43.9478C265.549 44.393 265.91 44.754 266.355 44.754Z" fill="#E5E5E5"/>
<path d="M270.348 44.754C270.793 44.754 271.154 44.393 271.154 43.9478C271.154 43.5025 270.793 43.1416 270.348 43.1416C269.903 43.1416 269.542 43.5025 269.542 43.9478C269.542 44.393 269.903 44.754 270.348 44.754Z" fill="#E5E5E5"/>
<path d="M274.342 44.754C274.788 44.754 275.148 44.393 275.148 43.9478C275.148 43.5025 274.788 43.1416 274.342 43.1416C273.897 43.1416 273.536 43.5025 273.536 43.9478C273.536 44.393 273.897 44.754 274.342 44.754Z" fill="#E5E5E5"/>
<path d="M263.169 47.014C263.169 47.4583 262.807 47.8201 262.363 47.8201C261.918 47.8201 261.557 47.4583 261.557 47.014C261.557 46.5696 261.918 46.2078 262.363 46.2078C262.807 46.2078 263.169 46.5664 263.169 47.014Z" fill="#E5E5E5"/>
<path d="M266.355 47.8201C266.8 47.8201 267.161 47.4592 267.161 47.014C267.161 46.5687 266.8 46.2078 266.355 46.2078C265.91 46.2078 265.549 46.5687 265.549 47.014C265.549 47.4592 265.91 47.8201 266.355 47.8201Z" fill="#E5E5E5"/>
<path d="M270.348 47.8201C270.793 47.8201 271.154 47.4592 271.154 47.014C271.154 46.5687 270.793 46.2078 270.348 46.2078C269.903 46.2078 269.542 46.5687 269.542 47.014C269.542 47.4592 269.903 47.8201 270.348 47.8201Z" fill="#13475F"/>
<path d="M274.342 47.8201C274.788 47.8201 275.148 47.4592 275.148 47.014C275.148 46.5687 274.788 46.2078 274.342 46.2078C273.897 46.2078 273.536 46.5687 273.536 47.014C273.536 47.4592 273.897 47.8201 274.342 47.8201Z" fill="#E5E5E5"/>
<path d="M263.169 50.08C263.169 50.5244 262.807 50.8862 262.363 50.8862C261.918 50.8862 261.557 50.5244 261.557 50.08C261.557 49.6356 261.918 49.2738 262.363 49.2738C262.807 49.2738 263.169 49.6356 263.169 50.08Z" fill="#E5E5E5"/>
<path d="M267.161 50.08C267.161 50.5244 266.799 50.8862 266.355 50.8862C265.911 50.8862 265.549 50.5244 265.549 50.08C265.549 49.6356 265.911 49.2738 266.355 49.2738C266.799 49.2738 267.161 49.6356 267.161 50.08Z" fill="#E5E5E5"/>
<path d="M271.154 50.08C271.154 50.5244 270.793 50.8862 270.348 50.8862C269.904 50.8862 269.542 50.5244 269.542 50.08C269.542 49.6356 269.904 49.2738 270.348 49.2738C270.793 49.2738 271.154 49.6356 271.154 50.08Z" fill="#E5E5E5"/>
<path d="M275.148 50.08C275.148 50.5244 274.787 50.8862 274.342 50.8862C273.898 50.8862 273.536 50.5244 273.536 50.08C273.536 49.6356 273.898 49.2738 274.342 49.2738C274.787 49.2738 275.148 49.6356 275.148 50.08Z" fill="#E5E5E5"/>
<path d="M279.268 43.9478C279.268 44.3922 278.906 44.754 278.461 44.754C278.017 44.754 277.655 44.3922 277.655 43.9478C277.655 43.5035 278.017 43.1416 278.461 43.1416C278.906 43.1384 279.268 43.5003 279.268 43.9478Z" fill="#E5E5E5"/>
<path d="M279.268 47.014C279.268 47.4583 278.906 47.8201 278.461 47.8201C278.017 47.8201 277.655 47.4583 277.655 47.014C277.655 46.5696 278.017 46.2078 278.461 46.2078C278.906 46.2078 279.268 46.5664 279.268 47.014Z" fill="#E5E5E5"/>
<path d="M279.268 50.08C279.268 50.5244 278.906 50.8862 278.461 50.8862C278.017 50.8862 277.655 50.5244 277.655 50.08C277.655 49.6356 278.017 49.2738 278.461 49.2738C278.906 49.2738 279.268 49.6356 279.268 50.08Z" fill="#E5E5E5"/>
<path d="M282.578 44.754C283.023 44.754 283.384 44.393 283.384 43.9478C283.384 43.5025 283.023 43.1416 282.578 43.1416C282.132 43.1416 281.771 43.5025 281.771 43.9478C281.771 44.393 282.132 44.754 282.578 44.754Z" fill="#E5E5E5"/>
<path d="M282.578 47.8201C283.023 47.8201 283.384 47.4592 283.384 47.014C283.384 46.5687 283.023 46.2078 282.578 46.2078C282.132 46.2078 281.771 46.5687 281.771 47.014C281.771 47.4592 282.132 47.8201 282.578 47.8201Z" fill="#E5E5E5"/>
<path d="M283.387 50.08C283.387 50.5244 283.025 50.8862 282.581 50.8862C282.136 50.8862 281.774 50.5244 281.774 50.08C281.774 49.6356 282.136 49.2738 282.581 49.2738C283.025 49.2738 283.387 49.6356 283.387 50.08Z" fill="#E5E5E5"/>
<path d="M286.698 44.754C287.143 44.754 287.504 44.393 287.504 43.9478C287.504 43.5025 287.143 43.1416 286.698 43.1416C286.253 43.1416 285.892 43.5025 285.892 43.9478C285.892 44.393 286.253 44.754 286.698 44.754Z" fill="#E5E5E5"/>
<path d="M286.698 47.8201C287.143 47.8201 287.504 47.4592 287.504 47.014C287.504 46.5687 287.143 46.2078 286.698 46.2078C286.253 46.2078 285.892 46.5687 285.892 47.014C285.892 47.4592 286.253 47.8201 286.698 47.8201Z" fill="#E5E5E5"/>
<path d="M287.506 50.08C287.506 50.5244 287.144 50.8862 286.7 50.8862C286.255 50.8862 285.894 50.5244 285.894 50.08C285.894 49.6356 286.255 49.2738 286.7 49.2738C287.144 49.2738 287.506 49.6356 287.506 50.08Z" fill="#E5E5E5"/>
<path d="M263.169 53.5205C263.169 53.9649 262.807 54.3267 262.363 54.3267C261.918 54.3267 261.557 53.9649 261.557 53.5205C261.557 53.0762 261.918 52.7144 262.363 52.7144C262.807 52.7144 263.169 53.0762 263.169 53.5205Z" fill="#E5E5E5"/>
<path d="M266.355 54.3267C266.8 54.3267 267.161 53.9658 267.161 53.5205C267.161 53.0753 266.8 52.7144 266.355 52.7144C265.91 52.7144 265.549 53.0753 265.549 53.5205C265.549 53.9658 265.91 54.3267 266.355 54.3267Z" fill="#E5E5E5"/>
<path d="M270.348 54.3267C270.793 54.3267 271.154 53.9658 271.154 53.5205C271.154 53.0753 270.793 52.7144 270.348 52.7144C269.903 52.7144 269.542 53.0753 269.542 53.5205C269.542 53.9658 269.903 54.3267 270.348 54.3267Z" fill="#E5E5E5"/>
<path d="M274.342 54.3267C274.788 54.3267 275.148 53.9658 275.148 53.5205C275.148 53.0753 274.788 52.7144 274.342 52.7144C273.897 52.7144 273.536 53.0753 273.536 53.5205C273.536 53.9658 273.897 54.3267 274.342 54.3267Z" fill="#E5E5E5"/>
<path d="M279.268 53.5205C279.268 53.9649 278.906 54.3267 278.461 54.3267C278.017 54.3267 277.655 53.9649 277.655 53.5205C277.655 53.0762 278.017 52.7144 278.461 52.7144C278.906 52.7144 279.268 53.0762 279.268 53.5205Z" fill="#E5E5E5"/>
<path d="M282.578 54.3267C283.023 54.3267 283.384 53.9658 283.384 53.5205C283.384 53.0753 283.023 52.7144 282.578 52.7144C282.132 52.7144 281.771 53.0753 281.771 53.5205C281.771 53.9658 282.132 54.3267 282.578 54.3267Z" fill="#E5E5E5"/>
<path d="M286.698 54.3267C287.143 54.3267 287.504 53.9658 287.504 53.5205C287.504 53.0753 287.143 52.7144 286.698 52.7144C286.253 52.7144 285.892 53.0753 285.892 53.5205C285.892 53.9658 286.253 54.3267 286.698 54.3267Z" fill="#E5E5E5"/>
<path d="M206.687 74.678C206.687 74.678 203.332 82.2574 206.268 89.5068C206.268 89.5068 211.791 91.2112 217.735 89.5068C217.735 89.5068 220.322 83.9999 217.735 74.678H206.687Z" fill="#827CF9"/>
<path d="M217.314 61.1506C217.314 61.1506 218.783 57.5291 219.132 52.2158C219.481 46.9026 218.885 41.5893 218.885 41.5893C218.885 41.5893 213.889 48.6514 212.422 54.3138C212.422 54.3138 211.48 51.3779 211.007 45.6425C210.534 39.9103 208.715 36.5522 208.715 36.5522C208.715 36.5522 207.947 42.4241 206.687 48.2991C205.427 54.171 206.897 60.7221 206.897 60.7221C206.897 60.7221 204.659 53.9615 200.742 48.369C200.742 48.369 201.021 51.8127 201.091 57.9575C201.161 64.1024 202.701 70.225 206.684 74.6781H217.732C217.732 74.6781 220.18 69.8346 220.459 63.4707C220.738 57.1069 221.265 56.0595 221.265 56.0595C221.265 56.0595 218.434 58.4114 217.314 61.1506Z" fill="#29B6DB"/>
<path d="M208.717 74.6781C208.787 65.8196 206.898 60.7222 206.898 60.7222C206.898 60.7222 210.403 65.9529 210.193 74.8686L208.717 74.6781Z" fill="#13475F"/>
<path d="M211.975 74.678L212.911 69.6758C213.539 63.2961 212.422 54.3105 212.422 54.3105C212.422 54.3105 216.447 69.3869 211.975 74.678Z" fill="#13475F"/>
<path d="M212.481 72.5611L217.315 61.1538C217.312 61.1506 216.769 68.2699 212.481 72.5611Z" fill="#13475F"/>
<path d="M214.587 74.6781L220.551 61.6965C220.554 61.6997 218.04 72.0437 214.587 74.6781Z" fill="#13475F"/>
<path d="M218.186 88.2024C218.789 86.0568 219.586 81.3435 217.736 74.6781H210.753C214.162 77.5823 219.408 83.0257 218.186 88.2024Z" fill="#13475F"/>
<path d="M217.737 89.5068C217.737 89.5068 217.76 89.4592 217.794 89.3735C217.775 89.418 217.756 89.4624 217.737 89.5068Z" fill="#13475F"/>
<path d="M239.78 55.7549C248.73 55.7549 255.986 48.4991 255.986 39.5486C255.986 30.5981 248.73 23.3423 239.78 23.3423C230.829 23.3423 223.573 30.5981 223.573 39.5486C223.573 48.4991 230.829 55.7549 239.78 55.7549Z" fill="#13475F"/>
<path d="M250.115 49.8839C255.823 44.176 255.823 34.9217 250.115 29.2137C244.407 23.5058 235.152 23.5058 229.444 29.2137C223.737 34.9216 223.737 44.176 229.444 49.8839C235.152 55.5918 244.407 55.5918 250.115 49.8839Z" fill="white"/>
<path d="M239.486 26.5227C239.486 27.24 239.486 27.9573 239.486 28.6746C239.486 28.7794 239.486 28.881 239.486 28.9857C239.486 29.3634 240.074 29.3634 240.074 28.9857C240.074 28.2684 240.074 27.5511 240.074 26.8337C240.074 26.729 240.074 26.6274 240.074 26.5227C240.07 26.1482 239.486 26.145 239.486 26.5227Z" fill="#13475F"/>
<path d="M239.486 49.8165C239.486 50.5338 239.486 51.2511 239.486 51.9685C239.486 52.0732 239.486 52.1748 239.486 52.2795C239.486 52.6572 240.074 52.6572 240.074 52.2795C240.074 51.5622 240.074 50.8449 240.074 50.1276C240.074 50.0228 240.074 49.9213 240.074 49.8165C240.07 49.442 239.486 49.4388 239.486 49.8165Z" fill="#13475F"/>
<path d="M252.655 39.1074C251.938 39.1074 251.221 39.1074 250.504 39.1074C250.399 39.1074 250.297 39.1074 250.192 39.1074C249.815 39.1074 249.815 39.6946 250.192 39.6946C250.91 39.6946 251.627 39.6946 252.344 39.6946C252.449 39.6946 252.551 39.6946 252.655 39.6946C253.033 39.6946 253.033 39.1074 252.655 39.1074Z" fill="#13475F"/>
<path d="M229.362 39.1074C228.645 39.1074 227.928 39.1074 227.211 39.1074C227.106 39.1074 227.004 39.1074 226.899 39.1074C226.522 39.1074 226.522 39.6946 226.899 39.6946C227.617 39.6946 228.334 39.6946 229.051 39.6946C229.156 39.6946 229.258 39.6946 229.362 39.6946C229.74 39.6946 229.74 39.1074 229.362 39.1074Z" fill="#13475F"/>
<path d="M230.467 30.5028C230.975 31.0107 231.483 31.5185 231.991 32.0263C232.064 32.0993 232.137 32.1723 232.21 32.2453C232.476 32.5119 232.892 32.0993 232.622 31.8327C232.114 31.3249 231.607 30.817 231.099 30.3092C231.026 30.2362 230.953 30.1632 230.88 30.0902C230.613 29.8204 230.2 30.2362 230.467 30.5028Z" fill="#13475F"/>
<path d="M246.937 46.9727C247.445 47.4805 247.953 47.9884 248.461 48.4962C248.534 48.5692 248.607 48.6422 248.68 48.7152C248.947 48.9818 249.362 48.5692 249.093 48.3026C248.585 47.7948 248.077 47.2869 247.569 46.7791C247.496 46.7061 247.423 46.6331 247.35 46.5601C247.087 46.2935 246.671 46.7061 246.937 46.9727Z" fill="#13475F"/>
<path d="M248.68 30.0871C248.172 30.5949 247.665 31.1027 247.157 31.6106C247.084 31.6836 247.011 31.7566 246.938 31.8296C246.671 32.0962 247.084 32.512 247.35 32.2422C247.858 31.7343 248.366 31.2265 248.874 30.7187C248.947 30.6457 249.02 30.5727 249.093 30.4997C249.36 30.2362 248.947 29.8204 248.68 30.0871Z" fill="#13475F"/>
<path d="M232.209 46.5601C231.701 47.0679 231.193 47.5758 230.685 48.0836C230.612 48.1566 230.539 48.2296 230.466 48.3026C230.199 48.5692 230.612 48.985 230.879 48.7152C231.387 48.2074 231.894 47.6996 232.402 47.1917C232.475 47.1187 232.548 47.0457 232.621 46.9727C232.891 46.7061 232.475 46.2935 232.209 46.5601Z" fill="#13475F"/>
<path d="M245.218 37.1681C245.069 36.911 244.679 36.7745 244.418 36.9586C243.07 37.9013 241.721 38.844 240.368 39.7835C240.368 39.2153 240.368 38.6472 240.368 38.0791C240.368 36.5746 240.368 35.0733 240.368 33.5688C240.368 33.2197 240.368 32.8706 240.368 32.5214C240.368 31.7692 239.197 31.766 239.197 32.5214C239.197 33.4641 239.197 34.4036 239.197 35.3463C239.197 36.8507 239.197 38.352 239.197 39.8565C239.197 40.2056 239.197 40.5548 239.197 40.9039C239.197 41.3197 239.705 41.6688 240.08 41.4086C241.517 40.4056 242.952 39.4026 244.39 38.3996C244.596 38.2568 244.803 38.1108 245.009 37.968C245.266 37.7902 245.387 37.457 245.218 37.1681Z" fill="#13475F"/>
<path d="M226.3 61.8012C226.3 61.8012 221.126 61.2553 217.279 70.025C213.433 78.7947 210.846 82.6384 211.966 88.2309C213.083 93.8235 222.802 94.5249 230.845 94.5948C238.885 94.6646 242.313 95.0836 245.388 93.687C248.464 92.2873 250.003 90.3099 249.794 86.4408C249.584 82.5717 243.373 74.9606 240.186 70.025C236.999 65.0895 233.921 60.7538 226.3 61.8012Z" fill="#FDED6D"/>
<path d="M220.007 71.612C220.007 71.612 217.176 80.0928 221.159 83.9714C225.146 87.8468 231.824 87.9548 236.873 87.0089C241.923 86.0662 247.04 85.3077 247.04 85.3077C247.04 85.3077 242.447 77.0966 236.366 71.7199C230.287 66.3495 220.978 65.137 220.007 71.612Z" fill="#DDC747"/>
<path d="M232.68 62.8741C232.68 62.8741 229.639 61.5506 226.072 62.8741C222.507 64.1977 220.305 66.7686 219.568 68.0287C219.568 68.0287 223.71 71.9104 226.437 72.4849L227.119 71.9073C227.119 71.9073 228.325 79.4582 236.873 80.9785C236.873 80.9785 247.991 82.7083 251.61 75.5256C251.61 75.5256 250.404 75.789 246.995 73.2181C243.586 70.6472 242.538 68.3937 242.538 68.3937C242.538 68.3937 243.691 67.451 243.903 66.6099C243.903 66.6099 241.65 65.5085 240.075 64.3024C238.501 63.0963 235.305 63.255 235.305 63.255L232.68 62.8741Z" fill="#925FF5"/>
<path d="M231.737 81.8163C231.737 81.8163 232.051 80.8197 230.689 80.0865C229.325 79.3533 227.385 79.0391 225.706 76.9411C224.027 74.8431 225.833 72.3103 225.833 72.3103C223.142 71.3676 219.571 68.0286 219.571 68.0286C219.571 68.0286 216.372 72.2753 216.581 75.9476C216.791 79.6199 219.99 82.1369 222.453 82.9209C224.919 83.708 226.125 84.8602 226.125 84.8602C226.912 85.9615 227.277 86.5106 227.7 86.4345C228.119 86.3551 228.068 85.6473 228.068 85.6473C228.068 85.6473 228.541 86.0155 229.274 85.9107C230.007 85.806 230.086 84.8633 230.086 84.8633C230.086 84.8633 230.585 85.3077 231.267 84.8633C231.95 84.419 231.661 83.8159 231.661 83.8159C232.238 84 232.578 83.6858 232.578 83.1081C232.575 82.5241 231.737 81.8163 231.737 81.8163Z" fill="#E99D98"/>
<path d="M255.07 56.8561C255.07 56.8561 255.254 56.2817 254.886 55.8913C254.518 55.5009 253.89 55.5992 253.89 55.5992C253.89 55.5992 253.915 55.0502 253.417 54.7328C252.918 54.4185 252.369 54.8121 252.369 54.8121C252.369 54.8121 252.423 54.3138 251.608 54.2344C250.795 54.1551 250.532 54.8915 250.532 54.8915C250.506 52.4253 249.798 51.8762 249.062 52.2444C248.329 52.6125 248.618 55.8913 248.618 55.8913C248.618 55.8913 247.148 55.0755 247.202 57.3322C247.256 59.5858 249.195 60.3729 249.195 60.3729C249.195 60.3729 249.773 65.6703 247.831 66.6129C245.891 67.5556 243.898 66.6129 243.898 66.6129C243.689 67.4509 242.533 68.3967 242.533 68.3967C242.533 68.3967 243.581 70.6502 246.989 73.2212C252.652 74.4273 254.28 70.39 254.49 66.6669C254.699 62.9438 254.804 59.3509 254.804 59.3509C254.804 59.3509 255.172 58.2241 255.302 57.6592C255.439 57.091 255.07 56.8561 255.07 56.8561Z" fill="#E99D98"/>
<path d="M232.314 59.2684C232.314 59.2684 231.816 57.8275 230.689 58.221C229.562 58.6146 230.349 61.2617 232.159 60.738C232.159 60.738 232.631 61.2363 232.892 61.7854C233.155 62.3345 233.127 63.3311 233.127 63.3311C233.127 63.3311 233.834 64.642 234.856 64.4579C235.878 64.2738 236.297 63.8675 235.59 63.2454C235.59 63.2454 237.922 63.4359 238.868 61.9155C239.811 60.3952 239.417 58.7416 239.417 58.7416C239.417 58.7416 239.078 56.6975 238.684 55.5168C238.291 54.3361 237.662 53.6283 235.774 53.9425C233.885 54.2567 232.993 54.571 232.917 55.593C232.838 56.615 233.39 58.8177 233.39 58.8177C233.39 58.8177 232.654 59.1637 232.314 59.2684Z" fill="#E99D98"/>
<path d="M240.186 51.6635C240.193 49.8543 238.107 49.6194 236.587 50.7462C235.067 51.873 233.94 51.6635 232.052 52.7395C230.163 53.8154 228.617 56.1483 229.56 59.3064C230.503 62.4645 233.077 62.4899 233.077 62.4899C233.042 62.2424 232.985 61.9853 232.889 61.7853C232.626 61.2362 232.156 60.7379 232.156 60.7379C230.347 61.2616 229.56 58.6145 230.687 58.2209C231.813 57.8273 232.312 59.2683 232.312 59.2683C232.651 59.1636 233.388 58.824 233.388 58.824C233.388 58.824 232.839 56.6212 232.915 55.5992C232.994 54.5772 233.886 54.263 235.771 53.9487C237.66 53.6345 238.288 54.3423 238.682 55.523C238.863 56.0658 239.031 56.7863 239.161 57.4116C239.358 57.1799 239.479 56.9894 239.498 56.8593C239.631 55.8627 239.31 53.8757 239.31 53.8757C239.31 53.8757 240.18 53.4726 240.186 51.6635Z" fill="#13475F"/>
<path d="M239.501 56.488C239.279 56.4817 239.114 56.5388 238.993 56.6277C239.241 57.6687 239.422 58.7447 239.422 58.7447C239.422 58.7447 239.472 58.9606 239.495 59.3065C239.596 59.2526 239.739 59.1415 239.92 58.9003C240.339 58.3512 240.31 56.5166 239.501 56.488Z" fill="#E99D98"/>
<path d="M235.59 63.4073C235.581 63.4073 235.571 63.4073 235.562 63.4041C234.388 63.201 233.651 62.5599 233.623 62.5345C233.556 62.4742 233.55 62.3726 233.61 62.3059C233.67 62.2393 233.772 62.2329 233.838 62.2901C233.845 62.2964 234.54 62.8963 235.622 63.0836C235.711 63.0994 235.768 63.182 235.752 63.2708C235.736 63.3534 235.67 63.4073 235.59 63.4073Z" fill="#13475F"/>
<path d="M243.903 66.6099C243.903 66.6099 246.594 72.1262 250.216 73.3006C250.216 73.3006 248.623 73.6624 246.994 73.2149C246.994 73.2149 244.319 71.5898 242.538 68.3905C242.541 68.3936 243.535 67.7112 243.903 66.6099Z" fill="#13475F"/>
<path d="M242.773 68.5682C242.715 68.5714 242.658 68.5428 242.627 68.4888L241.989 67.4224C241.944 67.3462 241.966 67.2478 242.042 67.2002C242.119 67.1558 242.217 67.178 242.265 67.2542L242.903 68.3206C242.947 68.3968 242.925 68.4952 242.849 68.5428C242.823 68.5587 242.798 68.565 242.773 68.5682Z" fill="#13475F"/>
<path d="M227.121 71.9073L228.616 70.5425C228.616 70.5425 230.032 76.2366 233.336 79.8517C233.336 79.8517 228.591 77.9886 227.121 71.9073Z" fill="#13475F"/>
<path d="M219.569 68.0254C219.569 68.0254 221.366 71.9325 225.003 75.1986C225.003 75.1986 224.908 73.4973 225.832 72.3103C225.832 72.3103 223.264 71.0375 219.569 68.0254Z" fill="#13475F"/>
<path d="M250.253 59.0431C250.094 59.0431 249.913 59.0114 249.71 58.9511C248.954 58.7257 248.497 57.8941 248.478 57.8592C248.437 57.7799 248.466 57.6847 248.542 57.6402C248.621 57.599 248.716 57.6275 248.761 57.7037C248.764 57.71 249.177 58.4528 249.802 58.64C250.167 58.7511 250.456 58.7384 250.57 58.6146C250.697 58.475 250.665 58.1576 250.481 57.7164C250.008 56.5674 248.58 56.0469 248.564 56.0405C248.482 56.012 248.437 55.9199 248.466 55.8342C248.494 55.7517 248.586 55.7073 248.672 55.7358C248.735 55.7581 250.249 56.3135 250.776 57.5926C251.014 58.1734 251.024 58.5892 250.805 58.8305C250.684 58.9701 250.494 59.0431 250.253 59.0431Z" fill="#13475F"/>
<path d="M250.341 57.3006C250.268 57.3006 250.201 57.2498 250.185 57.1768C249.954 56.2024 250.369 54.8979 250.388 54.8407C250.417 54.755 250.506 54.7106 250.592 54.736C250.677 54.7646 250.722 54.8534 250.696 54.9391C250.693 54.9518 250.29 56.2151 250.499 57.1006C250.522 57.1863 250.468 57.2752 250.379 57.2942C250.363 57.2974 250.35 57.3006 250.341 57.3006Z" fill="#13475F"/>
<path d="M251.028 58.167C250.813 58.167 250.657 58.0591 250.584 57.9703C250.527 57.9004 250.54 57.7989 250.606 57.7449C250.673 57.691 250.775 57.6973 250.832 57.7671C250.86 57.7989 251.016 57.9481 251.324 57.7386C251.397 57.6878 251.498 57.7068 251.546 57.7798C251.597 57.8528 251.578 57.9544 251.505 58.002C251.33 58.1226 251.168 58.167 251.028 58.167Z" fill="#13475F"/>
<path d="M252.22 58.7922C252.046 58.7922 251.887 58.7478 251.757 58.6589C251.452 58.4526 251.287 58.0273 251.262 57.3925C251.208 55.9166 252.211 54.7549 252.255 54.7073C252.316 54.6407 252.414 54.6343 252.484 54.6914C252.551 54.7486 252.557 54.8501 252.5 54.92C252.49 54.9295 251.538 56.034 251.586 57.3798C251.605 57.9003 251.725 58.2495 251.938 58.3923C252.093 58.497 252.309 58.5002 252.576 58.4018L252.909 58.2495C252.992 58.2146 253.087 58.2495 253.122 58.3288C253.16 58.4113 253.122 58.5066 253.042 58.5415L252.7 58.697C252.522 58.7605 252.363 58.7922 252.22 58.7922Z" fill="#13475F"/>
<path d="M253.321 59.0717C253.223 59.0717 253.125 59.04 253.045 58.9733C252.794 58.7702 252.737 58.2973 252.871 57.5292C253.106 56.1644 253.753 55.5105 253.782 55.4851C253.845 55.4217 253.947 55.4248 254.01 55.4851C254.074 55.5486 254.074 55.6502 254.01 55.7137C254.004 55.72 253.404 56.3294 253.191 57.5831C253.039 58.475 253.198 58.6813 253.252 58.7226C253.299 58.7607 253.359 58.748 253.404 58.729L253.693 58.6464C253.778 58.621 253.867 58.6718 253.889 58.7575C253.915 58.8432 253.864 58.9321 253.778 58.9575L253.505 59.0337C253.445 59.059 253.385 59.0717 253.321 59.0717Z" fill="#13475F"/>
<path d="M254.317 59.4747C254.168 59.4747 253.937 59.4398 253.765 59.2589C253.546 59.0272 253.505 58.64 253.645 58.1099C254.022 56.6499 255.041 56.6911 255.086 56.6943C255.174 56.7007 255.241 56.7737 255.238 56.8625C255.231 56.9514 255.168 57.0181 255.07 57.0149C255.035 57.0117 254.267 57.0022 253.959 58.1893C253.851 58.5987 253.867 58.8907 254.003 59.0367C254.149 59.1922 254.406 59.1446 254.409 59.1446C254.495 59.1288 254.581 59.1827 254.6 59.2716C254.616 59.3573 254.559 59.443 254.473 59.4588C254.46 59.462 254.4 59.4747 254.317 59.4747Z" fill="#13475F"/>
<path d="M274.963 90.8906L276.782 90.6113C276.782 90.6113 276.851 81.1021 275.452 74.3891C274.052 67.6762 272.865 61.7345 265.803 61.8043C258.741 61.8741 256.084 72.7482 251.609 75.5254C247.991 82.7081 236.872 80.9783 236.872 80.9783C236.872 80.9783 240.7 81.7655 244.756 84.8601C248.813 87.9547 254.615 91.4493 260.629 95.5754C266.641 99.7016 272.097 102.498 272.097 102.498C272.097 102.498 278.6 101.66 278.461 93.6869L274.963 90.8906ZM267.691 86.4407L260.763 82.3812C262.029 79.8547 266.361 75.1477 267.412 78.2043C268.463 81.2544 267.691 86.4407 267.691 86.4407Z" fill="#827CF9"/>
<path d="M267.096 77.6108C267.099 77.6076 264.519 72.3166 256.752 80.0865L260.767 82.3781C261.929 80.0579 265.68 75.9032 267.096 77.6108Z" fill="#13475F"/>
<path d="M274.961 91.0495C274.932 91.0495 274.904 91.0432 274.879 91.0273L267.607 86.5774C267.531 86.5298 267.509 86.4314 267.553 86.3552C267.601 86.2791 267.699 86.2568 267.775 86.3013L275.047 90.7512C275.123 90.7988 275.145 90.8972 275.101 90.9734C275.069 91.0242 275.015 91.0495 274.961 91.0495Z" fill="#13475F"/>
<path d="M280.348 95.2931C279.834 95.8072 278.92 96.2802 278.164 96.6166C277.583 99.051 276.244 100.492 274.965 101.336V101.339C274.965 101.339 276.926 103.476 278.463 103.057C279.999 102.638 281.957 98.8606 282.236 95.9945C282.516 93.1284 281.325 94.3155 280.348 95.2931Z" fill="#29B6DB"/>
<path d="M228.068 85.8059C228.007 85.8059 227.95 85.771 227.922 85.7139C227.569 84.9616 226.804 84.165 226.798 84.1586C226.735 84.0951 226.738 83.9936 226.801 83.9301C226.865 83.8698 226.966 83.8698 227.03 83.9333C227.061 83.9682 227.839 84.7744 228.214 85.5774C228.252 85.6567 228.217 85.7551 228.137 85.79C228.112 85.8027 228.09 85.8059 228.068 85.8059Z" fill="#13475F"/>
<path d="M230.087 85.0188C230.026 85.0188 229.972 84.9871 229.944 84.9299C229.369 83.7841 228.208 83.089 228.198 83.0827C228.122 83.0382 228.097 82.9398 228.141 82.8637C228.185 82.7875 228.284 82.7621 228.36 82.8065C228.411 82.8383 229.614 83.5524 230.233 84.7871C230.271 84.8664 230.239 84.9617 230.16 85.0029C230.134 85.0156 230.109 85.0188 230.087 85.0188Z" fill="#13475F"/>
<path d="M231.656 83.9716C231.606 83.9716 231.555 83.9462 231.523 83.9017C230.891 82.994 229.428 81.9593 229.412 81.9498C229.339 81.899 229.324 81.7974 229.374 81.7244C229.425 81.6514 229.527 81.6355 229.6 81.6863C229.663 81.7307 231.126 82.7623 231.79 83.7177C231.84 83.7907 231.821 83.8922 231.748 83.943C231.72 83.9621 231.688 83.9716 231.656 83.9716Z" fill="#13475F"/>
<path d="M231.734 81.9783C231.696 81.9783 231.658 81.9656 231.63 81.9402C230.7 81.134 229.919 80.9277 229.912 80.9245C229.827 80.9023 229.776 80.8135 229.798 80.7278C229.82 80.6421 229.909 80.5913 229.995 80.6135C230.03 80.623 230.855 80.842 231.842 81.6958C231.909 81.7529 231.915 81.8545 231.858 81.9243C231.823 81.9593 231.779 81.9783 231.734 81.9783Z" fill="#13475F"/>
<path d="M273.415 102.292C273.386 102.292 273.358 102.285 273.332 102.269C273.262 102.228 266.197 98.0004 259.351 93.3981C252.511 88.799 240.907 81.3465 240.789 81.2735C240.713 81.2259 240.694 81.1243 240.742 81.0513C240.789 80.9752 240.891 80.9561 240.964 81.0037C241.081 81.0799 252.685 88.5324 259.532 93.1347C266.372 97.7306 273.427 101.955 273.497 101.996C273.573 102.041 273.599 102.142 273.554 102.219C273.526 102.263 273.472 102.292 273.415 102.292Z" fill="#13475F"/>
<path d="M256.751 80.2483C256.722 80.2483 256.694 80.2419 256.668 80.2261L253.478 78.3407C253.402 78.2963 253.377 78.1979 253.421 78.1185C253.466 78.0424 253.564 78.017 253.643 78.0614L256.833 79.9468C256.909 79.9912 256.935 80.0896 256.89 80.1689C256.859 80.2197 256.805 80.2483 256.751 80.2483Z" fill="#13475F"/>
<path d="M286.305 26.768C288.194 23.6785 287.221 19.6422 284.131 17.7529C281.042 15.8635 277.006 16.8364 275.116 19.926C273.227 23.0156 274.2 27.0518 277.289 28.9412C280.379 30.8305 284.415 29.8576 286.305 26.768Z" fill="#EBE3FF"/>
<path d="M471.845 104.927C473.931 102.841 473.931 99.4583 471.845 97.372C469.758 95.2856 466.376 95.2856 464.289 97.372C462.203 99.4583 462.203 102.841 464.289 104.927C466.376 107.014 469.758 107.014 471.845 104.927Z" fill="#FDFCFB"/>
<path d="M466.344 98.1005C465.783 98.1005 465.326 97.6438 465.326 97.0825C465.326 96.5211 465.783 96.0645 466.344 96.0645C466.906 96.0645 467.362 96.5211 467.362 97.0825C467.362 97.6438 466.906 98.1005 466.344 98.1005ZM466.344 96.4818C466.013 96.4818 465.744 96.7512 465.744 97.0825C465.744 97.4137 466.013 97.6831 466.344 97.6831C466.675 97.6831 466.945 97.4137 466.945 97.0825C466.945 96.7512 466.675 96.4818 466.344 96.4818Z" fill="#BCBBBB"/>
<path d="M439.772 67.3136C439.071 67.731 438.385 68.1905 437.733 68.6794C437.645 68.7452 437.627 68.8704 437.693 68.9583C437.733 69.0109 437.795 69.0403 437.86 69.0378C437.867 69.0376 437.873 69.0369 437.88 69.036C437.913 69.0314 437.945 69.0182 437.972 68.9981C438.613 68.5176 439.287 68.066 439.976 67.6559C440.021 67.6287 440.054 67.5853 440.067 67.5337C440.08 67.482 440.072 67.4286 440.045 67.3829C439.988 67.2885 439.866 67.2574 439.772 67.3136Z" fill="#BCBBBB"/>
<path d="M439.034 106.51C438.366 106.067 437.715 105.583 437.098 105.073C437.057 105.039 437.005 105.023 436.952 105.028C436.899 105.033 436.851 105.059 436.817 105.1C436.783 105.141 436.767 105.192 436.772 105.245C436.777 105.298 436.803 105.346 436.844 105.38C437.471 105.899 438.134 106.391 438.814 106.842C438.849 106.865 438.89 106.877 438.932 106.875C438.938 106.875 438.945 106.874 438.951 106.873C439.008 106.866 439.059 106.834 439.09 106.786C439.151 106.695 439.126 106.571 439.034 106.51Z" fill="#BCBBBB"/>
<path d="M445.78 64.8506C445.734 64.8244 445.68 64.8175 445.629 64.8317C445.364 64.9041 445.094 64.9822 444.83 65.0645C444.314 65.2242 443.799 65.4035 443.298 65.5972C443.196 65.6368 443.145 65.7524 443.184 65.8549C443.215 65.9351 443.293 65.9854 443.377 65.9822C443.384 65.982 443.391 65.9813 443.397 65.9804C443.413 65.9783 443.428 65.9744 443.442 65.9687C443.934 65.7782 444.441 65.602 444.947 65.4449C445.207 65.3642 445.472 65.2872 445.734 65.216C445.84 65.1872 445.903 65.0775 445.874 64.9715C445.86 64.9199 445.827 64.8769 445.78 64.8506Z" fill="#BCBBBB"/>
<path d="M444.667 109.233C443.905 108.985 443.148 108.694 442.415 108.368C442.315 108.323 442.197 108.368 442.152 108.469C442.13 108.517 442.129 108.572 442.148 108.621C442.167 108.671 442.204 108.71 442.253 108.732C442.998 109.063 443.769 109.359 444.543 109.611C444.566 109.619 444.589 109.622 444.613 109.621C444.619 109.621 444.626 109.62 444.633 109.619C444.707 109.609 444.771 109.556 444.795 109.484C444.811 109.433 444.807 109.379 444.783 109.332C444.759 109.284 444.718 109.249 444.667 109.233Z" fill="#BCBBBB"/>
<path d="M434.943 71.2265C434.89 71.2274 434.84 71.25 434.804 71.2886C434.243 71.8797 433.708 72.5075 433.212 73.1549C433.18 73.1972 433.166 73.2495 433.173 73.3023C433.18 73.355 433.207 73.4019 433.249 73.4343C433.286 73.4629 433.331 73.477 433.377 73.4752C433.384 73.475 433.391 73.4743 433.398 73.4734C433.45 73.4661 433.496 73.4391 433.528 73.3973C434.016 72.7608 434.542 72.1435 435.093 71.5628C435.169 71.4831 435.165 71.3567 435.085 71.2811C435.047 71.2446 434.996 71.2251 434.943 71.2265Z" fill="#BCBBBB"/>
<path d="M431.364 76.3747C431.317 76.3498 431.263 76.3448 431.212 76.3606C431.161 76.3763 431.12 76.4108 431.095 76.4579C430.713 77.1787 430.366 77.9276 430.062 78.6838C430.042 78.7331 430.043 78.7873 430.064 78.8361C430.085 78.885 430.124 78.923 430.173 78.9428C430.199 78.9533 430.227 78.9581 430.255 78.957C430.262 78.9568 430.268 78.9561 430.275 78.9552C430.345 78.9453 430.405 78.8983 430.432 78.832C430.731 78.0889 431.072 77.3525 431.447 76.6439C431.472 76.5968 431.477 76.5429 431.461 76.4919C431.445 76.4412 431.411 76.3996 431.364 76.3747Z" fill="#BCBBBB"/>
<path d="M428.993 90.515C428.913 89.9329 428.854 89.3407 428.818 88.7547C428.811 88.6451 428.716 88.5615 428.608 88.5678C428.556 88.5701 428.507 88.5932 428.471 88.6327C428.436 88.6723 428.417 88.7255 428.42 88.7789C428.456 89.375 428.516 89.9777 428.599 90.5698C428.629 90.785 428.662 91.0027 428.698 91.2168C428.715 91.3171 428.802 91.3868 428.901 91.3829C428.908 91.3827 428.915 91.382 428.922 91.3811H428.922C428.924 91.3809 428.926 91.3804 428.927 91.3802C429.035 91.3619 429.109 91.2591 429.091 91.1508C429.056 90.9404 429.023 90.7263 428.993 90.515Z" fill="#BCBBBB"/>
<path d="M429.272 82.3685C429.243 82.3237 429.199 82.2929 429.147 82.2815C429.04 82.258 428.933 82.3265 428.91 82.4339C428.736 83.2314 428.603 84.0465 428.515 84.8564C428.509 84.9094 428.524 84.9613 428.558 85.0029C428.591 85.0445 428.638 85.0703 428.691 85.0762C428.701 85.0773 428.711 85.0776 428.721 85.0773C428.728 85.0771 428.734 85.0764 428.74 85.0755C428.831 85.063 428.901 84.9908 428.911 84.8998C428.998 84.1037 429.128 83.3027 429.299 82.5189C429.31 82.4668 429.301 82.4133 429.272 82.3685Z" fill="#BCBBBB"/>
<path d="M450.822 110.338C450.021 110.305 449.213 110.23 448.419 110.113C448.311 110.097 448.21 110.172 448.194 110.281C448.178 110.39 448.253 110.491 448.362 110.507C449.169 110.626 449.991 110.703 450.806 110.736C450.811 110.736 450.816 110.736 450.821 110.736C450.828 110.736 450.835 110.735 450.841 110.734C450.937 110.721 451.009 110.641 451.013 110.545C451.017 110.435 450.931 110.342 450.822 110.338Z" fill="#BCBBBB"/>
<path d="M432.866 100.468C432.836 100.425 432.79 100.395 432.738 100.386C432.686 100.376 432.633 100.388 432.589 100.418C432.545 100.448 432.516 100.494 432.506 100.546C432.497 100.599 432.508 100.652 432.538 100.695C433.002 101.365 433.508 102.018 434.04 102.636C434.08 102.682 434.138 102.707 434.199 102.705C434.205 102.704 434.212 102.704 434.219 102.703C434.257 102.698 434.292 102.682 434.321 102.657C434.404 102.585 434.414 102.459 434.342 102.376C433.819 101.769 433.322 101.127 432.866 100.468Z" fill="#BCBBBB"/>
<path d="M430.043 94.8889C430.007 94.7852 429.894 94.7297 429.79 94.7655C429.739 94.7829 429.699 94.8188 429.675 94.8668C429.652 94.9145 429.649 94.9686 429.666 95.0189C429.933 95.7913 430.242 96.5564 430.586 97.2932C430.621 97.3668 430.694 97.4111 430.774 97.4081C430.781 97.4079 430.788 97.4072 430.794 97.4063C430.814 97.4036 430.833 97.3981 430.851 97.3894C430.9 97.367 430.936 97.327 430.954 97.277C430.973 97.2269 430.97 97.1728 430.948 97.1246C430.609 96.4004 430.305 95.6483 430.043 94.8889Z" fill="#BCBBBB"/>
<path d="M467.888 103.731C467.319 104.295 466.713 104.834 466.087 105.333C466.002 105.402 465.988 105.527 466.056 105.613C466.096 105.663 466.157 105.69 466.22 105.688C466.226 105.688 466.233 105.687 466.239 105.686C466.275 105.681 466.308 105.667 466.336 105.644C466.972 105.136 467.589 104.588 468.168 104.014C468.247 103.937 468.247 103.811 468.17 103.733C468.093 103.655 467.966 103.654 467.888 103.731Z" fill="#BCBBBB"/>
<path d="M472.583 76.7932C472.214 76.0656 471.803 75.3498 471.36 74.6663C471.3 74.5742 471.177 74.5477 471.084 74.6073C471.04 74.6363 471.009 74.6809 470.998 74.733C470.986 74.7851 470.996 74.8383 471.025 74.8828C471.461 75.5547 471.865 76.2581 472.227 76.9734C472.263 77.0434 472.336 77.0854 472.413 77.0824C472.419 77.0822 472.426 77.0815 472.432 77.0806C472.454 77.0776 472.475 77.071 472.495 77.0609C472.593 77.0114 472.633 76.8912 472.583 76.7932Z" fill="#BCBBBB"/>
<path d="M474.274 92.8227C474.168 92.7959 474.059 92.8608 474.032 92.9673C473.837 93.744 473.598 94.5196 473.322 95.2726C473.284 95.3759 473.337 95.4904 473.44 95.5283C473.465 95.5372 473.491 95.5413 473.517 95.5402C473.523 95.5399 473.53 95.5393 473.536 95.5383C473.609 95.5281 473.67 95.4789 473.696 95.4095C473.976 94.6435 474.22 93.8544 474.419 93.0641C474.432 93.0125 474.424 92.9591 474.396 92.9134C474.369 92.8679 474.326 92.8357 474.274 92.8227Z" fill="#BCBBBB"/>
<path d="M474.908 86.5448C474.908 86.5448 474.908 86.5448 474.907 86.5448C474.798 86.5489 474.712 86.6405 474.715 86.7495C474.738 87.5507 474.717 88.3621 474.655 89.1615C474.651 89.2145 474.667 89.2662 474.702 89.3066C474.737 89.347 474.785 89.3717 474.838 89.3758C474.846 89.3765 474.854 89.3765 474.861 89.3763C474.868 89.376 474.875 89.3754 474.881 89.3744C474.973 89.3616 475.045 89.2851 475.052 89.1926C475.116 88.3795 475.136 87.5539 475.113 86.7385C475.11 86.6286 475.019 86.5416 474.908 86.5448Z" fill="#BCBBBB"/>
<path d="M451.941 64.0105C451.126 64.0041 450.301 64.0413 449.489 64.121C449.436 64.1256 449.388 64.1507 449.355 64.1916C449.32 64.233 449.304 64.2853 449.31 64.339C449.32 64.4443 449.411 64.5227 449.515 64.5186C449.519 64.5183 449.523 64.5181 449.527 64.5176C450.326 64.4391 451.137 64.4027 451.938 64.4089C451.947 64.4089 451.957 64.4084 451.967 64.4071C452.064 64.3936 452.138 64.3095 452.138 64.2113C452.139 64.1016 452.051 64.0114 451.941 64.0105Z" fill="#BCBBBB"/>
<path d="M474.505 83.0761H474.506C474.51 83.0756 474.513 83.075 474.517 83.0743C474.625 83.0528 474.695 82.9477 474.673 82.8399C474.514 82.0428 474.311 81.2425 474.069 80.4614L474.059 80.4283C474.026 80.3239 473.914 80.2649 473.809 80.2971C473.758 80.3129 473.717 80.3476 473.692 80.3947C473.667 80.4417 473.662 80.4957 473.678 80.5464L473.688 80.5795C473.926 81.3474 474.126 82.1339 474.283 82.9175C474.302 83.0142 474.389 83.0814 474.486 83.0777C474.492 83.0777 474.499 83.077 474.505 83.0761Z" fill="#BCBBBB"/>
<path d="M471.97 98.6955C471.874 98.6412 471.752 98.6745 471.698 98.7698C471.301 99.4659 470.862 100.149 470.395 100.799C470.364 100.842 470.351 100.895 470.36 100.948C470.369 101 470.397 101.046 470.441 101.077C470.477 101.103 470.52 101.116 470.564 101.114C470.571 101.114 470.577 101.114 470.584 101.113C470.638 101.105 470.687 101.076 470.718 101.032C471.194 100.37 471.64 99.6752 472.044 98.9672C472.07 98.921 472.077 98.8671 472.063 98.8159C472.049 98.7648 472.016 98.722 471.97 98.6955Z" fill="#BCBBBB"/>
<path d="M467.205 69.8517C467.122 69.7793 466.996 69.7873 466.924 69.8698C466.851 69.9522 466.859 70.0783 466.942 70.151C467.543 70.6803 468.123 71.2474 468.665 71.8363C468.705 71.8795 468.762 71.9028 468.82 71.9005C468.826 71.9003 468.833 71.8996 468.839 71.8987C468.88 71.893 468.917 71.8756 468.947 71.848C468.986 71.8119 469.009 71.7628 469.011 71.7098C469.013 71.6565 468.995 71.6058 468.958 71.5665C468.407 70.9673 467.817 70.3904 467.205 69.8517Z" fill="#BCBBBB"/>
<path d="M457.048 109.731C456.267 109.917 455.469 110.064 454.674 110.167C454.566 110.182 454.49 110.282 454.504 110.39C454.517 110.493 454.607 110.568 454.709 110.564C454.715 110.563 454.721 110.563 454.727 110.562C454.797 110.553 454.867 110.544 454.937 110.534C455.674 110.431 456.415 110.292 457.141 110.119C457.192 110.107 457.236 110.075 457.264 110.03C457.292 109.985 457.301 109.931 457.288 109.879C457.263 109.773 457.156 109.706 457.048 109.731Z" fill="#BCBBBB"/>
<path d="M458.238 64.9318C457.454 64.7045 456.65 64.5165 455.848 64.373C455.795 64.3637 455.742 64.3753 455.699 64.4057C455.655 64.4361 455.626 64.4818 455.616 64.5341C455.607 64.5864 455.619 64.6394 455.649 64.683C455.679 64.7267 455.725 64.7559 455.778 64.7653C456.566 64.9062 457.356 65.0911 458.126 65.3145C458.147 65.3204 458.168 65.3232 458.19 65.3223C458.196 65.322 458.203 65.3214 458.209 65.3204C458.287 65.3097 458.352 65.254 458.373 65.1786C458.388 65.1274 458.382 65.0737 458.357 65.0271C458.331 64.9805 458.288 64.9467 458.238 64.9318Z" fill="#BCBBBB"/>
<path d="M464.054 67.5159C463.361 67.0871 462.637 66.69 461.903 66.3357C461.855 66.3126 461.801 66.3094 461.751 66.327C461.701 66.3446 461.66 66.3807 461.637 66.4285C461.614 66.4764 461.611 66.5304 461.628 66.5806C461.646 66.6309 461.682 66.6713 461.73 66.6944C462.452 67.0428 463.163 67.4332 463.844 67.8545C463.878 67.8755 463.917 67.8856 463.957 67.8842C463.963 67.884 463.97 67.8833 463.977 67.8824C464.035 67.8741 464.087 67.8403 464.119 67.7898C464.147 67.7446 464.155 67.6911 464.143 67.6393C464.131 67.5879 464.099 67.544 464.054 67.5159Z" fill="#BCBBBB"/>
<path d="M462.883 107.477C462.183 107.864 461.453 108.218 460.713 108.531C460.612 108.573 460.565 108.69 460.607 108.792C460.64 108.868 460.717 108.916 460.798 108.913C460.805 108.913 460.812 108.912 460.818 108.911C460.835 108.909 460.852 108.904 460.868 108.897C461.62 108.58 462.363 108.219 463.075 107.826C463.171 107.772 463.206 107.651 463.153 107.555C463.1 107.459 462.979 107.424 462.883 107.477Z" fill="#BCBBBB"/>
<path d="M448.994 75.0735H448.369V74.1919C448.369 74.0939 448.289 74.0144 448.191 74.0144C448.093 74.0144 448.014 74.0939 448.014 74.1919V75.0735H447.388C447.29 75.0735 447.211 75.153 447.211 75.2508C447.211 75.3488 447.29 75.4283 447.388 75.4283H448.014V76.31C448.014 76.408 448.093 76.4872 448.191 76.4872C448.289 76.4872 448.369 76.4077 448.369 76.31V75.4283H448.994C449.092 75.4283 449.171 75.3488 449.171 75.2508C449.171 75.153 449.092 75.0735 448.994 75.0735Z" fill="#BCBBBB"/>
<path d="M58.2447 42.3C57.2915 41.7108 56.396 41.0231 55.5826 40.2558C55.4719 40.1517 55.2971 40.1567 55.1923 40.2673C55.0879 40.378 55.0929 40.5531 55.2038 40.6576C56.044 41.4501 56.9695 42.1605 57.9545 42.7697C58.0034 42.8 58.0596 42.8135 58.1152 42.8106C58.1482 42.8088 58.1808 42.8008 58.2117 42.7873C58.2626 42.7646 58.305 42.7276 58.3345 42.6802C58.3733 42.6175 58.3854 42.5433 58.3683 42.4715C58.3512 42.3994 58.3074 42.3385 58.2447 42.3Z" fill="#BCBBBB"/>
<path d="M66.5207 44.7961C65.4033 44.7602 64.2835 44.6107 63.1932 44.3521C63.1214 44.335 63.0472 44.347 62.9846 44.3856C62.9219 44.4244 62.8777 44.4851 62.861 44.5569C62.8259 44.7049 62.9178 44.8541 63.0658 44.8891C64.192 45.1563 65.3486 45.3108 66.5034 45.3479C66.5116 45.3482 66.5198 45.3482 66.5281 45.3476C66.5613 45.3459 66.5934 45.3379 66.624 45.3244C66.7202 45.2817 66.7847 45.1861 66.7882 45.0807C66.7926 44.9286 66.6729 44.8008 66.5207 44.7961Z" fill="#BCBBBB"/>
<path d="M62.2682 12.0947C62.3951 12.0382 62.4604 11.8955 62.4204 11.7627C62.3992 11.6921 62.3515 11.6341 62.2865 11.5991C62.2215 11.5641 62.1467 11.5567 62.0764 11.5782C61.3939 11.7842 60.7162 12.0355 60.062 12.3257C59.6688 12.5002 59.2765 12.6921 58.8957 12.896L58.8739 12.9078C58.7397 12.9799 58.6894 13.1477 58.7612 13.2816C58.8133 13.3787 58.9166 13.4316 59.0208 13.4258C59.0596 13.4237 59.0985 13.4131 59.135 13.394L59.1562 13.3825C59.5246 13.185 59.9045 12.9993 60.2856 12.8304C60.9189 12.5497 61.5749 12.306 62.2356 12.1068C62.2471 12.1032 62.2579 12.0994 62.2682 12.0947Z" fill="#BCBBBB"/>
<path d="M54.8819 16.6496C54.9864 16.539 54.9811 16.3639 54.8701 16.2594C54.7595 16.1549 54.5844 16.1602 54.4799 16.2709C53.6877 17.1116 52.9776 18.0375 52.3693 19.0224C52.2892 19.1519 52.3295 19.3223 52.459 19.4024C52.5079 19.4324 52.5638 19.4462 52.6197 19.443C52.6527 19.4412 52.6853 19.4333 52.7162 19.4197C52.7672 19.3971 52.8095 19.36 52.839 19.3126C53.4281 18.3594 54.1156 17.4633 54.8819 16.6496Z" fill="#BCBBBB"/>
<path d="M50.3471 27.5895C50.3825 26.4718 50.5314 25.3523 50.7898 24.2617C50.8068 24.1899 50.7948 24.1157 50.7559 24.053C50.7171 23.9903 50.6564 23.9462 50.5846 23.9294C50.4366 23.8944 50.2874 23.9865 50.2524 24.1345C49.9855 25.2611 49.8319 26.4176 49.7951 27.5721C49.7927 27.6457 49.8192 27.716 49.8698 27.7699C49.9201 27.8237 49.9887 27.8546 50.0623 27.857C50.0705 27.8573 50.0791 27.8573 50.0873 27.8567C50.1203 27.8549 50.1523 27.847 50.1829 27.8334C50.2795 27.7905 50.3436 27.6948 50.3471 27.5895Z" fill="#BCBBBB"/>
<path d="M52.3213 35.9875C52.1238 35.6191 51.9381 35.2392 51.7692 34.8581C51.4873 34.2224 51.243 33.5638 51.0432 32.9005C50.9994 32.7548 50.8452 32.6718 50.6989 32.716C50.5535 32.7604 50.4708 32.9146 50.5147 33.0597C50.721 33.7448 50.9732 34.4252 51.2645 35.082C51.439 35.4752 51.6309 35.8675 51.8349 36.2486L51.8425 36.263C51.8943 36.3598 51.9979 36.4137 52.1021 36.4078C52.1341 36.406 52.1665 36.3984 52.1974 36.3848C52.2039 36.3819 52.2101 36.379 52.2162 36.3757C52.3504 36.3036 52.4008 36.1362 52.329 36.0017L52.3213 35.9875Z" fill="#BCBBBB"/>
<path d="M70.9542 11.8566C70.9872 11.8548 71.0195 11.8469 71.0501 11.8333C71.1299 11.798 71.187 11.7291 71.207 11.6444C71.2241 11.5726 71.212 11.4984 71.1731 11.4357C71.1343 11.3731 71.0734 11.3292 71.0019 11.3121C69.8753 11.0461 68.7185 10.8928 67.564 10.8566C67.4122 10.8519 67.2844 10.9719 67.2794 11.1238C67.2747 11.2759 67.3945 11.4037 67.5466 11.4084C68.6643 11.4431 69.7838 11.5917 70.8747 11.8492C70.9012 11.8557 70.9277 11.858 70.9542 11.8566Z" fill="#BCBBBB"/>
<path d="M74.9259 42.8226C74.5569 43.0201 74.177 43.2061 73.7964 43.3747C73.1581 43.6578 72.4969 43.903 71.8306 44.1031C71.6855 44.1478 71.6028 44.302 71.6464 44.4468C71.6676 44.5174 71.715 44.5754 71.78 44.6104C71.8253 44.6348 71.8756 44.6457 71.9257 44.6431C71.9471 44.6419 71.9689 44.6381 71.9901 44.6316C72.6779 44.425 73.3609 44.1716 74.0204 43.8794C74.4136 43.7049 74.8053 43.5136 75.1846 43.3103L75.1943 43.305C75.3285 43.2329 75.3765 43.0695 75.3032 42.9333C75.2317 42.8003 75.0628 42.7505 74.9259 42.8226Z" fill="#BCBBBB"/>
<path d="M84.0184 28.3646C83.866 28.3599 83.7386 28.4794 83.7336 28.6316C83.6971 29.7493 83.547 30.8687 83.2877 31.9591C83.2527 32.1071 83.3445 32.2563 83.4925 32.2916C83.519 32.2978 83.5458 32.3001 83.572 32.2987C83.605 32.2969 83.6373 32.289 83.6682 32.2754C83.7477 32.2401 83.8048 32.1715 83.8251 32.0868C84.0929 30.9605 84.2477 29.8043 84.2854 28.6495C84.2904 28.4974 84.1706 28.3696 84.0184 28.3646Z" fill="#BCBBBB"/>
<path d="M83.1769 23.4835C83.2225 23.5079 83.2726 23.5191 83.3229 23.5161C83.3444 23.515 83.3658 23.5111 83.387 23.5049C83.3982 23.5017 83.4094 23.4976 83.4197 23.4929C83.5462 23.4367 83.6119 23.2942 83.5719 23.1612C83.3647 22.4708 83.1107 21.7851 82.817 21.123C82.6428 20.7301 82.4509 20.3378 82.247 19.957L82.2311 19.9276C82.159 19.7937 81.9912 19.7431 81.8573 19.8149C81.7231 19.887 81.6728 20.0547 81.7446 20.1886L81.7599 20.2172C81.9577 20.5862 82.1434 20.9661 82.312 21.3466C82.5963 21.9873 82.842 22.6512 83.0424 23.3195C83.0645 23.3905 83.1119 23.4484 83.1769 23.4835Z" fill="#BCBBBB"/>
<path d="M78.4879 15.938C78.5441 15.991 78.6183 16.0169 78.6924 16.0128C78.7251 16.011 78.7577 16.0034 78.7889 15.9895C78.8225 15.9745 78.8525 15.9533 78.8778 15.9263C78.982 15.8153 78.9767 15.6402 78.866 15.536C78.025 14.7444 77.0989 14.0346 76.1136 13.4269C76.0509 13.388 75.9767 13.3763 75.9049 13.3931C75.8331 13.4101 75.7722 13.454 75.7337 13.5167C75.6948 13.5793 75.683 13.6535 75.6998 13.7253C75.7169 13.7971 75.7607 13.858 75.8234 13.8966C76.7775 14.4852 77.6739 15.172 78.4879 15.938Z" fill="#BCBBBB"/>
<path d="M81.6137 36.8161C81.4842 36.7361 81.3138 36.7761 81.2338 36.9056C80.644 37.8585 79.9557 38.754 79.1885 39.5668C79.084 39.6775 79.089 39.8526 79.1997 39.9571C79.2559 40.0103 79.3303 40.0362 79.4045 40.0321C79.4371 40.0303 79.4698 40.0224 79.5013 40.0086C79.5349 39.9936 79.5646 39.9727 79.5899 39.9459C80.3827 39.1063 81.0937 38.181 81.7032 37.1964C81.7832 37.0669 81.7432 36.8965 81.6137 36.8161Z" fill="#BCBBBB"/>
<path d="M70.9882 32.8036C72.9714 30.8204 72.9714 27.6051 70.9882 25.622C69.0051 23.6388 65.7898 23.6388 63.8066 25.622C61.8235 27.6051 61.8235 30.8204 63.8066 32.8036C65.7898 34.7867 69.0051 34.7867 70.9882 32.8036Z" fill="#EB5B48"/>
<path d="M69.4537 29.0915L69.0261 28.0265C68.6241 27.0253 67.487 26.5398 66.4859 26.9415C65.4847 27.3435 64.9991 28.4806 65.4008 29.4818L65.8284 30.5468C66.0609 31.1259 65.9912 31.4108 65.8896 32.0267L70.4328 30.203C69.9337 29.8281 69.6862 29.6707 69.4537 29.0915Z" fill="white"/>
<path d="M68.5311 32.0391C68.1532 32.1907 67.7238 32.0073 67.5723 31.6298L68.9407 31.0803C69.0923 31.4582 68.9089 31.8873 68.5311 32.0391Z" fill="white"/>
<path d="M66.2633 26.3863C65.9566 26.5094 65.8077 26.8578 65.931 27.1644C66.054 27.4711 66.4025 27.6197 66.7091 27.4967C67.0158 27.3737 67.1644 27.0252 67.0414 26.7186C66.9181 26.4119 66.5699 26.2633 66.2633 26.3863ZM66.6199 27.2751C66.4357 27.349 66.2265 27.2598 66.1526 27.0756C66.0788 26.8913 66.1679 26.6821 66.3521 26.6082C66.5364 26.5344 66.7456 26.6235 66.8195 26.8078C66.8936 26.992 66.8042 27.2012 66.6199 27.2751Z" fill="white"/>
<path d="M69.7117 34.9758C68.1723 35.5938 66.4845 35.5752 64.959 34.9237C63.4334 34.2721 62.253 33.0656 61.635 31.5261C61.017 29.9867 61.0355 28.299 61.6871 26.7734C62.3386 25.2478 63.5452 24.0674 65.0846 23.4494C66.624 22.8314 68.3118 22.85 69.8373 23.5015C71.3629 24.1531 72.5433 25.3596 73.1613 26.8988C73.7793 28.4382 73.7608 30.1259 73.1092 31.6515C72.4574 33.1774 71.2511 34.3578 69.7117 34.9758ZM65.265 23.8994C63.8457 24.4691 62.7333 25.5574 62.1326 26.9638C61.532 28.3702 61.5149 29.9264 62.0846 31.3457C62.6544 32.7651 63.7427 33.8775 65.1491 34.4781C66.5555 35.0788 68.1116 35.0958 69.5307 34.5261C70.95 33.9564 72.0625 32.8681 72.6631 31.4617C73.2637 30.0553 73.2808 28.4991 72.7111 27.0801C72.1413 25.6607 71.053 24.5483 69.6466 23.9477C68.2405 23.3467 66.6844 23.3297 65.265 23.8994Z" fill="#EB5B48"/>
</svg>
