<svg width="135" height="41" viewBox="0 0 135 41" fill="none" xmlns="http://www.w3.org/2000/svg">
<rect x="0.5" y="0.781616" width="134" height="39" rx="4.5" fill="black"/>
<rect x="0.5" y="0.781616" width="134" height="39" rx="4.5" stroke="#A6A6A6"/>
<path d="M68.137 22.0327C65.785 22.0327 63.868 23.8217 63.868 26.2857C63.868 28.7347 65.785 30.5387 68.137 30.5387C70.49 30.5387 72.407 28.7347 72.407 26.2857C72.406 23.8217 70.489 22.0327 68.137 22.0327ZM68.137 28.8647C66.848 28.8647 65.737 27.8017 65.737 26.2867C65.737 24.7557 66.849 23.7087 68.137 23.7087C69.426 23.7087 70.537 24.7557 70.537 26.2867C70.537 27.8007 69.426 28.8647 68.137 28.8647ZM58.823 22.0327C56.471 22.0327 54.554 23.8217 54.554 26.2857C54.554 28.7347 56.471 30.5387 58.823 30.5387C61.176 30.5387 63.093 28.7347 63.093 26.2857C63.093 23.8217 61.176 22.0327 58.823 22.0327ZM58.823 28.8647C57.534 28.8647 56.423 27.8017 56.423 26.2867C56.423 24.7557 57.535 23.7087 58.823 23.7087C60.112 23.7087 61.223 24.7557 61.223 26.2867C61.224 27.8007 60.112 28.8647 58.823 28.8647ZM47.745 23.3387V25.1427H52.063C51.934 26.1577 51.596 26.8987 51.08 27.4137C50.452 28.0417 49.469 28.7347 47.745 28.7347C45.087 28.7347 43.009 26.5917 43.009 23.9337C43.009 21.2757 45.087 19.1327 47.745 19.1327C49.179 19.1327 50.226 19.6967 50.999 20.4217L52.272 19.1487C51.192 18.1177 49.759 17.3287 47.745 17.3287C44.104 17.3287 41.043 20.2927 41.043 23.9337C41.043 27.5747 44.104 30.5387 47.745 30.5387C49.71 30.5387 51.193 29.8937 52.352 28.6857C53.544 27.4937 53.915 25.8177 53.915 24.4647C53.915 24.0467 53.883 23.6597 53.818 23.3377H47.745V23.3387ZM93.053 24.7397C92.699 23.7897 91.619 22.0327 89.412 22.0327C87.221 22.0327 85.4 23.7567 85.4 26.2857C85.4 28.6697 87.205 30.5387 89.621 30.5387C91.57 30.5387 92.698 29.3467 93.166 28.6537L91.716 27.6867C91.233 28.3957 90.572 28.8627 89.621 28.8627C88.671 28.8627 87.994 28.4277 87.559 27.5737L93.246 25.2217L93.053 24.7397ZM87.253 26.1577C87.205 24.5137 88.526 23.6767 89.477 23.6767C90.218 23.6767 90.846 24.0477 91.056 24.5787L87.253 26.1577ZM82.63 30.2817H84.498V17.7807H82.63V30.2817ZM79.568 22.9837H79.504C79.085 22.4837 78.279 22.0327 77.265 22.0327C75.138 22.0327 73.189 23.9017 73.189 26.3027C73.189 28.6867 75.138 30.5397 77.265 30.5397C78.28 30.5397 79.085 30.0887 79.504 29.5737H79.568V30.1857C79.568 31.8127 78.698 32.6827 77.297 32.6827C76.153 32.6827 75.444 31.8617 75.154 31.1687L73.527 31.8457C73.994 32.9727 75.234 34.3587 77.297 34.3587C79.488 34.3587 81.341 33.0697 81.341 29.9277V22.2917H79.569V22.9837H79.568ZM77.426 28.8647C76.137 28.8647 75.058 27.7847 75.058 26.3027C75.058 24.8037 76.137 23.7087 77.426 23.7087C78.698 23.7087 79.697 24.8037 79.697 26.3027C79.697 27.7847 78.698 28.8647 77.426 28.8647ZM101.807 17.7807H97.336V30.2817H99.201V25.5457H101.806C103.874 25.5457 105.908 24.0487 105.908 21.6637C105.908 19.2787 103.875 17.7807 101.807 17.7807ZM101.855 23.8057H99.201V19.5207H101.855C103.25 19.5207 104.042 20.6757 104.042 21.6637C104.042 22.6317 103.25 23.8057 101.855 23.8057ZM113.387 22.0107C112.036 22.0107 110.637 22.6057 110.058 23.9247L111.714 24.6157C112.068 23.9247 112.728 23.6987 113.419 23.6987C114.384 23.6987 115.365 24.2777 115.381 25.3067V25.4357C115.043 25.2427 114.319 24.9537 113.435 24.9537C111.65 24.9537 109.832 25.9347 109.832 27.7677C109.832 29.4407 111.296 30.5177 112.936 30.5177C114.19 30.5177 114.882 29.9547 115.316 29.2947H115.38V30.2597H117.182V25.4667C117.183 23.2487 115.525 22.0107 113.387 22.0107ZM113.161 28.8617C112.551 28.8617 111.698 28.5557 111.698 27.7997C111.698 26.8347 112.76 26.4647 113.677 26.4647C114.496 26.4647 114.883 26.6417 115.381 26.8827C115.236 28.0417 114.239 28.8617 113.161 28.8617ZM123.744 22.2837L121.605 27.7037H121.541L119.321 22.2837H117.311L120.64 29.8587L118.742 34.0727H120.688L125.819 22.2837H123.744ZM106.938 30.2817H108.803V17.7807H106.938V30.2817Z" fill="white"/>
<path d="M47.4176 10.5246C47.4176 11.3626 47.1696 12.0296 46.6726 12.5276C46.1086 13.1196 45.3726 13.4156 44.4686 13.4156C43.6026 13.4156 42.8656 13.1156 42.2606 12.5156C41.6546 11.9146 41.3516 11.1706 41.3516 10.2826C41.3516 9.39356 41.6546 8.64956 42.2606 8.04956C42.8656 7.44856 43.6026 7.14856 44.4686 7.14856C44.8986 7.14856 45.3096 7.23256 45.6996 7.39956C46.0906 7.56756 46.4036 7.79056 46.6376 8.06956L46.1106 8.59756C45.7136 8.12256 45.1666 7.88556 44.4676 7.88556C43.8356 7.88556 43.2896 8.10756 42.8286 8.55156C42.3676 8.99556 42.1376 9.57256 42.1376 10.2816C42.1376 10.9906 42.3676 11.5676 42.8286 12.0116C43.2896 12.4556 43.8356 12.6776 44.4676 12.6776C45.1376 12.6776 45.6966 12.4546 46.1436 12.0076C46.4336 11.7166 46.6016 11.3116 46.6466 10.7926H44.4676V10.0716H47.3746C47.4046 10.2286 47.4176 10.3796 47.4176 10.5246Z" fill="white"/>
<path d="M52.0277 8.01862H49.2957V9.92062H51.7597V10.6416H49.2957V12.5436H52.0277V13.2816H48.5247V7.28162H52.0277V8.01862Z" fill="white"/>
<path d="M55.2785 13.2816H54.5075V8.01862H52.8315V7.28162H56.9545V8.01862H55.2785V13.2816Z" fill="white"/>
<path d="M59.9375 13.2816V7.28162H60.7085V13.2816H59.9375Z" fill="white"/>
<path d="M64.1277 13.2816H63.3567V8.01862H61.6807V7.28162H65.8037V8.01862H64.1277V13.2816Z" fill="white"/>
<path d="M73.6084 12.5066C73.0184 13.1126 72.2854 13.4156 71.4084 13.4156C70.5314 13.4156 69.7984 13.1126 69.2094 12.5066C68.6194 11.9006 68.3254 11.1586 68.3254 10.2816C68.3254 9.40461 68.6194 8.66261 69.2094 8.05661C69.7984 7.45061 70.5314 7.14661 71.4084 7.14661C72.2804 7.14661 73.0124 7.45161 73.6044 8.06061C74.1964 8.66961 74.4924 9.40961 74.4924 10.2816C74.4924 11.1586 74.1974 11.9006 73.6084 12.5066ZM69.7784 12.0036C70.2224 12.4536 70.7654 12.6776 71.4084 12.6776C72.0514 12.6776 72.5954 12.4526 73.0384 12.0036C73.4824 11.5536 73.7054 10.9796 73.7054 10.2816C73.7054 9.58361 73.4824 9.00961 73.0384 8.55961C72.5954 8.10961 72.0514 7.88561 71.4084 7.88561C70.7654 7.88561 70.2224 8.11061 69.7784 8.55961C69.3354 9.00961 69.1124 9.58361 69.1124 10.2816C69.1124 10.9796 69.3354 11.5536 69.7784 12.0036Z" fill="white"/>
<path d="M75.5745 13.2816V7.28162H76.5125L79.4285 11.9486H79.4615L79.4285 10.7926V7.28162H80.1995V13.2816H79.3945L76.3435 8.38762H76.3105L76.3435 9.54362V13.2816H75.5745Z" fill="white"/>
<path d="M47.4176 10.5246C47.4176 11.3626 47.1696 12.0296 46.6726 12.5276C46.1086 13.1196 45.3726 13.4156 44.4686 13.4156C43.6026 13.4156 42.8656 13.1156 42.2606 12.5156C41.6546 11.9146 41.3516 11.1706 41.3516 10.2826C41.3516 9.39356 41.6546 8.64956 42.2606 8.04956C42.8656 7.44856 43.6026 7.14856 44.4686 7.14856C44.8986 7.14856 45.3096 7.23256 45.6996 7.39956C46.0906 7.56756 46.4036 7.79056 46.6376 8.06956L46.1106 8.59756C45.7136 8.12256 45.1666 7.88556 44.4676 7.88556C43.8356 7.88556 43.2896 8.10756 42.8286 8.55156C42.3676 8.99556 42.1376 9.57256 42.1376 10.2816C42.1376 10.9906 42.3676 11.5676 42.8286 12.0116C43.2896 12.4556 43.8356 12.6776 44.4676 12.6776C45.1376 12.6776 45.6966 12.4546 46.1436 12.0076C46.4336 11.7166 46.6016 11.3116 46.6466 10.7926H44.4676V10.0716H47.3746C47.4046 10.2286 47.4176 10.3796 47.4176 10.5246Z" stroke="white" stroke-width="0.2" stroke-miterlimit="10"/>
<path d="M52.0277 8.01862H49.2957V9.92062H51.7597V10.6416H49.2957V12.5436H52.0277V13.2816H48.5247V7.28162H52.0277V8.01862Z" stroke="white" stroke-width="0.2" stroke-miterlimit="10"/>
<path d="M55.2785 13.2816H54.5075V8.01862H52.8315V7.28162H56.9545V8.01862H55.2785V13.2816Z" stroke="white" stroke-width="0.2" stroke-miterlimit="10"/>
<path d="M59.9375 13.2816V7.28162H60.7085V13.2816H59.9375Z" stroke="white" stroke-width="0.2" stroke-miterlimit="10"/>
<path d="M64.1277 13.2816H63.3567V8.01862H61.6807V7.28162H65.8037V8.01862H64.1277V13.2816Z" stroke="white" stroke-width="0.2" stroke-miterlimit="10"/>
<path d="M73.6084 12.5066C73.0184 13.1126 72.2854 13.4156 71.4084 13.4156C70.5314 13.4156 69.7984 13.1126 69.2094 12.5066C68.6194 11.9006 68.3254 11.1586 68.3254 10.2816C68.3254 9.40461 68.6194 8.66261 69.2094 8.05661C69.7984 7.45061 70.5314 7.14661 71.4084 7.14661C72.2804 7.14661 73.0124 7.45161 73.6044 8.06061C74.1964 8.66961 74.4924 9.40961 74.4924 10.2816C74.4924 11.1586 74.1974 11.9006 73.6084 12.5066ZM69.7784 12.0036C70.2224 12.4536 70.7654 12.6776 71.4084 12.6776C72.0514 12.6776 72.5954 12.4526 73.0384 12.0036C73.4824 11.5536 73.7054 10.9796 73.7054 10.2816C73.7054 9.58361 73.4824 9.00961 73.0384 8.55961C72.5954 8.10961 72.0514 7.88561 71.4084 7.88561C70.7654 7.88561 70.2224 8.11061 69.7784 8.55961C69.3354 9.00961 69.1124 9.58361 69.1124 10.2816C69.1124 10.9796 69.3354 11.5536 69.7784 12.0036Z" stroke="white" stroke-width="0.2" stroke-miterlimit="10"/>
<path d="M75.5745 13.2816V7.28162H76.5125L79.4285 11.9486H79.4615L79.4285 10.7926V7.28162H80.1995V13.2816H79.3945L76.3435 8.38762H76.3105L76.3435 9.54362V13.2816H75.5745Z" stroke="white" stroke-width="0.2" stroke-miterlimit="10"/>
<g filter="url(#filter0_ii_322_470)">
<path d="M10.4357 7.81964C10.1447 8.12764 9.97266 8.60564 9.97266 9.22464V31.3406C9.97266 31.9606 10.1447 32.4376 10.4357 32.7456L10.5097 32.8176L22.8987 20.4286V20.2826V20.1366L10.5097 7.74664L10.4357 7.81964Z" fill="url(#paint0_linear_322_470)"/>
<path d="M27.0274 24.5596L22.8984 20.4286V20.2826V20.1366L27.0284 16.0066L27.1214 16.0596L32.0144 18.8396C33.4114 19.6336 33.4114 20.9326 32.0144 21.7276L27.1214 24.5076L27.0274 24.5596Z" fill="url(#paint1_linear_322_470)"/>
<g filter="url(#filter1_i_322_470)">
<path d="M27.1215 24.5066L22.8975 20.2826L10.4355 32.7456C10.8955 33.2336 11.6565 33.2936 12.5135 32.8076L27.1215 24.5066Z" fill="url(#paint2_linear_322_470)"/>
</g>
<path d="M27.1215 16.0586L12.5135 7.75862C11.6565 7.27162 10.8955 7.33262 10.4355 7.82062L22.8985 20.2836L27.1215 16.0586Z" fill="url(#paint3_linear_322_470)"/>
</g>
<defs>
<filter id="filter0_ii_322_470" x="9.97266" y="7.42255" width="23.0898" height="25.7207" filterUnits="userSpaceOnUse" color-interpolation-filters="sRGB">
<feFlood flood-opacity="0" result="BackgroundImageFix"/>
<feBlend mode="normal" in="SourceGraphic" in2="BackgroundImageFix" result="shape"/>
<feColorMatrix in="SourceAlpha" type="matrix" values="0 0 0 0 0 0 0 0 0 0 0 0 0 0 0 0 0 0 127 0" result="hardAlpha"/>
<feOffset dy="-0.15"/>
<feComposite in2="hardAlpha" operator="arithmetic" k2="-1" k3="1"/>
<feColorMatrix type="matrix" values="0 0 0 0 0 0 0 0 0 0 0 0 0 0 0 0 0 0 0.12 0"/>
<feBlend mode="normal" in2="shape" result="effect1_innerShadow_322_470"/>
<feColorMatrix in="SourceAlpha" type="matrix" values="0 0 0 0 0 0 0 0 0 0 0 0 0 0 0 0 0 0 127 0" result="hardAlpha"/>
<feOffset dy="0.15"/>
<feComposite in2="hardAlpha" operator="arithmetic" k2="-1" k3="1"/>
<feColorMatrix type="matrix" values="0 0 0 0 1 0 0 0 0 1 0 0 0 0 1 0 0 0 0.25 0"/>
<feBlend mode="normal" in2="effect1_innerShadow_322_470" result="effect2_innerShadow_322_470"/>
</filter>
<filter id="filter1_i_322_470" x="10.4355" y="20.2826" width="16.6855" height="12.8607" filterUnits="userSpaceOnUse" color-interpolation-filters="sRGB">
<feFlood flood-opacity="0" result="BackgroundImageFix"/>
<feBlend mode="normal" in="SourceGraphic" in2="BackgroundImageFix" result="shape"/>
<feColorMatrix in="SourceAlpha" type="matrix" values="0 0 0 0 0 0 0 0 0 0 0 0 0 0 0 0 0 0 127 0" result="hardAlpha"/>
<feOffset dy="-0.15"/>
<feComposite in2="hardAlpha" operator="arithmetic" k2="-1" k3="1"/>
<feColorMatrix type="matrix" values="0 0 0 0 0 0 0 0 0 0 0 0 0 0 0 0 0 0 0.08 0"/>
<feBlend mode="normal" in2="shape" result="effect1_innerShadow_322_470"/>
</filter>
<linearGradient id="paint0_linear_322_470" x1="21.8005" y1="8.99064" x2="5.01846" y2="25.7726" gradientUnits="userSpaceOnUse">
<stop stop-color="#00A0FF"/>
<stop offset="0.0066" stop-color="#00A1FF"/>
<stop offset="0.2601" stop-color="#00BEFF"/>
<stop offset="0.5122" stop-color="#00D2FF"/>
<stop offset="0.7604" stop-color="#00DFFF"/>
<stop offset="1" stop-color="#00E3FF"/>
</linearGradient>
<linearGradient id="paint1_linear_322_470" x1="33.8329" y1="20.2826" x2="9.63704" y2="20.2826" gradientUnits="userSpaceOnUse">
<stop stop-color="#FFE000"/>
<stop offset="0.4087" stop-color="#FFBD00"/>
<stop offset="0.7754" stop-color="#FFA500"/>
<stop offset="1" stop-color="#FF9C00"/>
</linearGradient>
<linearGradient id="paint2_linear_322_470" x1="24.8276" y1="22.5765" x2="2.06915" y2="45.335" gradientUnits="userSpaceOnUse">
<stop stop-color="#FF3A44"/>
<stop offset="1" stop-color="#C31162"/>
</linearGradient>
<linearGradient id="paint3_linear_322_470" x1="7.29695" y1="0.458422" x2="17.4592" y2="10.6207" gradientUnits="userSpaceOnUse">
<stop stop-color="#32A071"/>
<stop offset="0.0685" stop-color="#2DA771"/>
<stop offset="0.4762" stop-color="#15CF74"/>
<stop offset="0.8009" stop-color="#06E775"/>
<stop offset="1" stop-color="#00F076"/>
</linearGradient>
</defs>
</svg>
