<svg width="366" height="207" viewBox="0 0 366 207" fill="none" xmlns="http://www.w3.org/2000/svg">
<path d="M26.6079 84.2844C9.50576 161.344 38.9335 183.958 83.2254 198.989H255.449C355.724 178.647 318.447 84.2844 300.042 53.1532C281.637 22.0887 258.289 -17.3598 172.043 29.9049C108.077 -19.3974 39.4345 26.4311 26.6079 84.2844Z" fill="#F2F6FF"/>
<path d="M43.7109 140.902L53.7985 57.0613L58.0407 60.2345L48.3873 141.102L43.7109 140.902Z" fill="#CADCFF"/>
<path d="M189.848 55.625L201.038 9.02832L208.386 10.6985L197.697 55.625H189.848Z" fill="#CADCFF"/>
<path d="M31.3516 140.301L42.6417 56.126L50.057 59.1322L39.268 140.301H31.3516Z" fill="#CADCFF"/>
<path d="M172.979 55.625V35.5166L178.49 10.4312H191.517L180.327 55.625H172.979Z" fill="#CADCFF"/>
<path d="M77.7812 0.343567H70.4326V206.438H77.7812V0.343567Z" fill="url(#paint0_linear_471_571)"/>
<path d="M173.981 0.343628H166.633V206.438H173.981V0.343628Z" fill="url(#paint1_linear_471_571)"/>
<path d="M270.181 0.343567H262.832V206.438H270.181V0.343567Z" fill="url(#paint2_linear_471_571)"/>
<path d="M328.969 54.7899H25.6731V62.1385H328.969V54.7899Z" fill="url(#paint3_linear_471_571)"/>
<path d="M331.975 134.622H0.955078V141.971H331.975V134.622Z" fill="url(#paint4_linear_471_571)"/>
<path d="M257.154 133.119C255.651 134.021 255.283 136.593 255.283 137.729C255.884 137.161 257.388 135.791 258.356 134.656C259.626 133.286 259.058 131.983 257.154 133.119Z" fill="url(#paint5_linear_471_571)"/>
<path d="M257.621 138.063C256.352 138.731 256.018 140.501 255.984 141.303C256.519 140.902 257.755 139.9 258.623 139.132C259.692 138.163 259.224 137.261 257.621 138.063Z" fill="url(#paint6_linear_471_571)"/>
<path d="M256.652 143.908C256.352 144.91 255.116 145.344 254.548 145.445C254.748 145.044 255.316 144.008 255.75 143.34C256.352 142.472 257.053 142.672 256.652 143.908Z" fill="url(#paint7_linear_471_571)"/>
<path d="M254.214 143.574C254.314 143.474 256.118 141.202 256.953 139.866C257.621 138.764 258.256 138.397 258.489 138.33" stroke="#157759" stroke-linecap="round" stroke-linejoin="round"/>
<path d="M254.18 145.311C254.013 142.605 254.514 136.459 257.988 133.687" stroke="#157759" stroke-linecap="round" stroke-linejoin="round"/>
<path d="M249.571 139.532C249.17 141.436 250.94 143.674 251.909 144.543C251.909 143.641 251.909 141.37 251.775 139.733C251.575 137.662 250.072 137.127 249.571 139.532Z" fill="url(#paint8_linear_471_571)"/>
<path d="M248.401 133.954C253.312 132.518 253.779 135.257 253.278 137.127C252.477 136.693 250.773 134.756 248.769 136.593C247.266 137.996 246.163 134.622 248.401 133.954Z" fill="url(#paint9_linear_471_571)"/>
<path d="M251.342 137.662C251.442 138.798 252.678 139.566 253.279 139.8C253.146 139.299 252.778 138.096 252.444 137.228C252.01 136.192 251.208 136.259 251.342 137.662Z" fill="url(#paint10_linear_471_571)"/>
<path d="M252.278 145.111C251.676 144.042 250.541 141.47 250.774 139.866" stroke="#157759" stroke-linecap="round" stroke-linejoin="round"/>
<path d="M252.243 145.812C253.646 140.367 254.749 130.681 247.968 135.591" stroke="#157759" stroke-linecap="round" stroke-linejoin="round"/>
<path d="M256.986 150.322L257.821 145.144H249.303L249.972 150.322H256.986Z" fill="#E1F3FF"/>
<path d="M269.346 130.948H293.229L296.569 147.649H272.352L269.346 130.948Z" fill="#A6CAFF"/>
<path d="M268.344 130.948H292.227L295.567 147.649H271.35L268.344 130.948Z" fill="#6985D5"/>
<path d="M365.044 150.321H241.454V159.34H365.044V150.321Z" fill="#C1D1FF"/>
<path d="M365.044 169.695H241.454V178.714H365.044V169.695Z" fill="#C1D1FF"/>
<path d="M365.044 189.069H241.454V198.087H365.044V189.069Z" fill="#C1D1FF"/>
<path d="M361.703 159.34H245.128V169.695H361.703V159.34Z" fill="#7C99E3"/>
<path d="M361.703 178.714H245.128V189.069H361.703V178.714Z" fill="#7C99E3"/>
<path d="M286.214 143.808C286.214 141.871 284.644 140.301 282.706 140.301C280.769 140.301 279.199 141.871 279.199 143.808V150.321H286.214V143.808Z" fill="#A6CAFF"/>
<path d="M285.879 143.808C285.879 141.871 284.309 140.301 282.372 140.301C280.434 140.301 278.864 141.871 278.864 143.808V150.321H285.879V143.808Z" fill="#5273D0"/>
<path d="M73.7056 181.553C72.7703 186.463 72.4697 188.534 72.4363 189.236H72.6367C72.5365 189.57 72.4363 189.703 72.4363 189.236H68.0605C69.5637 180.25 73.9728 164.317 79.3506 172.568C80.3861 175.039 80.5197 176.543 80.4195 176.977V177.144L80.1857 176.977C78.6826 175.14 75.2755 173.47 73.7056 181.553Z" fill="url(#paint11_linear_471_571)"/>
<path d="M57.6064 177.244C45.2474 161.411 45.9155 187.265 46.1159 186.63C50.9259 173.169 53.5981 182.755 54.333 189.369L63.4519 189.536C63.6189 189.102 62.6502 186.029 57.6064 177.244Z" fill="url(#paint12_linear_471_571)"/>
<path d="M60.1114 185.695C60.8129 177.778 70.9005 167.223 75.8775 162.948C72.2366 169.829 71.0675 185.094 70.9005 191.874L60.5457 191.373C60.1114 192.776 59.41 193.611 60.1114 185.695Z" fill="url(#paint13_linear_471_571)"/>
<path d="M51.0925 162.012C64.1863 167.891 68.7959 183.023 69.4306 189.87C69.4306 190.238 67.7604 191.173 61.1467 191.841C59.6102 179.114 50.8921 161.845 51.0925 162.012Z" fill="url(#paint14_linear_471_571)"/>
<path d="M52.9299 185.862H74.4746V194.914C74.4746 196.751 72.9715 198.254 71.1344 198.254H56.2702C54.4331 198.254 52.9299 196.751 52.9299 194.914V185.862Z" fill="#F67459"/>
<path d="M14.9846 198.755H328.97" stroke="#355195" stroke-width="4"/>
<path d="M173.813 193.979C179.392 194.313 183.934 192.542 185.538 191.607C187.675 191.44 192.051 191.24 192.485 191.707C193.053 192.275 192.92 196.016 192.419 197.82C191.884 199.657 187.074 198.688 186.573 198.655C186.172 198.622 185.972 197.954 185.939 197.653C185.404 197.686 183.233 197.853 178.757 198.421C171.308 199.123 172.243 194.045 173.813 193.979Z" fill="#355389"/>
<path d="M191.484 192.375L185.739 192.108C185.338 192.075 185.037 191.741 185.104 191.34L196.528 120.459L210.457 122.798L207.35 135.624L199.701 163.014L192.486 191.641C192.386 192.075 191.952 192.409 191.484 192.375Z" fill="url(#paint15_linear_471_571)"/>
<path d="M223.918 191.407C223.818 192.843 219.543 192.008 217.305 191.908C207.117 154.998 206.783 130.28 208.252 122.163L222.181 123.098L220.277 157.403C221.38 168.025 224.018 189.97 223.918 191.407Z" fill="url(#paint16_linear_471_571)"/>
<path d="M205.547 194.379C211.125 194.547 215.634 192.609 217.204 191.64C219.342 191.407 223.684 191.073 224.152 191.54C224.72 192.108 224.72 195.816 224.252 197.653C223.784 199.49 218.941 198.688 218.407 198.655C218.006 198.622 217.772 197.987 217.739 197.653C217.204 197.686 215.033 197.954 210.557 198.622C203.208 199.59 203.977 194.513 205.547 194.379Z" fill="#355389"/>
<path d="M226.824 87.658C225.855 85.9211 221.145 83.3491 218.941 82.2802L208.92 87.1236L208.152 81.5788L199.567 82.9483C198.732 83.0819 198.131 83.8167 198.164 84.6518L198.398 92.7352C197.73 101.453 196.361 119.357 196.361 121.361C199.3 123.532 214.732 123.967 222.081 123.933L224.051 103.491C225.388 98.9147 227.792 89.395 226.824 87.658Z" fill="url(#paint17_linear_471_571)"/>
<path d="M221.345 97.111C219.909 115.416 213.796 122.397 210.99 123.666L224.752 124.167L227.191 97.8792C226.957 97.7122 225.42 97.3114 221.345 97.111Z" fill="url(#paint18_linear_471_571)"/>
<path d="M212.394 136.459L220.143 137.528C220.544 137.595 220.845 137.929 220.878 138.363L220.912 143.407C220.912 143.908 220.477 144.309 219.976 144.242L212.26 143.274C211.859 143.207 211.525 142.873 211.525 142.472L211.459 137.328C211.425 136.793 211.859 136.393 212.394 136.459Z" stroke="#322261" stroke-width="3"/>
<path d="M202.006 138.096L231.433 142.171C233.271 142.438 234.54 144.109 234.273 145.946L232.569 158.338C232.302 160.175 230.632 161.445 228.795 161.177L199.367 157.102C197.53 156.835 196.26 155.165 196.528 153.328L198.231 140.935C198.498 139.132 200.169 137.829 202.006 138.096Z" fill="#322261"/>
<path d="M213.697 135.123L216.369 131.649L220.444 133.587C220.143 133.654 219.342 134.489 218.674 137.896C218.139 140.701 217.471 140.334 215.267 140.033C213.162 139.432 213.229 138.898 213.997 137.562C214.331 136.76 214.933 136.326 214.432 136.426C212.194 136.927 212.995 135.758 213.697 135.123Z" fill="url(#paint19_linear_471_571)"/>
<path d="M230.498 112.777C231.534 109.938 228.561 95.2071 226.991 88.059C217.939 90.798 221.58 112.209 221.312 114.28C221.045 116.351 215.567 130.38 215.434 131.182C215.333 131.983 219.141 133.587 221.246 133.954C223.317 134.355 229.195 116.351 230.498 112.777Z" fill="url(#paint20_linear_471_571)"/>
<path d="M216.903 80.9776C216.068 80.6102 216.469 77.3033 216.803 75.7L208.92 76.368L208.252 81.5454L208.719 87.2573L208.786 87.5579L212.761 84.2511L218.807 82.0131C218.273 81.7459 217.204 81.1112 216.903 80.9776Z" fill="#FFB27F"/>
<path d="M212.494 88.0923C210.891 86.0882 209.789 86.6226 209.421 87.0903C208.018 86.1884 215.634 81.9462 216.202 81.512C216.636 81.178 216.603 80.7103 216.536 80.5433C217.338 80.7103 218.941 81.2782 219.175 82.1133C219.409 83.1487 213.53 88.727 212.494 88.0923Z" fill="url(#paint21_linear_471_571)"/>
<path d="M209.287 74.5308L207.918 83.2489C212.36 81.4786 214.565 77.4703 215.099 75.7333L209.287 74.5308Z" fill="#F3A36A"/>
<path d="M213.496 77.8043C202.273 86.4222 203.041 73.3618 204.845 65.9464L212.126 64.3765L217.705 68.9526L217.938 74.0298L216.034 76.201L213.496 77.8043Z" fill="#FFB27F"/>
<path d="M216.435 76.8689L215.8 75.6664C216.034 75.466 216.569 74.9316 216.869 74.3972C217.637 72.1592 216.402 72.3596 215.667 72.727C215.099 73.1947 213.896 74.0631 213.596 73.7625C213.228 73.4285 214.464 71.6581 213.496 71.4243C212.527 71.1905 212.427 70.3888 212.46 69.3534C212.493 68.3513 212.794 67.4828 211.792 67.4494C201.905 67.4494 204.911 64.4098 204.978 63.8419C205.412 61.9714 214.13 58.0632 219.007 64.0757C222.915 68.8857 218.907 74.631 216.435 76.8689Z" fill="#30215A"/>
<path d="M207.517 86.2218L206.548 86.6894C204.978 87.4577 205.847 83.7834 206.348 81.8126L208.218 81.4452C208.652 82.9149 209.02 86.0214 208.886 86.5892C208.719 87.1571 207.918 86.489 207.517 86.2218Z" fill="url(#paint22_linear_471_571)"/>
<path d="M176.487 109.303C177.422 109.604 179.426 109.437 180.328 109.303C181.297 110.372 182.967 112.543 181.798 112.743C180.362 112.944 177.923 115.85 174.048 115.516C168.069 113.679 172.813 111.006 174.249 110.205C173.213 109.303 175.518 109.002 176.487 109.303Z" fill="url(#paint23_linear_471_571)"/>
<path d="M192.954 99.9503L197.998 84.1843C198.231 83.416 199.367 83.583 199.367 84.3847V90.5308L197.864 103.658L196.628 105.929C192.386 108.201 183.568 112.977 182.332 113.712C181.196 113.645 180.027 110.405 179.593 108.769L192.954 99.9503Z" fill="url(#paint24_linear_471_571)"/>
<path d="M198.765 93.2698L196.26 105.863L197.562 103.625L198.765 93.2698Z" fill="url(#paint25_linear_471_571)"/>
<path d="M141.713 63.2074C141.246 61.8378 141.513 61.2366 141.713 61.103C141.279 61.0362 139.843 60.8024 137.705 60.3347C135.033 59.7669 133.129 60.7022 130.657 62.8065C128.185 64.9109 131.793 69.487 132.761 70.6227C133.73 71.7584 139.241 71.7918 141.513 71.5914C143.784 71.391 142.648 70.0549 142.849 68.1509C143.049 66.247 142.281 64.9109 141.713 63.2074Z" fill="#F7B39D"/>
<path d="M133.33 68.3513C133.13 67.5831 131.994 66.0799 132.562 65.8795C133.33 65.8795 135.234 65.5121 135.234 64.7438C135.034 62.6395 135.802 61.3034 136.938 61.3034C142.649 62.272 143.785 61.27 143.418 59.9673C142.85 57.8629 141.313 58.2637 139.977 56.5268C137.305 53.0863 135.034 54.2554 129.121 57.6625C119.602 62.8065 131.794 70.9901 132.562 71.1905C133.33 71.391 133.497 69.0862 133.33 68.3513Z" fill="#163561"/>
<path d="M172.011 113.345C171.71 113.044 170.741 113.078 170.307 113.144C170.174 112.176 170.007 110.339 170.307 110.472C170.675 110.673 172.011 111.04 172.979 110.472C173.948 109.904 176.587 110.472 177.923 110.472C179.259 110.472 179.059 112.009 178.491 113.712C174.683 116.184 172.378 113.712 172.011 113.345Z" fill="#FFB37D"/>
<path d="M133.697 70.7563C133.697 71.3242 133.196 75.1321 132.929 76.6352C135.701 77.6039 141.346 79.0736 141.647 77.1028C142.014 74.6311 140.511 70.7563 139.376 69.9881C138.24 69.2198 133.697 70.1551 133.697 70.7563Z" fill="#F7B39D"/>
<path d="M135.601 71.4244C138.807 72.3263 141.379 71.6917 142.081 71.057V74.6645C140.578 75.2323 136.169 72.1927 135.601 71.4244Z" fill="#E89B81"/>
<path d="M158.649 104.56C152.102 101.353 150.064 97.2446 149.897 95.6079C149.33 99.0484 148.728 106.43 150.866 108.568C153.538 111.24 169.171 113.712 170.106 113.512C170.874 113.345 171.075 111.174 171.075 110.071C169.638 109.57 165.229 107.766 158.649 104.56Z" fill="#FE9843"/>
<path d="M120.17 100.752L127.585 85.1195L130.257 103.424C129.89 103.625 128.888 103.992 127.986 103.992C123.81 104.961 121.305 120.56 120.938 121.528C120.57 122.497 118.666 121.729 117.33 120.961C116.562 109.537 118.9 102.723 120.17 100.752Z" fill="#ED7D31"/>
<path d="M127.418 87.9921C127.117 79.0068 130.725 75.4661 132.562 74.8314C134.833 78.0715 140.746 76.9358 142.483 76.9358C150.867 79.3742 153.205 100.05 153.339 110.105C153.606 113.144 154.107 120.393 154.107 124.969C135.067 128.777 128.754 123.833 128.387 122.697C128.019 121.562 128.955 109.37 128.754 107.466C128.554 105.528 127.786 99.2488 127.418 87.9921Z" fill="#F99744"/>
<path d="M139.944 99.6496C141.247 107.399 150.065 113.512 154.341 115.616C154.107 114.213 153.606 111.14 153.405 109.938C152.036 109.203 145.122 106.865 139.944 99.6496Z" fill="#ED7D31"/>
<path d="M114.224 124.501L121.706 125.47C122.107 125.537 122.441 125.871 122.441 126.272L122.541 131.115C122.541 131.616 122.107 132.017 121.606 131.95L114.157 131.082C113.756 131.048 113.422 130.681 113.422 130.28L113.289 125.336C113.255 124.835 113.723 124.434 114.224 124.501Z" stroke="#25365B" stroke-width="3"/>
<path d="M104.202 126.171L132.728 129.846C134.565 130.079 135.834 131.75 135.6 133.587L134.064 145.478C133.83 147.315 132.16 148.584 130.323 148.351L101.797 144.676C99.9597 144.443 98.6904 142.772 98.9242 140.935L100.461 129.044C100.695 127.24 102.365 125.938 104.202 126.171Z" fill="#223861"/>
<path d="M147.226 193.177C148.295 192.576 152.804 147.315 154.107 124.969C150.867 125.737 141.481 126.572 137.339 126.105C136.37 134.288 134.733 151.524 135.802 154.864C137.138 159.073 137.339 170.096 137.339 173.904C137.339 177.712 140.579 191.039 140.946 192.776C141.314 194.513 142.65 194.112 143.986 194.313C145.322 194.513 145.89 193.945 147.226 193.177Z" fill="#1D468A"/>
<path d="M158.917 134.088L135.435 160.609L123.944 136.326L155.543 120.159L158.917 134.088Z" fill="url(#paint26_linear_471_571)"/>
<path d="M121.306 123.633C121.306 122.864 120.805 121.929 120.537 121.528C120.17 121.194 118.967 120.693 117.297 121.161C115.193 121.729 116.329 124.401 116.729 125.336C116.93 126.672 119.001 127.24 119.602 126.873C120.203 126.505 121.306 124.568 121.306 123.633Z" fill="#FFB37D"/>
<path d="M135.034 158.104C136.704 155.666 145.121 135.491 149.13 125.704C139.376 127.541 131.86 124.935 129.322 123.432C129.522 131.616 124.746 147.248 123.209 148.217C121.673 149.186 118.433 156.969 116.729 161.378C115.359 164.885 113.355 180.117 112.52 187.298L118.032 189.202C123.142 179.783 133.364 160.543 135.034 158.104Z" fill="#1D468A"/>
<path d="M153.706 196.618C150.499 196.618 148.061 194.346 147.226 193.177C146.09 193.11 143.418 193.21 141.881 194.146C140.345 195.048 141.748 197.586 142.649 198.722L155.977 198.922C156.578 198.121 156.912 196.618 153.706 196.618Z" fill="#1D468A"/>
<path d="M121.138 197.185C117.631 196.283 117.631 191.473 118.098 189.169C117.263 188.734 115.125 187.666 113.155 187.064C110.683 186.296 110.683 191.173 111.251 192.008C112.019 193.144 113.355 194.112 113.522 195.048C113.89 197.152 115.059 197.787 115.793 198.655L121.505 198.855C121.639 198.455 121.739 197.486 121.138 197.185Z" fill="#1D468A"/>
<path d="M90.875 23.6586L130.39 22.1889L99.3593 30.2055L90.875 23.6586Z" fill="#C1D1FF"/>
<path d="M99.3596 30.2055L130.391 22.1889L100.228 43.2325L99.3596 30.2055Z" fill="#6985D5"/>
<path d="M103 34.4811L100.228 43.2326L106.507 39.1909L103 34.4811Z" fill="#223861"/>
<path d="M110.015 43.9006L103 34.481L130.39 22.1889L110.015 43.9006Z" fill="#C1D1FF"/>
<path d="M304.251 94.4054L278.898 93.4367L298.806 98.5807L304.251 94.4054Z" fill="#C1D1FF"/>
<path d="M298.806 98.5807L278.898 93.4367L298.272 106.931L298.806 98.5807Z" fill="#6985D5"/>
<path d="M296.468 101.32L298.272 106.931L294.23 104.326L296.468 101.32Z" fill="#223861"/>
<path d="M291.992 107.366L296.468 101.32L278.898 93.4367L291.992 107.366Z" fill="#C1D1FF"/>
<defs>
<linearGradient id="paint0_linear_471_571" x1="74.1069" y1="0.3272" x2="74.1069" y2="206.422" gradientUnits="userSpaceOnUse">
<stop stop-color="#E7EFFF"/>
<stop offset="1" stop-color="#DBE7FF"/>
</linearGradient>
<linearGradient id="paint1_linear_471_571" x1="170.307" y1="0.327261" x2="170.307" y2="206.422" gradientUnits="userSpaceOnUse">
<stop stop-color="#E7EFFF"/>
<stop offset="1" stop-color="#DBE7FF"/>
</linearGradient>
<linearGradient id="paint2_linear_471_571" x1="266.506" y1="0.3272" x2="266.506" y2="206.422" gradientUnits="userSpaceOnUse">
<stop stop-color="#E7EFFF"/>
<stop offset="1" stop-color="#DBE7FF"/>
</linearGradient>
<linearGradient id="paint3_linear_471_571" x1="25.6587" y1="58.4648" x2="328.955" y2="58.4648" gradientUnits="userSpaceOnUse">
<stop stop-color="#E7EFFF"/>
<stop offset="1" stop-color="#DBE7FF"/>
</linearGradient>
<linearGradient id="paint4_linear_471_571" x1="0.961391" y1="138.297" x2="331.982" y2="138.297" gradientUnits="userSpaceOnUse">
<stop stop-color="#E7EFFF"/>
<stop offset="1" stop-color="#DBE7FF"/>
</linearGradient>
<linearGradient id="paint5_linear_471_571" x1="257.033" y1="132.78" x2="257.513" y2="137.453" gradientUnits="userSpaceOnUse">
<stop stop-color="#50AF9A"/>
<stop offset="1" stop-color="#349B44"/>
</linearGradient>
<linearGradient id="paint6_linear_471_571" x1="257.466" y1="137.927" x2="257.801" y2="141.192" gradientUnits="userSpaceOnUse">
<stop stop-color="#337F6D"/>
<stop offset="1" stop-color="#5FDBBD"/>
</linearGradient>
<linearGradient id="paint7_linear_471_571" x1="256.448" y1="144.073" x2="254.807" y2="144.188" gradientUnits="userSpaceOnUse">
<stop stop-color="#337F6D"/>
<stop offset="1" stop-color="#5FDBBD"/>
</linearGradient>
<linearGradient id="paint8_linear_471_571" x1="250.529" y1="139.51" x2="252.401" y2="140.931" gradientUnits="userSpaceOnUse">
<stop stop-color="#50AF9A"/>
<stop offset="1" stop-color="#349B44"/>
</linearGradient>
<linearGradient id="paint9_linear_471_571" x1="249.866" y1="134.8" x2="250.072" y2="136.12" gradientUnits="userSpaceOnUse">
<stop stop-color="#50AF9A"/>
<stop offset="1" stop-color="#349B44"/>
</linearGradient>
<linearGradient id="paint10_linear_471_571" x1="251.88" y1="137.732" x2="252.873" y2="138.01" gradientUnits="userSpaceOnUse">
<stop stop-color="#337F6D"/>
<stop offset="1" stop-color="#5FDBBD"/>
</linearGradient>
<linearGradient id="paint11_linear_471_571" x1="74.2761" y1="170.244" x2="74.2761" y2="189.511" gradientUnits="userSpaceOnUse">
<stop stop-color="#50AF9A"/>
<stop offset="1" stop-color="#349B44"/>
</linearGradient>
<linearGradient id="paint12_linear_471_571" x1="54.7657" y1="172.087" x2="54.7657" y2="189.519" gradientUnits="userSpaceOnUse">
<stop stop-color="#337F6D"/>
<stop offset="1" stop-color="#5FDBBD"/>
</linearGradient>
<linearGradient id="paint13_linear_471_571" x1="67.8205" y1="162.991" x2="67.8205" y2="192.35" gradientUnits="userSpaceOnUse">
<stop stop-color="#337F6D"/>
<stop offset="1" stop-color="#5FDBBD"/>
</linearGradient>
<linearGradient id="paint14_linear_471_571" x1="60.2424" y1="162.024" x2="60.2424" y2="191.842" gradientUnits="userSpaceOnUse">
<stop stop-color="#50AF9A"/>
<stop offset="1" stop-color="#349B44"/>
</linearGradient>
<linearGradient id="paint15_linear_471_571" x1="198.355" y1="121.335" x2="189.413" y2="189.428" gradientUnits="userSpaceOnUse">
<stop stop-color="#3D8F7D"/>
<stop offset="1" stop-color="#44B09D"/>
</linearGradient>
<linearGradient id="paint16_linear_471_571" x1="216.053" y1="122.825" x2="207.116" y2="190.732" gradientUnits="userSpaceOnUse">
<stop stop-color="#3E9280"/>
<stop offset="1" stop-color="#267361"/>
</linearGradient>
<linearGradient id="paint17_linear_471_571" x1="213.012" y1="81.5695" x2="207.518" y2="123.33" gradientUnits="userSpaceOnUse">
<stop stop-color="#00A3FE"/>
<stop offset="1" stop-color="#0047FE"/>
</linearGradient>
<linearGradient id="paint18_linear_471_571" x1="220.065" y1="99.3125" x2="213.117" y2="127.928" gradientUnits="userSpaceOnUse">
<stop stop-color="#68C9FF"/>
<stop offset="1" stop-color="#68C9FF" stop-opacity="0"/>
</linearGradient>
<linearGradient id="paint19_linear_471_571" x1="217.057" y1="131.682" x2="215.684" y2="142.113" gradientUnits="userSpaceOnUse">
<stop stop-color="#FFB37F"/>
<stop offset="1" stop-color="#FFA263"/>
</linearGradient>
<linearGradient id="paint20_linear_471_571" x1="223.558" y1="88.1646" x2="217.611" y2="133.352" gradientUnits="userSpaceOnUse">
<stop stop-color="#00A3FE"/>
<stop offset="1" stop-color="#0047FE"/>
</linearGradient>
<linearGradient id="paint21_linear_471_571" x1="214.745" y1="81.9997" x2="214.121" y2="86.7509" gradientUnits="userSpaceOnUse">
<stop stop-color="#E7EFFF"/>
<stop offset="1" stop-color="#DBE7FF"/>
</linearGradient>
<linearGradient id="paint22_linear_471_571" x1="207.521" y1="81.4229" x2="206.804" y2="86.8804" gradientUnits="userSpaceOnUse">
<stop stop-color="#E7EFFF"/>
<stop offset="1" stop-color="#DBE7FF"/>
</linearGradient>
<linearGradient id="paint23_linear_471_571" x1="177.203" y1="111.215" x2="176.841" y2="113.967" gradientUnits="userSpaceOnUse">
<stop stop-color="#FFA365"/>
<stop offset="1" stop-color="#E5935B"/>
</linearGradient>
<linearGradient id="paint24_linear_471_571" x1="190.629" y1="78.864" x2="186.011" y2="113.987" gradientUnits="userSpaceOnUse">
<stop stop-color="#00A3FE"/>
<stop offset="1" stop-color="#0047FE"/>
</linearGradient>
<linearGradient id="paint25_linear_471_571" x1="197.612" y1="94.1342" x2="193.223" y2="102.594" gradientUnits="userSpaceOnUse">
<stop stop-color="#68C9FF"/>
<stop offset="1" stop-color="#68C9FF" stop-opacity="0"/>
</linearGradient>
<linearGradient id="paint26_linear_471_571" x1="140.747" y1="121.121" x2="143.254" y2="160.057" gradientUnits="userSpaceOnUse">
<stop stop-color="#163561"/>
<stop offset="1" stop-color="#113D7B"/>
</linearGradient>
</defs>
</svg>
