<svg width="240" height="219" viewBox="0 0 240 219" fill="none" xmlns="http://www.w3.org/2000/svg">
<path d="M212.811 142.518C208.926 148.058 204.327 153.345 199.031 158.214C195.817 161.176 192.341 163.989 188.604 166.602C188.134 166.933 187.672 167.255 187.193 167.578C171.933 177.908 152.499 185.103 128.955 186.819C118.25 187.603 106.691 187.255 94.2959 185.556C90.9337 185.086 87.5017 184.528 84.0088 183.858C76.7965 182.481 70.1243 180.617 63.9747 178.344C56.0133 175.4 48.9317 171.768 42.695 167.578C-10.0035 132.222 -2.17276 57.7908 45.8133 32.6784C47.5032 31.7813 49.2453 30.9625 51.0396 30.2047C55.8652 28.1577 61.048 26.5811 66.5617 25.562C85.5767 22.0342 102.283 19.7434 116.978 18.5762C118.746 18.4368 120.488 18.3149 122.196 18.2016C127.64 17.8532 132.788 17.6703 137.665 17.6442C139.442 17.6267 141.184 17.6354 142.892 17.6616C143.04 17.6616 143.179 17.6703 143.319 17.6703C158.91 17.9664 171.549 19.9524 181.854 23.3757C193.535 27.2692 202.228 33.0007 208.83 40.2043C210.746 42.2948 212.48 44.4986 214.056 46.833C220.537 56.31 224.465 67.6859 227.375 80.3597C231.739 99.3485 226.835 122.571 212.811 142.518Z" fill="#E0F0FF"/>
<path d="M187.193 167.578C171.932 177.908 152.499 185.103 128.955 186.819C118.25 187.603 106.691 187.255 94.2957 185.556C90.9335 185.086 87.5016 184.528 84.0087 183.858C76.7964 182.481 70.1241 180.617 63.9745 178.344C56.0132 175.4 48.9315 171.768 42.6948 167.578H187.193Z" fill="url(#paint0_linear_497_909)"/>
<path d="M214.056 46.833V130.227H137.666V17.6442C139.442 17.6267 141.185 17.6354 142.892 17.6616C143.04 17.6616 143.179 17.6703 143.319 17.6703C158.91 17.9664 171.549 19.9524 181.854 23.3757C193.535 27.2692 202.228 33.0007 208.83 40.2043C210.746 42.2948 212.48 44.4986 214.056 46.833Z" fill="url(#paint1_linear_497_909)"/>
<path d="M208.83 40.2043V125.001H142.892V17.6616C143.04 17.6616 143.179 17.6703 143.318 17.6703C158.91 17.9664 171.549 19.9524 181.854 23.3757C193.534 27.2692 202.227 33.0007 208.83 40.2043Z" fill="url(#paint2_linear_497_909)"/>
<path d="M122.195 18.2016V130.227H45.813V32.6784C47.5028 31.7813 49.2449 30.9625 51.0393 30.2047C55.8649 28.1577 61.0476 26.5811 66.5614 25.562C85.5764 22.0342 102.283 19.7434 116.978 18.5762C118.746 18.4368 120.488 18.3149 122.195 18.2016Z" fill="url(#paint3_linear_497_909)"/>
<path d="M116.978 18.5762V125.001H51.0396V30.2047C55.8652 28.1577 61.0479 26.5811 66.5616 25.562C85.5766 22.0342 102.283 19.7434 116.978 18.5762Z" fill="url(#paint4_linear_497_909)"/>
<path d="M122.915 16.5762L11.7617 29.3336L10.7722 20.7137C10.463 18.017 12.3985 15.5789 15.0952 15.2697L116.481 3.63333C119.179 3.3241 121.616 5.25957 121.925 7.95634L122.915 16.5762Z" fill="url(#paint5_linear_497_909)"/>
<path d="M126.959 94.9349L25.5734 106.571C22.8758 106.88 20.4386 104.945 20.1294 102.248L11.7612 29.3345L122.914 16.5771L131.282 89.4909C131.591 92.1876 129.656 94.6248 126.959 94.9349Z" fill="url(#paint6_linear_497_909)"/>
<path d="M24.9735 40.2714L23.031 40.4944L22.7636 41.4333L21.7715 41.5475L23.1556 37.1513L24.1111 37.0415L26.4612 41.0091L25.4456 41.1259L24.9735 40.2714ZM24.5841 39.5719L23.7374 38.0467L23.2575 39.7235L24.5841 39.5719Z" fill="url(#paint7_linear_497_909)"/>
<path d="M29.6422 37.3873L30.0106 40.6015L29.1265 40.7034L29.083 40.321C28.975 40.4743 28.84 40.598 28.6771 40.6912C28.5151 40.7844 28.333 40.8428 28.1344 40.8654C27.712 40.9142 27.3635 40.8315 27.0883 40.6163C26.8139 40.402 26.6493 40.0553 26.5944 39.5771L26.3862 37.761L27.3182 37.6539L27.5107 39.3324C27.57 39.8507 27.8173 40.0841 28.2503 40.0344C28.4732 40.0092 28.644 39.916 28.7633 39.7548C28.8818 39.5937 28.9244 39.3707 28.8913 39.0833L28.7093 37.4945L29.6422 37.3873Z" fill="url(#paint8_linear_497_909)"/>
<path d="M33.8252 36.9074L34.1327 39.5841C34.2006 40.1738 34.097 40.6294 33.8234 40.9517C33.5499 41.274 33.1179 41.4682 32.529 41.5361C32.2181 41.5719 31.9185 41.5675 31.631 41.5248C31.3436 41.4804 31.1005 41.3976 30.9002 41.2757L31.1946 40.5641C31.3427 40.6599 31.5239 40.7296 31.739 40.7705C31.9533 40.8123 32.1641 40.8219 32.3714 40.7984C32.6945 40.7609 32.9236 40.6616 33.0604 40.4987C33.1963 40.335 33.2486 40.1067 33.2146 39.8123L33.1989 39.6747C32.9864 39.97 32.6632 40.1416 32.2294 40.1912C31.9341 40.2252 31.6571 40.1912 31.3976 40.0902C31.138 39.9892 30.922 39.8289 30.7521 39.6103C30.5814 39.3916 30.4786 39.1294 30.4438 38.822C30.4089 38.5153 30.449 38.2357 30.5657 37.9849C30.6816 37.734 30.8549 37.5293 31.0849 37.3717C31.3148 37.214 31.577 37.1191 31.8723 37.0851C32.3383 37.0319 32.7102 37.1443 32.9881 37.423L32.9411 37.011L33.8252 36.9074ZM32.9071 39.1155C33.0473 38.9517 33.104 38.7531 33.077 38.5179C33.05 38.2828 32.9498 38.1016 32.7756 37.9744C32.6005 37.8472 32.3906 37.7976 32.1441 37.8263C31.8976 37.8551 31.7016 37.9509 31.5596 38.1147C31.4167 38.2784 31.3592 38.4779 31.3863 38.7122C31.4133 38.9474 31.5143 39.1286 31.6911 39.2549C31.8671 39.382 32.0787 39.4317 32.3252 39.4038C32.5718 39.3759 32.766 39.2801 32.9071 39.1155Z" fill="url(#paint9_linear_497_909)"/>
<path d="M37.9282 36.4361L38.2967 39.6503L37.4126 39.7522L37.369 39.3698C37.261 39.5231 37.126 39.6468 36.9631 39.7409C36.8011 39.8341 36.619 39.8925 36.4204 39.9151C35.998 39.9639 35.6496 39.8803 35.3743 39.666C35.0991 39.4517 34.9344 39.105 34.8796 38.6268L34.6714 36.8107L35.6034 36.7036L35.7959 38.3821C35.8551 38.9003 36.1025 39.1338 36.5354 39.0841C36.7584 39.0589 36.9291 38.9657 37.0485 38.8045C37.1669 38.6434 37.2096 38.4204 37.1765 38.133L36.9945 36.5442L37.9282 36.4361Z" fill="url(#paint10_linear_497_909)"/>
<path d="M39.4575 39.4657C39.1944 39.4291 38.9819 39.3698 38.819 39.288L39.0533 38.5833C39.2075 38.6582 39.3895 38.7131 39.5986 38.7479C39.8077 38.7819 40.0106 38.7888 40.2057 38.7662C40.6003 38.7209 40.7858 38.6007 40.764 38.4056C40.7536 38.3141 40.6918 38.2549 40.5803 38.227C40.4679 38.2 40.2989 38.1852 40.0724 38.1826C39.805 38.173 39.5829 38.1521 39.4061 38.1199C39.2284 38.0876 39.069 38.0127 38.9288 37.896C38.7885 37.7793 38.704 37.599 38.6761 37.356C38.6526 37.153 38.691 36.9657 38.7911 36.795C38.8904 36.6243 39.0481 36.4823 39.2632 36.3691C39.4784 36.2558 39.7388 36.1818 40.0463 36.1461C40.2728 36.12 40.5019 36.1191 40.7327 36.1426C40.9635 36.167 41.1578 36.214 41.3146 36.2846L41.0794 36.984C40.7789 36.8569 40.4609 36.8124 40.1264 36.8508C39.927 36.8734 39.7806 36.9187 39.6874 36.9858C39.5951 37.0528 39.5533 37.1304 39.5637 37.2175C39.5751 37.3176 39.636 37.3812 39.7493 37.4082C39.8608 37.4352 40.0359 37.4544 40.2763 37.4631C40.5437 37.477 40.7641 37.4988 40.9374 37.5293C41.1107 37.5598 41.2667 37.6338 41.4043 37.7514C41.5428 37.869 41.6255 38.045 41.6525 38.2801C41.6752 38.4796 41.6368 38.6634 41.5349 38.8324C41.4339 39.0014 41.2736 39.1416 41.0541 39.254C40.8346 39.3663 40.5681 39.4404 40.2536 39.4761C39.9836 39.5048 39.7188 39.5022 39.4575 39.4657Z" fill="url(#paint11_linear_497_909)"/>
<path d="M44.3907 38.7932C44.3071 38.8716 44.2008 38.9352 44.071 38.9848C43.9412 39.0336 43.8027 39.0667 43.6555 39.0841C43.2731 39.1277 42.9665 39.0641 42.7357 38.8934C42.504 38.7226 42.3664 38.4474 42.3228 38.0694L42.1713 36.7489L41.6765 36.8055L41.5938 36.0886L42.0894 36.032L41.9997 35.2489L42.9317 35.1418L43.0214 35.9248L43.8228 35.8334L43.9047 36.5503L43.1033 36.6426L43.254 37.9509C43.2697 38.0859 43.3158 38.187 43.3951 38.2523C43.4726 38.3185 43.5763 38.3437 43.7034 38.3289C43.8506 38.3124 43.9717 38.2575 44.0658 38.1661L44.3907 38.7932Z" fill="url(#paint12_linear_497_909)"/>
<path d="M114.507 29.1725L53.589 36.1644L53.5054 35.4414L114.424 28.4495L114.507 29.1725Z" fill="url(#paint13_linear_497_909)"/>
<path d="M32.0347 56.4598L23.8756 57.3962C22.9522 57.5025 22.1187 56.8396 22.0124 55.9163L21.2041 48.8747C21.0978 47.9514 21.7607 47.1178 22.6831 47.0116L30.8422 46.0752C31.7655 45.9689 32.5991 46.6318 32.7054 47.5551L33.5137 54.5966C33.62 55.5191 32.958 56.3536 32.0347 56.4598Z" fill="url(#paint14_linear_497_909)"/>
<path d="M46.2744 54.8249L38.1153 55.7612C37.192 55.8675 36.3584 55.2046 36.2521 54.2813L35.4438 47.2398C35.3375 46.3164 36.0004 45.4829 36.9237 45.3766L45.0828 44.4402C46.0061 44.3339 46.8397 44.9968 46.946 45.9193L47.7543 52.9608C47.8597 53.885 47.1969 54.7195 46.2744 54.8249Z" fill="url(#paint15_linear_497_909)"/>
<path d="M60.5137 53.1908L52.3546 54.1272C51.4312 54.2334 50.5976 53.5705 50.4914 52.6472L49.6831 45.6057C49.5768 44.6824 50.2397 43.8488 51.163 43.7425L59.3221 42.8061C60.2454 42.6999 61.079 43.3627 61.1852 44.286L61.9936 51.3276C62.0999 52.2509 61.437 53.0854 60.5137 53.1908Z" fill="url(#paint16_linear_497_909)"/>
<path d="M74.7534 51.5567L66.5943 52.4931C65.671 52.5993 64.8374 51.9365 64.7311 51.014L63.9228 43.9725C63.8165 43.0492 64.4794 42.2156 65.4018 42.1093L73.561 41.1729C74.4843 41.0666 75.3179 41.7295 75.4241 42.6528L76.2325 49.6944C76.3387 50.6168 75.6767 51.4504 74.7534 51.5567Z" fill="url(#paint17_linear_497_909)"/>
<path d="M88.9932 49.9226L80.8341 50.859C79.9108 50.9652 79.0772 50.3024 78.9709 49.3791L78.1626 42.3375C78.0563 41.4142 78.7192 40.5806 79.6425 40.4743L87.8016 39.5379C88.7249 39.4317 89.5585 40.0945 89.6648 41.017L90.4731 48.0585C90.5785 48.9819 89.9165 49.8163 88.9932 49.9226Z" fill="url(#paint18_linear_497_909)"/>
<path d="M103.233 48.2876L95.0743 49.224C94.151 49.3303 93.3174 48.6674 93.2111 47.7441L92.4028 40.7025C92.2965 39.7792 92.9594 38.9456 93.8819 38.8394L102.041 37.903C102.964 37.7967 103.798 38.4596 103.904 39.3829L104.712 46.4245C104.819 47.3478 104.156 48.1822 103.233 48.2876Z" fill="url(#paint19_linear_497_909)"/>
<path d="M117.473 46.6536L109.314 47.5899C108.391 47.6962 107.557 47.0333 107.451 46.1109L106.643 39.0693C106.536 38.146 107.199 37.3124 108.122 37.2062L116.281 36.2698C117.204 36.1635 118.038 36.8264 118.144 37.7497L118.952 44.7913C119.058 45.7137 118.396 46.5473 117.473 46.6536Z" fill="url(#paint20_linear_497_909)"/>
<path d="M33.4419 68.7259L25.2828 69.6623C24.3595 69.7686 23.5259 69.1057 23.4196 68.1824L22.6113 61.1408C22.505 60.2175 23.1679 59.3839 24.0903 59.2777L32.2494 58.3413C33.1728 58.235 34.0064 58.8979 34.1126 59.8212L34.9209 66.8628C35.0272 67.7861 34.3652 68.6197 33.4419 68.7259Z" fill="url(#paint21_linear_497_909)"/>
<path d="M47.6817 67.0918L39.5226 68.0282C38.5992 68.1345 37.7656 67.4716 37.6594 66.5483L36.851 59.5068C36.7448 58.5834 37.4076 57.7498 38.3309 57.6436L46.4901 56.7072C47.4134 56.6009 48.247 57.2638 48.3532 58.1871L49.1616 65.2287C49.267 66.152 48.605 66.9856 47.6817 67.0918Z" fill="url(#paint22_linear_497_909)"/>
<path d="M61.9219 65.4577L53.7628 66.3941C52.8394 66.5004 52.0058 65.8375 51.8996 64.9142L51.0913 57.8726C50.985 56.9493 51.6479 56.1157 52.5703 56.0095L60.7294 55.0731C61.6527 54.9668 62.4863 55.6297 62.5926 56.553L63.4009 63.5946C63.5072 64.517 62.8443 65.3515 61.9219 65.4577Z" fill="url(#paint23_linear_497_909)"/>
<path d="M76.1616 63.8228L68.0025 64.7592C67.0792 64.8654 66.2456 64.2026 66.1394 63.2793L65.331 56.2377C65.2247 55.3144 65.8876 54.4808 66.8109 54.3745L74.97 53.4382C75.8934 53.3319 76.7269 53.9947 76.8332 54.9181L77.6415 61.9596C77.7469 62.8829 77.0841 63.7174 76.1616 63.8228Z" fill="url(#paint24_linear_497_909)"/>
<path d="M90.4004 62.1887L82.2413 63.1251C81.318 63.2313 80.4844 62.5685 80.3781 61.6452L79.5698 54.6036C79.4635 53.6803 80.1264 52.8467 81.0488 52.7404L89.2079 51.8041C90.1312 51.6978 90.9648 52.3607 91.0711 53.284L91.8795 60.3255C91.9857 61.2488 91.3237 62.0824 90.4004 62.1887Z" fill="url(#paint25_linear_497_909)"/>
<path d="M104.641 60.5546L96.4815 61.491C95.5582 61.5973 94.7246 60.9344 94.6183 60.0111L93.81 52.9695C93.7037 52.0462 94.3666 51.2126 95.2891 51.1063L103.448 50.17C104.371 50.0637 105.205 50.7266 105.311 51.6499L106.12 58.6914C106.226 59.6147 105.564 60.4483 104.641 60.5546Z" fill="url(#paint26_linear_497_909)"/>
<path d="M118.88 58.9197L110.721 59.856C109.798 59.9623 108.964 59.2994 108.858 58.3761L108.05 51.3346C107.943 50.4112 108.606 49.5777 109.53 49.4714L117.689 48.535C118.612 48.4287 119.446 49.0916 119.552 50.0149L120.36 57.0565C120.466 57.9798 119.803 58.8143 118.88 58.9197Z" fill="url(#paint27_linear_497_909)"/>
<path d="M34.8511 80.9929L26.692 81.9293C25.7686 82.0355 24.9351 81.3727 24.8288 80.4502L24.0205 73.4087C23.9142 72.4853 24.5771 71.6518 25.5004 71.5455L33.6595 70.6091C34.5828 70.5028 35.4164 71.1657 35.5227 72.089L36.331 79.1306C36.4364 80.0521 35.7735 80.8866 34.8511 80.9929Z" fill="url(#paint28_linear_497_909)"/>
<path d="M49.0899 79.3579L40.9308 80.2943C40.0074 80.4006 39.1738 79.7377 39.0676 78.8144L38.2592 71.7728C38.153 70.8495 38.8158 70.0159 39.7383 69.9097L47.8974 68.9733C48.8207 68.867 49.6543 69.5299 49.7606 70.4532L50.5689 77.4948C50.6752 78.4181 50.0132 79.2525 49.0899 79.3579Z" fill="url(#paint29_linear_497_909)"/>
<path d="M63.3301 77.7239L55.171 78.6602C54.2477 78.7665 53.414 78.1036 53.3078 77.1803L52.4995 70.1388C52.3932 69.2154 53.056 68.3819 53.9794 68.2756L62.1385 67.3392C63.0618 67.233 63.8954 67.8958 64.0017 68.8191L64.81 75.8607C64.9154 76.784 64.2534 77.6176 63.3301 77.7239Z" fill="url(#paint30_linear_497_909)"/>
<path d="M77.5698 76.0898L69.4107 77.0261C68.4874 77.1324 67.6538 76.4695 67.5476 75.5462L66.7392 68.5047C66.6329 67.5814 67.2958 66.7478 68.2191 66.6415L76.3782 65.7051C77.3016 65.5989 78.1351 66.2617 78.2414 67.185L79.0497 74.2266C79.1551 75.149 78.4931 75.9835 77.5698 76.0898Z" fill="url(#paint31_linear_497_909)"/>
<path d="M91.8096 74.4557L83.6505 75.392C82.7272 75.4983 81.8936 74.8354 81.7873 73.9121L80.979 66.8706C80.8727 65.9473 81.5356 65.1137 82.458 65.0074L90.6171 64.071C91.5404 63.9648 92.374 64.6276 92.4803 65.5509L93.2886 72.5925C93.3949 73.5149 92.732 74.3494 91.8096 74.4557Z" fill="url(#paint32_linear_497_909)"/>
<path d="M106.049 72.8207L97.8902 73.7571C96.9669 73.8634 96.1333 73.2005 96.027 72.2772L95.2187 65.2356C95.1124 64.3123 95.7753 63.4787 96.6986 63.3725L104.858 62.4361C105.781 62.3298 106.615 62.9927 106.721 63.916L107.529 70.9576C107.635 71.8809 106.973 72.7153 106.049 72.8207Z" fill="url(#paint33_linear_497_909)"/>
<path d="M120.289 71.1866L112.129 72.123C111.206 72.2293 110.373 71.5664 110.266 70.6431L109.458 63.6015C109.352 62.6782 110.015 61.8446 110.938 61.7384L119.097 60.802C120.02 60.6957 120.854 61.3586 120.96 62.2819L121.768 69.3235C121.874 70.2468 121.212 71.0804 120.289 71.1866Z" fill="url(#paint34_linear_497_909)"/>
<path d="M36.2583 93.259L28.0992 94.1954C27.1759 94.3017 26.3423 93.6388 26.236 92.7155L25.4277 85.6739C25.3214 84.7506 25.9843 83.917 26.9076 83.8108L35.0667 82.8744C35.99 82.7681 36.8236 83.431 36.9299 84.3543L37.7382 91.3958C37.8436 92.3191 37.1816 93.1527 36.2583 93.259Z" fill="url(#paint35_linear_497_909)"/>
<path d="M50.4981 91.6249L42.339 92.5613C41.4156 92.6676 40.582 92.0047 40.4758 91.0814L39.6674 84.0398C39.5612 83.1165 40.224 82.2829 41.1465 82.1767L49.3056 81.2403C50.2289 81.134 51.0625 81.7969 51.1688 82.7202L51.9771 89.7617C52.0834 90.6851 51.4205 91.5186 50.4981 91.6249Z" fill="url(#paint36_linear_497_909)"/>
<path d="M64.7378 89.9908L56.5787 90.9272C55.6554 91.0335 54.8218 90.3706 54.7155 89.4473L53.9072 82.4057C53.8009 81.4824 54.4638 80.6488 55.3871 80.5426L63.5462 79.6062C64.4695 79.4999 65.3031 80.1628 65.4094 81.0861L66.2177 88.1277C66.3231 89.0501 65.6611 89.8846 64.7378 89.9908Z" fill="url(#paint37_linear_497_909)"/>
<path d="M78.9771 88.3559L70.8179 89.2923C69.8946 89.3985 69.061 88.7357 68.9548 87.8124L68.1464 80.7708C68.0402 79.8475 68.703 79.0139 69.6264 78.9076L77.7855 77.9712C78.7088 77.865 79.5424 78.5278 79.6486 79.4512L80.457 86.4927C80.5624 87.416 79.9004 88.2505 78.9771 88.3559Z" fill="url(#paint38_linear_497_909)"/>
<path d="M93.2168 86.7218L85.0577 87.6582C84.1344 87.7644 83.3008 87.1016 83.1945 86.1783L82.3862 79.1367C82.2799 78.2134 82.9428 77.3798 83.8661 77.2735L92.0252 76.3371C92.9485 76.2309 93.7821 76.8937 93.8884 77.8171L94.6967 84.8586C94.8021 85.7819 94.1401 86.6155 93.2168 86.7218Z" fill="url(#paint39_linear_497_909)"/>
<path d="M107.457 85.0877L99.2979 86.0241C98.3746 86.1303 97.541 85.4675 97.4347 84.5442L96.6264 77.5026C96.5202 76.5793 97.183 75.7457 98.1055 75.6394L106.265 74.703C107.188 74.5968 108.021 75.2597 108.128 76.183L108.936 83.2245C109.042 84.147 108.379 84.9814 107.457 85.0877Z" fill="url(#paint40_linear_497_909)"/>
<path d="M121.696 83.4527L113.537 84.3891C112.613 84.4954 111.78 83.8325 111.674 82.9092L110.865 75.8677C110.759 74.9443 111.422 74.1107 112.344 74.0045L120.503 73.0681C121.427 72.9618 122.26 73.6247 122.367 74.548L123.175 81.5896C123.281 82.5129 122.619 83.3473 121.696 83.4527Z" fill="url(#paint41_linear_497_909)"/>
<path d="M30.1737 20.3801C29.2748 20.4829 28.4621 19.8383 28.3585 18.9385L27.4195 10.755C27.3167 9.85611 27.9613 9.04341 28.861 8.93975C29.76 8.83697 30.5727 9.48156 30.6763 10.3814L31.6153 18.5648C31.7181 19.4646 31.0727 20.2765 30.1737 20.3801Z" fill="url(#paint42_linear_497_909)"/>
<path d="M48.3681 18.2922C47.4691 18.395 46.6564 17.7504 46.5528 16.8506L45.6138 8.66713C45.511 7.76821 46.1556 6.95552 47.0554 6.85186C47.9543 6.74908 48.767 7.39365 48.8707 8.29345L49.8097 16.477C49.9124 17.3759 49.267 18.1886 48.3681 18.2922Z" fill="url(#paint43_linear_497_909)"/>
<path d="M66.5629 16.2034C65.664 16.3062 64.8513 15.6616 64.7476 14.7618L63.8086 6.57834C63.7058 5.67941 64.3504 4.86673 65.2502 4.76307C66.1491 4.66029 66.9618 5.30486 67.0655 6.20466L68.0045 14.3882C68.1073 15.288 67.4618 16.1006 66.5629 16.2034Z" fill="url(#paint44_linear_497_909)"/>
<path d="M84.7572 14.1155C83.8583 14.2183 83.0456 13.5737 82.9419 12.6748L82.003 4.49132C81.9002 3.59239 82.5447 2.77971 83.4445 2.67605C84.3435 2.57327 85.1562 3.21785 85.2598 4.11677L86.1988 12.3003C86.3016 13.2001 85.6561 14.0119 84.7572 14.1155Z" fill="url(#paint45_linear_497_909)"/>
<path d="M102.952 12.0276C102.053 12.1304 101.24 11.4858 101.136 10.586L100.197 2.40254C100.095 1.50362 100.739 0.69093 101.639 0.587275C102.538 0.484491 103.35 1.12907 103.454 2.02886L104.393 10.2124C104.496 11.1113 103.85 11.924 102.952 12.0276Z" fill="url(#paint46_linear_497_909)"/>
<path d="M188.98 162.064C188.98 162.064 188.98 162.081 188.971 162.125L188.605 166.602C173.135 177.455 153.232 185.051 128.956 186.819L130.201 160.618L148.415 155.235L155.836 156.489L188.98 162.064Z" fill="url(#paint47_linear_497_909)"/>
<path d="M207.638 113.129C203.797 116.308 198.022 119.801 190.601 120.593L188.98 112.597V162.064C188.98 162.064 188.98 164.346 180.906 166.001C176.15 166.977 164.103 168.24 152.222 167.16C143.973 166.411 135.803 164.52 130.202 160.618C130.202 151.995 131.944 104.523 132.049 101.57L132.057 101.422C132.057 101.422 128.896 108.338 124.566 115.777C123.539 114.818 122.276 113.634 120.856 112.257C118.086 109.601 114.689 106.265 111.187 102.624C110.682 102.101 110.185 101.578 109.68 101.047C114.471 89.8977 121.762 74.3669 126.16 71.8234C130.838 69.1231 142.493 66.0048 149.705 64.2366C153.276 63.3568 155.75 62.8168 155.75 62.8168L165.802 61.9283C165.802 61.9283 168.293 62.6164 171.917 63.7836C180.2 66.4577 194.407 71.6666 198.292 76.9974C200.914 80.5862 204.529 96.8486 207.638 113.129Z" fill="url(#paint48_linear_497_909)"/>
<path d="M124.566 115.777C119.497 124.487 112.824 133.92 107.737 133.816C94.123 133.511 68.1048 91.5352 68.1048 91.5352C68.1048 91.5352 62.1032 89.5667 61.5806 88.5911C61.0667 87.6068 61.9464 84.9675 61.9464 84.9675C61.9464 84.9675 55.0129 74.3059 56.6679 73.3216C58.3229 72.3373 62.7217 80.621 62.7217 80.621C62.7217 80.621 66.6588 78.1385 68.2093 78.1385C69.7597 78.1385 73.2788 82.6854 73.8972 85.4814C74.5157 88.2775 104.898 112.649 104.898 112.649C104.898 112.649 106.178 109.357 108.164 104.627C108.635 103.503 109.14 102.301 109.68 101.047C115.516 107.214 121.265 112.693 124.566 115.777Z" fill="#FFD9D9"/>
<path d="M212.812 142.518C208.927 148.058 204.328 153.345 199.032 158.214L190.6 120.593C198.021 119.801 203.796 116.308 207.638 113.129C209.763 124.278 211.653 135.427 212.812 142.518Z" fill="#FFD9D9"/>
<path d="M188.981 112.597V162.064C188.981 162.064 188.98 164.346 180.906 166.001C176.15 166.977 164.103 168.24 152.222 167.16C149.043 153.162 173.014 150.566 170.349 139.504C167.666 128.328 180.287 131.847 180.906 114.749C181.533 97.6587 185.052 98.1117 185.052 98.1117L188.981 112.597Z" fill="url(#paint49_linear_497_909)"/>
<mask id="mask0_497_909" style="mask-type:luminance" maskUnits="userSpaceOnUse" x="109" y="61" width="99" height="107">
<path d="M207.639 113.129C203.798 116.308 198.023 119.801 190.602 120.593L188.981 112.597V162.064C188.981 162.064 188.981 164.346 180.907 166.001C176.151 166.977 164.104 168.24 152.223 167.16C143.974 166.411 135.804 164.52 130.203 160.618C130.203 151.995 131.945 104.523 132.05 101.57L132.058 101.422C132.058 101.422 128.896 108.338 124.567 115.777C123.54 114.818 122.277 113.634 120.857 112.257C117.686 109.226 113.705 105.298 109.681 101.047C114.472 89.8977 121.763 74.3669 126.161 71.8234C133.147 67.7817 155.751 62.8168 155.751 62.8168L165.803 61.9283C165.803 61.9283 192.71 69.3409 198.293 76.9974C200.915 80.5862 204.53 96.8486 207.639 113.129Z" fill="white"/>
</mask>
<g mask="url(#mask0_497_909)">
<path opacity="0.25" d="M139.329 59.9292C139.598 60.9327 139.003 61.964 138 62.234C136.996 62.5032 135.964 61.9082 135.695 60.9048C135.426 59.9013 136.021 58.8691 137.024 58.6C138.028 58.3308 139.06 58.9258 139.329 59.9292Z" fill="white"/>
<path opacity="0.25" d="M141.866 69.3749C142.135 70.3783 141.54 71.4105 140.537 71.6797C139.534 71.9488 138.501 71.3539 138.232 70.3504C137.963 69.347 138.558 68.3148 139.561 68.0456C140.566 67.7765 141.597 68.3714 141.866 69.3749Z" fill="white"/>
<path opacity="0.25" d="M152.458 66.53C152.728 67.5335 152.133 68.5657 151.129 68.8348C150.126 69.104 149.094 68.509 148.824 67.5056C148.555 66.5021 149.15 65.4699 150.154 65.2008C151.157 64.9316 152.188 65.5266 152.458 66.53Z" fill="white"/>
<path opacity="0.25" d="M163.049 63.6861C163.318 64.6895 162.724 65.7208 161.72 65.9908C160.717 66.26 159.684 65.6651 159.415 64.6616C159.146 63.6582 159.741 62.626 160.745 62.3568C161.748 62.0877 162.78 62.6826 163.049 63.6861Z" fill="white"/>
<path opacity="0.25" d="M173.64 60.8412C173.909 61.8447 173.314 62.8768 172.311 63.146C171.307 63.4151 170.276 62.8202 170.006 61.8168C169.737 60.8133 170.332 59.7811 171.335 59.512C172.339 59.2428 173.371 59.8378 173.64 60.8412Z" fill="white"/>
<path opacity="0.25" d="M144.404 78.8197C144.673 79.8231 144.078 80.8553 143.075 81.1244C142.071 81.3936 141.039 80.7987 140.77 79.7952C140.501 78.7918 141.096 77.7596 142.099 77.4904C143.102 77.2213 144.134 77.8162 144.404 78.8197Z" fill="white"/>
<path opacity="0.25" d="M154.995 75.9757C155.264 76.9791 154.669 78.0113 153.666 78.2805C152.662 78.5496 151.63 77.9547 151.361 76.9513C151.092 75.9478 151.687 74.9156 152.69 74.6465C153.694 74.3773 154.725 74.9722 154.995 75.9757Z" fill="white"/>
<path opacity="0.25" d="M165.586 73.1308C165.856 74.1343 165.261 75.1665 164.257 75.4356C163.254 75.7048 162.222 75.1099 161.952 74.1064C161.683 73.103 162.278 72.0708 163.282 71.8016C164.285 71.5325 165.317 72.1274 165.586 73.1308Z" fill="white"/>
<path opacity="0.25" d="M176.177 70.2869C176.446 71.2903 175.851 72.3225 174.848 72.5917C173.844 72.8608 172.812 72.2659 172.543 71.2625C172.274 70.259 172.869 69.2268 173.872 68.9577C174.875 68.6885 175.908 69.2834 176.177 70.2869Z" fill="white"/>
<path opacity="0.25" d="M186.769 67.442C187.038 68.4455 186.443 69.4768 185.439 69.7468C184.436 70.016 183.404 69.4211 183.135 68.4176C182.865 67.4142 183.46 66.382 184.464 66.1128C185.467 65.8437 186.499 66.4386 186.769 67.442Z" fill="white"/>
<path opacity="0.25" d="M197.36 64.598C197.629 65.6015 197.034 66.6337 196.031 66.9028C195.027 67.172 193.996 66.5771 193.726 65.5736C193.457 64.5702 194.052 63.538 195.055 63.2688C196.059 62.9997 197.091 63.5946 197.36 64.598Z" fill="white"/>
<path opacity="0.25" d="M207.951 61.7532C208.22 62.7566 207.625 63.7888 206.622 64.058C205.619 64.3271 204.587 63.7322 204.317 62.7288C204.048 61.7253 204.643 60.6931 205.646 60.424C206.65 60.1548 207.682 60.7497 207.951 61.7532Z" fill="white"/>
<path opacity="0.25" d="M146.94 88.2653C147.21 89.2687 146.615 90.3009 145.611 90.5701C144.608 90.8393 143.576 90.2443 143.306 89.2409C143.037 88.2374 143.632 87.2052 144.636 86.9361C145.639 86.6669 146.67 87.2618 146.94 88.2653Z" fill="white"/>
<path opacity="0.25" d="M157.531 85.4205C157.8 86.4239 157.205 87.4552 156.202 87.7252C155.199 87.9944 154.166 87.3995 153.897 86.396C153.628 85.3926 154.223 84.3604 155.226 84.0912C156.23 83.8221 157.262 84.417 157.531 85.4205Z" fill="white"/>
<path opacity="0.25" d="M168.123 82.5765C168.392 83.5799 167.797 84.6121 166.793 84.8813C165.79 85.1504 164.758 84.5555 164.489 83.552C164.219 82.5486 164.814 81.5164 165.818 81.2472C166.821 80.9781 167.853 81.573 168.123 82.5765Z" fill="white"/>
<path opacity="0.25" d="M178.715 79.7316C178.984 80.7351 178.389 81.7673 177.386 82.0364C176.382 82.3056 175.35 81.7106 175.081 80.7072C174.812 79.7037 175.407 78.6715 176.41 78.4024C177.413 78.1332 178.445 78.7282 178.715 79.7316Z" fill="white"/>
<path opacity="0.25" d="M189.305 76.8877C189.574 77.8911 188.979 78.9233 187.976 79.1925C186.973 79.4616 185.94 78.8667 185.671 77.8632C185.402 76.8598 185.997 75.8276 187 75.5584C188.004 75.2893 189.036 75.8842 189.305 76.8877Z" fill="white"/>
<path opacity="0.25" d="M199.896 74.0428C200.166 75.0463 199.571 76.0784 198.567 76.3476C197.564 76.6167 196.532 76.0218 196.262 75.0184C195.993 74.0149 196.588 72.9827 197.592 72.7136C198.595 72.4444 199.627 73.0394 199.896 74.0428Z" fill="white"/>
<path opacity="0.25" d="M210.488 71.1988C210.757 72.2023 210.162 73.2336 209.159 73.5036C208.155 73.7728 207.123 73.1779 206.854 72.1744C206.585 71.171 207.18 70.1388 208.183 69.8696C209.186 69.6005 210.219 70.1954 210.488 71.1988Z" fill="white"/>
</g>
<mask id="mask1_497_909" style="mask-type:luminance" maskUnits="userSpaceOnUse" x="109" y="61" width="99" height="107">
<path d="M207.639 113.129C203.798 116.308 198.023 119.801 190.602 120.593L188.981 112.597V162.064C188.981 162.064 188.981 164.346 180.907 166.001C176.151 166.977 164.104 168.24 152.223 167.16C143.974 166.411 135.804 164.52 130.203 160.618C130.203 151.995 131.945 104.523 132.05 101.57L132.058 101.422C132.058 101.422 128.896 108.338 124.567 115.777C123.54 114.818 122.277 113.634 120.857 112.257C117.686 109.226 113.705 105.298 109.681 101.047C114.472 89.8977 121.763 74.3669 126.161 71.8234C133.147 67.7817 155.751 62.8168 155.751 62.8168L165.803 61.9283C165.803 61.9283 192.71 69.3409 198.293 76.9974C200.915 80.5862 204.53 96.8486 207.639 113.129Z" fill="white"/>
</mask>
<g mask="url(#mask1_497_909)">
<path opacity="0.25" d="M118.423 148.09C118.692 149.093 118.097 150.125 117.094 150.395C116.09 150.664 115.059 150.069 114.789 149.065C114.52 148.062 115.115 147.031 116.118 146.761C117.122 146.491 118.154 147.086 118.423 148.09Z" fill="white"/>
<path opacity="0.25" d="M129.013 145.245C129.282 146.248 128.687 147.281 127.684 147.55C126.681 147.819 125.648 147.224 125.379 146.221C125.11 145.217 125.705 144.185 126.708 143.916C127.712 143.647 128.744 144.242 129.013 145.245Z" fill="white"/>
<path opacity="0.25" d="M139.605 142.401C139.875 143.404 139.28 144.436 138.276 144.706C137.273 144.975 136.241 144.38 135.971 143.377C135.702 142.373 136.297 141.341 137.301 141.072C138.304 140.803 139.335 141.398 139.605 142.401Z" fill="white"/>
<path opacity="0.25" d="M150.197 139.556C150.466 140.56 149.871 141.591 148.868 141.861C147.864 142.13 146.832 141.535 146.563 140.532C146.294 139.528 146.889 138.496 147.892 138.227C148.895 137.958 149.928 138.553 150.197 139.556Z" fill="white"/>
<path opacity="0.25" d="M160.788 136.712C161.057 137.716 160.462 138.748 159.459 139.017C158.455 139.286 157.423 138.691 157.154 137.688C156.885 136.684 157.48 135.652 158.483 135.383C159.487 135.114 160.519 135.709 160.788 136.712Z" fill="white"/>
<path opacity="0.25" d="M110.369 160.379C110.638 161.383 110.043 162.415 109.04 162.684C108.036 162.953 107.005 162.358 106.735 161.355C106.466 160.352 107.061 159.32 108.064 159.05C109.068 158.781 110.1 159.376 110.369 160.379Z" fill="white"/>
<path opacity="0.25" d="M120.959 157.535C121.229 158.538 120.634 159.57 119.63 159.839C118.627 160.109 117.595 159.514 117.325 158.51C117.056 157.507 117.651 156.475 118.655 156.205C119.658 155.936 120.69 156.531 120.959 157.535Z" fill="white"/>
<path opacity="0.25" d="M131.551 154.691C131.82 155.694 131.225 156.726 130.222 156.995C129.218 157.265 128.186 156.67 127.917 155.666C127.648 154.663 128.243 153.631 129.246 153.361C130.249 153.092 131.282 153.687 131.551 154.691Z" fill="white"/>
<path opacity="0.25" d="M142.143 151.846C142.412 152.849 141.817 153.881 140.813 154.151C139.81 154.42 138.778 153.825 138.509 152.821C138.239 151.818 138.834 150.787 139.838 150.517C140.841 150.247 141.873 150.842 142.143 151.846Z" fill="white"/>
<path opacity="0.25" d="M152.734 149.002C153.003 150.005 152.408 151.037 151.405 151.307C150.401 151.576 149.369 150.981 149.1 149.977C148.831 148.974 149.426 147.942 150.429 147.673C151.433 147.403 152.465 147.998 152.734 149.002Z" fill="white"/>
<path opacity="0.25" d="M163.325 146.157C163.594 147.16 162.999 148.192 161.996 148.462C160.993 148.731 159.96 148.136 159.691 147.133C159.422 146.129 160.017 145.097 161.02 144.828C162.024 144.559 163.056 145.153 163.325 146.157Z" fill="white"/>
<path opacity="0.25" d="M123.496 166.98C123.765 167.984 123.17 169.016 122.166 169.285C121.163 169.554 120.131 168.959 119.862 167.956C119.592 166.952 120.187 165.921 121.191 165.651C122.194 165.382 123.226 165.977 123.496 166.98Z" fill="white"/>
<path opacity="0.25" d="M134.087 164.135C134.357 165.139 133.762 166.171 132.758 166.44C131.755 166.709 130.723 166.114 130.453 165.111C130.184 164.108 130.779 163.076 131.783 162.806C132.786 162.537 133.817 163.132 134.087 164.135Z" fill="white"/>
<path opacity="0.25" d="M144.679 161.291C144.948 162.295 144.353 163.327 143.349 163.596C142.346 163.865 141.315 163.27 141.045 162.267C140.776 161.264 141.37 160.232 142.374 159.962C143.377 159.693 144.41 160.288 144.679 161.291Z" fill="white"/>
<path opacity="0.25" d="M155.27 158.447C155.539 159.45 154.944 160.482 153.941 160.751C152.937 161.021 151.906 160.426 151.636 159.422C151.367 158.419 151.962 157.387 152.965 157.117C153.969 156.848 155.001 157.443 155.27 158.447Z" fill="white"/>
<path opacity="0.25" d="M165.861 155.603C166.13 156.606 165.536 157.638 164.532 157.907C163.529 158.177 162.497 157.582 162.227 156.578C161.958 155.575 162.553 154.543 163.557 154.273C164.56 154.004 165.592 154.599 165.861 155.603Z" fill="white"/>
<path opacity="0.25" d="M157.807 167.892C158.076 168.896 157.481 169.928 156.477 170.197C155.474 170.466 154.443 169.871 154.173 168.868C153.903 167.864 154.498 166.833 155.502 166.563C156.505 166.294 157.537 166.889 157.807 167.892Z" fill="white"/>
<path opacity="0.25" d="M168.398 165.047C168.668 166.051 168.073 167.083 167.069 167.352C166.066 167.621 165.034 167.026 164.764 166.023C164.495 165.02 165.09 163.988 166.094 163.718C167.097 163.449 168.128 164.044 168.398 165.047Z" fill="white"/>
</g>
<mask id="mask2_497_909" style="mask-type:luminance" maskUnits="userSpaceOnUse" x="109" y="61" width="99" height="107">
<path d="M207.639 113.129C203.798 116.308 198.023 119.801 190.602 120.593L188.981 112.597V162.064C188.981 162.064 188.981 164.346 180.907 166.001C176.151 166.977 164.104 168.24 152.223 167.16C143.974 166.411 135.804 164.52 130.203 160.618C130.203 151.995 131.945 104.523 132.05 101.57L132.058 101.422C132.058 101.422 128.896 108.338 124.567 115.777C123.54 114.818 122.277 113.634 120.857 112.257C117.686 109.226 113.705 105.298 109.681 101.047C114.472 89.8977 121.763 74.3669 126.161 71.8234C133.147 67.7817 155.751 62.8168 155.751 62.8168L165.803 61.9283C165.803 61.9283 192.71 69.3409 198.293 76.9974C200.915 80.5862 204.53 96.8486 207.639 113.129Z" fill="white"/>
</mask>
<g mask="url(#mask2_497_909)">
<path opacity="0.25" d="M167.314 110.13C167.583 111.134 166.988 112.166 165.985 112.435C164.981 112.704 163.95 112.109 163.68 111.106C163.411 110.103 164.006 109.071 165.009 108.801C166.013 108.532 167.045 109.127 167.314 110.13Z" fill="white"/>
<path opacity="0.25" d="M177.906 107.286C178.175 108.29 177.58 109.321 176.577 109.591C175.574 109.86 174.542 109.265 174.272 108.262C174.003 107.259 174.598 106.226 175.601 105.957C176.604 105.688 177.636 106.283 177.906 107.286Z" fill="white"/>
<path opacity="0.25" d="M188.497 104.442C188.766 105.445 188.171 106.476 187.168 106.746C186.164 107.016 185.132 106.421 184.863 105.417C184.594 104.414 185.189 103.382 186.192 103.112C187.196 102.843 188.227 103.438 188.497 104.442Z" fill="white"/>
<path opacity="0.25" d="M199.088 101.598C199.357 102.601 198.762 103.632 197.759 103.902C196.755 104.172 195.723 103.577 195.454 102.573C195.185 101.57 195.78 100.538 196.783 100.268C197.787 99.9992 198.819 100.594 199.088 101.598Z" fill="white"/>
<path opacity="0.25" d="M209.679 98.7527C209.948 99.7562 209.353 100.787 208.349 101.058C207.346 101.327 206.314 100.732 206.045 99.7283C205.776 98.7249 206.37 97.6927 207.374 97.4235C208.377 97.1544 209.41 97.7493 209.679 98.7527Z" fill="white"/>
<path opacity="0.25" d="M169.85 119.576C170.119 120.579 169.524 121.612 168.521 121.881C167.517 122.15 166.486 121.555 166.216 120.552C165.947 119.548 166.542 118.516 167.545 118.247C168.549 117.978 169.581 118.573 169.85 119.576Z" fill="white"/>
<path opacity="0.25" d="M180.442 116.731C180.711 117.735 180.116 118.767 179.113 119.036C178.109 119.305 177.078 118.71 176.808 117.707C176.539 116.703 177.134 115.672 178.137 115.402C179.141 115.133 180.172 115.728 180.442 116.731Z" fill="white"/>
<path opacity="0.25" d="M191.033 113.887C191.302 114.891 190.707 115.923 189.704 116.192C188.701 116.461 187.669 115.866 187.399 114.863C187.13 113.859 187.725 112.827 188.728 112.558C189.732 112.289 190.764 112.884 191.033 113.887Z" fill="white"/>
<path opacity="0.25" d="M201.624 111.042C201.893 112.046 201.298 113.077 200.294 113.347C199.291 113.616 198.26 113.021 197.99 112.018C197.72 111.014 198.315 109.982 199.319 109.713C200.322 109.444 201.354 110.039 201.624 111.042Z" fill="white"/>
<path opacity="0.25" d="M172.387 129.021C172.656 130.024 172.061 131.056 171.058 131.326C170.055 131.595 169.022 131 168.753 129.996C168.484 128.993 169.079 127.961 170.082 127.692C171.086 127.422 172.118 128.017 172.387 129.021Z" fill="white"/>
<path opacity="0.25" d="M182.979 126.177C183.249 127.18 182.654 128.212 181.65 128.482C180.647 128.751 179.615 128.156 179.345 127.152C179.076 126.149 179.671 125.117 180.675 124.848C181.678 124.578 182.709 125.173 182.979 126.177Z" fill="white"/>
<path opacity="0.25" d="M193.57 123.332C193.84 124.335 193.245 125.368 192.241 125.637C191.238 125.906 190.206 125.311 189.936 124.308C189.667 123.304 190.262 122.272 191.266 122.003C192.269 121.734 193.301 122.329 193.57 123.332Z" fill="white"/>
<path opacity="0.25" d="M204.162 120.488C204.431 121.491 203.836 122.524 202.832 122.793C201.829 123.062 200.798 122.467 200.528 121.464C200.258 120.46 200.853 119.429 201.857 119.159C202.86 118.89 203.892 119.485 204.162 120.488Z" fill="white"/>
<path opacity="0.25" d="M174.924 138.466C175.193 139.47 174.598 140.502 173.595 140.771C172.591 141.04 171.559 140.445 171.29 139.442C171.021 138.439 171.616 137.406 172.619 137.137C173.622 136.868 174.654 137.463 174.924 138.466Z" fill="white"/>
<path opacity="0.25" d="M185.515 135.622C185.784 136.625 185.189 137.657 184.186 137.926C183.182 138.196 182.15 137.601 181.881 136.597C181.612 135.594 182.207 134.562 183.21 134.292C184.214 134.023 185.246 134.618 185.515 135.622Z" fill="white"/>
<path opacity="0.25" d="M196.106 132.778C196.376 133.781 195.781 134.813 194.777 135.082C193.774 135.352 192.742 134.757 192.472 133.753C192.203 132.75 192.798 131.718 193.802 131.448C194.805 131.179 195.837 131.774 196.106 132.778Z" fill="white"/>
<path opacity="0.25" d="M206.698 129.933C206.967 130.936 206.372 131.968 205.369 132.238C204.365 132.507 203.333 131.912 203.064 130.908C202.795 129.905 203.39 128.873 204.393 128.604C205.396 128.334 206.428 128.929 206.698 129.933Z" fill="white"/>
<path opacity="0.25" d="M177.461 147.911C177.73 148.915 177.135 149.947 176.132 150.216C175.128 150.485 174.097 149.89 173.827 148.887C173.558 147.883 174.153 146.852 175.156 146.582C176.16 146.313 177.191 146.908 177.461 147.911Z" fill="white"/>
<path opacity="0.25" d="M188.052 145.067C188.321 146.071 187.726 147.103 186.723 147.372C185.72 147.641 184.688 147.046 184.418 146.043C184.149 145.039 184.744 144.008 185.747 143.738C186.751 143.469 187.783 144.064 188.052 145.067Z" fill="white"/>
<path opacity="0.25" d="M198.644 142.222C198.913 143.226 198.318 144.258 197.314 144.527C196.311 144.796 195.279 144.201 195.01 143.198C194.74 142.195 195.335 141.162 196.339 140.893C197.342 140.624 198.374 141.219 198.644 142.222Z" fill="white"/>
<path opacity="0.25" d="M209.235 139.378C209.504 140.382 208.909 141.414 207.906 141.683C206.902 141.952 205.87 141.357 205.601 140.354C205.332 139.351 205.927 138.318 206.93 138.049C207.934 137.78 208.965 138.375 209.235 139.378Z" fill="white"/>
</g>
<mask id="mask3_497_909" style="mask-type:luminance" maskUnits="userSpaceOnUse" x="109" y="61" width="99" height="107">
<path d="M207.639 113.129C203.798 116.308 198.023 119.801 190.602 120.593L188.981 112.597V162.064C188.981 162.064 188.981 164.346 180.907 166.001C176.151 166.977 164.104 168.24 152.223 167.16C143.974 166.411 135.804 164.52 130.203 160.618C130.203 151.995 131.945 104.523 132.05 101.57L132.058 101.422C132.058 101.422 128.896 108.338 124.567 115.777C123.54 114.818 122.277 113.634 120.857 112.257C117.686 109.226 113.705 105.298 109.681 101.047C114.472 89.8977 121.763 74.3669 126.161 71.8234C133.147 67.7817 155.751 62.8168 155.751 62.8168L165.803 61.9283C165.803 61.9283 192.71 69.3409 198.293 76.9974C200.915 80.5862 204.53 96.8486 207.639 113.129Z" fill="white"/>
</mask>
<g mask="url(#mask3_497_909)">
<path opacity="0.25" d="M113.07 97.3843C113.339 98.3878 112.744 99.42 111.741 99.6891C110.737 99.9583 109.705 99.3634 109.436 98.3599C109.167 97.3565 109.762 96.3243 110.765 96.0551C111.768 95.7859 112.8 96.3809 113.07 97.3843Z" fill="white"/>
<path opacity="0.25" d="M123.661 94.5404C123.93 95.5438 123.335 96.576 122.332 96.8452C121.328 97.1143 120.296 96.5194 120.027 95.5159C119.758 94.5125 120.353 93.4803 121.356 93.2111C122.36 92.942 123.391 93.5369 123.661 94.5404Z" fill="white"/>
<path opacity="0.25" d="M134.252 91.6955C134.522 92.699 133.927 93.7312 132.923 94.0003C131.92 94.2695 130.888 93.6745 130.618 92.6711C130.349 91.6676 130.944 90.6354 131.948 90.3663C132.951 90.0971 133.983 90.6921 134.252 91.6955Z" fill="white"/>
<path opacity="0.25" d="M115.606 106.83C115.875 107.833 115.28 108.866 114.277 109.135C113.273 109.404 112.242 108.809 111.972 107.806C111.703 106.802 112.298 105.77 113.301 105.501C114.305 105.232 115.336 105.827 115.606 106.83Z" fill="white"/>
<path opacity="0.25" d="M126.197 103.985C126.466 104.989 125.871 106.021 124.868 106.29C123.865 106.559 122.833 105.964 122.563 104.961C122.294 103.957 122.889 102.925 123.892 102.656C124.896 102.387 125.928 102.982 126.197 103.985Z" fill="white"/>
<path opacity="0.25" d="M136.789 101.141C137.058 102.145 136.463 103.177 135.459 103.446C134.456 103.715 133.425 103.12 133.155 102.117C132.885 101.113 133.48 100.081 134.484 99.8119C135.487 99.5428 136.519 100.138 136.789 101.141Z" fill="white"/>
<path opacity="0.25" d="M118.143 116.275C118.412 117.278 117.817 118.31 116.814 118.58C115.81 118.849 114.778 118.254 114.509 117.25C114.24 116.247 114.835 115.215 115.838 114.946C116.842 114.676 117.873 115.271 118.143 116.275Z" fill="white"/>
<path opacity="0.25" d="M128.734 113.431C129.004 114.434 128.409 115.466 127.405 115.736C126.402 116.005 125.37 115.41 125.1 114.406C124.831 113.403 125.426 112.371 126.43 112.102C127.433 111.832 128.465 112.427 128.734 113.431Z" fill="white"/>
<path opacity="0.25" d="M139.326 110.586C139.595 111.589 139 112.622 137.996 112.891C136.993 113.16 135.962 112.565 135.692 111.561C135.423 110.558 136.017 109.526 137.021 109.257C138.024 108.988 139.057 109.582 139.326 110.586Z" fill="white"/>
<path opacity="0.25" d="M110.088 128.564C110.357 129.568 109.762 130.6 108.759 130.869C107.755 131.138 106.723 130.543 106.454 129.54C106.185 128.537 106.78 127.505 107.783 127.235C108.787 126.966 109.818 127.561 110.088 128.564Z" fill="white"/>
<path opacity="0.25" d="M120.679 125.72C120.948 126.724 120.353 127.756 119.35 128.025C118.347 128.294 117.314 127.699 117.045 126.696C116.776 125.693 117.371 124.661 118.374 124.391C119.378 124.122 120.41 124.717 120.679 125.72Z" fill="white"/>
<path opacity="0.25" d="M131.271 122.876C131.54 123.879 130.945 124.911 129.941 125.18C128.938 125.45 127.906 124.855 127.636 123.851C127.367 122.848 127.962 121.816 128.966 121.546C129.969 121.277 131.001 121.872 131.271 122.876Z" fill="white"/>
<path opacity="0.25" d="M141.862 120.032C142.131 121.035 141.537 122.067 140.533 122.336C139.53 122.606 138.497 122.011 138.228 121.007C137.959 120.004 138.554 118.972 139.558 118.702C140.561 118.433 141.592 119.028 141.862 120.032Z" fill="white"/>
<path opacity="0.25" d="M112.625 138.01C112.894 139.013 112.299 140.046 111.296 140.315C110.292 140.584 109.261 139.989 108.991 138.986C108.722 137.982 109.317 136.951 110.32 136.681C111.324 136.412 112.355 137.007 112.625 138.01Z" fill="white"/>
<path opacity="0.25" d="M123.216 135.165C123.485 136.169 122.891 137.201 121.887 137.47C120.884 137.739 119.851 137.144 119.582 136.141C119.313 135.137 119.908 134.106 120.912 133.836C121.915 133.567 122.947 134.162 123.216 135.165Z" fill="white"/>
<path opacity="0.25" d="M133.808 132.321C134.077 133.325 133.482 134.357 132.478 134.626C131.475 134.895 130.443 134.3 130.174 133.297C129.904 132.293 130.499 131.262 131.503 130.992C132.506 130.723 133.538 131.318 133.808 132.321Z" fill="white"/>
<path opacity="0.25" d="M144.399 129.476C144.669 130.48 144.074 131.512 143.07 131.781C142.067 132.05 141.035 131.455 140.765 130.452C140.496 129.448 141.091 128.417 142.095 128.147C143.098 127.878 144.129 128.473 144.399 129.476Z" fill="white"/>
</g>
<path d="M132.793 92.4882L132.058 101.422C132.058 101.422 128.896 108.338 124.567 115.777C123.539 114.818 122.276 113.634 120.856 112.257C125.851 106.837 129.908 97.3468 131.85 92.2669C132.053 91.7382 132.84 91.9237 132.793 92.4882Z" fill="url(#paint50_linear_497_909)"/>
<path d="M171.917 63.7836C169.452 69.7155 165.044 76.1699 157.623 75.1334C149.278 73.9662 148.851 68.3131 149.705 64.2366C153.276 63.3568 155.75 62.8168 155.75 62.8168L165.802 61.9283C165.802 61.9283 168.293 62.6164 171.917 63.7836Z" fill="white"/>
<path d="M112.659 117.928L104.898 112.649C104.898 112.649 106.178 109.357 108.164 104.627L112.659 117.928Z" fill="url(#paint51_linear_497_909)"/>
<path d="M144.066 37.6739C138.53 28.1995 143.756 18.4203 143.756 18.4203C143.756 18.4203 140.444 13.7636 144.687 10.2446C148.93 6.72555 153.225 10.6069 153.225 10.6069C153.225 10.6069 151.311 5.74302 155.968 4.60456C160.625 3.4661 164.04 10.1932 170.198 12.8839C176.357 15.5746 181.996 20.9045 182.1 24.7336C182.203 28.5628 181.271 29.3911 181.271 29.3911C181.271 29.3911 185.1 30.9956 182.616 36.066C180.132 41.1372 178.166 43.3105 172.94 47.5534C167.713 51.7962 161.504 47.4497 161.452 46.9323L144.066 37.6739Z" fill="url(#paint52_linear_497_909)"/>
<path d="M167.143 52.791C167.134 57.5817 167.457 63.2871 167.457 63.2871C167.457 63.2871 164.121 72.5202 157.832 72.5202C151.543 72.5202 153.093 63.7488 153.093 63.7488C153.093 63.7488 153.093 63.0781 153.032 61.9196C152.954 60.3517 152.762 57.9127 152.318 55.0557L167.457 47.2946C167.23 48.4444 167.152 50.5088 167.143 52.791Z" fill="#FFD9D9"/>
<path d="M167.457 47.2946C167.23 48.4444 167.152 50.5088 167.143 52.791C164.417 57.6601 158.833 62.1983 153.032 61.9196C152.954 60.3517 152.762 57.9127 152.318 55.0557L167.457 47.2946Z" fill="url(#paint53_linear_497_909)"/>
<path d="M145.644 20.9811C143.625 26.8799 143.587 29.2866 143.431 33.6715C143.276 38.0572 140.805 54.6933 152.345 56.2969C163.884 57.9014 171.025 45.0683 171.025 45.0683C171.025 45.0683 173.664 48.1727 177.08 45.0683C180.495 41.9638 177.701 37.2027 174.803 37.3063C171.905 37.41 170.87 41.0841 170.87 41.0841L170.508 33.2708C170.508 33.2708 166.523 29.5453 162.021 29.1316C157.519 28.7169 149.344 28.3032 145.644 20.9811Z" fill="#FFD9D9"/>
<path d="M175.863 40.5414C173.975 39.3516 172.5 42.3523 173.82 43.827" stroke="#E16D90" stroke-width="0.4466" stroke-miterlimit="10" stroke-linecap="round" stroke-linejoin="round"/>
<path d="M153.794 35.5991L151.269 43.0012C151.014 43.7504 151.457 44.5561 152.226 44.7425L153.794 45.1214" stroke="#E16D90" stroke-width="0.4466" stroke-miterlimit="10" stroke-linecap="round" stroke-linejoin="round"/>
<path d="M160.573 38.1347C160.573 38.7061 160.109 39.1695 159.538 39.1695C158.966 39.1695 158.503 38.7061 158.503 38.1347C158.503 37.5633 158.966 37.0999 159.538 37.0999C160.109 37.0999 160.573 37.5633 160.573 38.1347Z" fill="#2A3249"/>
<path d="M148.982 37.6739C148.982 38.2453 148.518 38.7087 147.947 38.7087C147.376 38.7087 146.912 38.2453 146.912 37.6739C146.912 37.1025 147.376 36.6391 147.947 36.6391C148.518 36.6391 148.982 37.1025 148.982 37.6739Z" fill="#2A3249"/>
<path d="M157.623 34.3056C157.623 34.3056 160.159 32.1837 162.591 35.1339" stroke="#2A3249" stroke-width="0.4727" stroke-miterlimit="10" stroke-linecap="round"/>
<path d="M145.76 33.7882C145.76 33.7882 148.089 31.0566 150.573 33.5669" stroke="#2A3249" stroke-width="0.4727" stroke-miterlimit="10" stroke-linecap="round"/>
<path d="M158.927 47.3199C159.11 49.0803 157.831 50.6552 156.072 50.8381C154.311 51.021 152.737 49.7423 152.554 47.9828L158.927 47.3199Z" fill="white"/>
<path d="M12.6833 87.8098C19.6237 87.8098 25.2499 82.1835 25.2499 75.2431C25.2499 68.3028 19.6237 62.6765 12.6833 62.6765C5.74297 62.6765 0.116699 68.3028 0.116699 75.2431C0.116699 82.1835 5.74297 87.8098 12.6833 87.8098Z" fill="url(#paint54_linear_497_909)"/>
<path d="M7.53076 73.934L11.8381 78.2422L17.8353 72.245" stroke="white" stroke-width="3" stroke-miterlimit="10" stroke-linecap="round" stroke-linejoin="round"/>
<path d="M75.1128 168.102C56.0438 149.349 59.3512 120.472 59.3512 120.472C59.3512 120.472 83.3155 141.764 75.1128 168.102Z" fill="url(#paint55_linear_497_909)"/>
<path d="M62.2974 126.942C71.1908 149.024 75.1131 168.102 75.1131 168.102" stroke="#161515" stroke-miterlimit="10" stroke-linecap="round" stroke-linejoin="round"/>
<path d="M76.9839 174.407C99.551 160.053 102.351 131.123 102.351 131.123C102.351 131.123 74.4674 146.936 76.9839 174.407Z" fill="url(#paint56_linear_497_909)"/>
<path d="M98.1195 136.833C84.8081 156.569 76.9844 174.407 76.9844 174.407" stroke="#161515" stroke-miterlimit="10" stroke-linecap="round" stroke-linejoin="round"/>
<path d="M78.7442 162.349C93.4658 140.02 84.1892 112.475 84.1892 112.475C84.1892 112.475 65.2116 138.311 78.7442 162.349Z" fill="url(#paint57_linear_497_909)"/>
<path d="M82.6624 119.417C78.5877 142.872 78.7445 162.349 78.7445 162.349" stroke="#161515" stroke-miterlimit="10" stroke-linecap="round" stroke-linejoin="round"/>
<path d="M98.5391 163.721H60.6555C58.3124 163.721 56.4126 161.821 56.4126 159.478C56.4126 157.135 58.3124 155.235 60.6555 155.235H98.5391C100.882 155.235 102.782 157.135 102.782 159.478C102.782 161.821 100.882 163.721 98.5391 163.721Z" fill="url(#paint58_linear_497_909)"/>
<path d="M97.0834 163.719L95.7159 174.407L94.2961 185.556C90.9338 185.086 87.5019 184.528 84.009 183.858C76.7967 182.481 70.1245 180.617 63.9749 178.344L62.4593 166.419L62.1108 163.719H97.0834Z" fill="url(#paint59_linear_497_909)"/>
<path d="M97.0834 163.719L95.7159 174.407L62.4593 166.419L62.1108 163.719H97.0834Z" fill="url(#paint60_linear_497_909)"/>
<path d="M55.1142 98.1282H26.2085V131.374H55.1142V98.1282Z" fill="url(#paint61_linear_497_909)"/>
<path d="M50.166 111.055H31.1571C30.8243 111.055 30.5552 110.786 30.5552 110.454C30.5552 110.121 30.8243 109.852 31.1571 109.852H50.166C50.4987 109.852 50.7679 110.121 50.7679 110.454C50.7679 110.785 50.4978 111.055 50.166 111.055Z" fill="white"/>
<path d="M50.166 115.436H31.1571C30.8243 115.436 30.5552 115.166 30.5552 114.834C30.5552 114.501 30.8243 114.232 31.1571 114.232H50.166C50.4987 114.232 50.7679 114.501 50.7679 114.834C50.7679 115.167 50.4978 115.436 50.166 115.436Z" fill="white"/>
<path d="M50.166 119.816H31.1571C30.8243 119.816 30.5552 119.547 30.5552 119.215C30.5552 118.882 30.8243 118.613 31.1571 118.613H50.166C50.4987 118.613 50.7679 118.882 50.7679 119.215C50.7679 119.547 50.4978 119.816 50.166 119.816Z" fill="white"/>
<path d="M41.8736 124.198H31.0142C30.7608 124.198 30.5552 123.992 30.5552 123.739V123.454C30.5552 123.2 30.7608 122.995 31.0142 122.995H41.8736C42.1271 122.995 42.3327 123.2 42.3327 123.454V123.739C42.3335 123.992 42.1271 124.198 41.8736 124.198Z" fill="white"/>
<path d="M119.783 218.066C135.961 218.066 149.077 204.951 149.077 188.772C149.077 172.593 135.961 159.478 119.783 159.478C103.604 159.478 90.4883 172.593 90.4883 188.772C90.4883 204.951 103.604 218.066 119.783 218.066Z" fill="url(#paint62_linear_497_909)"/>
<path opacity="0.25" d="M144.151 194.614C147.38 181.16 139.092 167.636 125.638 164.407C112.184 161.178 98.6602 169.466 95.431 182.92C92.2018 196.373 100.49 209.898 113.944 213.127C127.398 216.356 140.922 208.067 144.151 194.614Z" stroke="white" stroke-miterlimit="10" stroke-linecap="round" stroke-linejoin="round"/>
<path d="M119.782 208.481C130.668 208.481 139.492 199.657 139.492 188.772C139.492 177.887 130.668 169.063 119.782 169.063C108.897 169.063 100.073 177.887 100.073 188.772C100.073 199.657 108.897 208.481 119.782 208.481Z" fill="url(#paint63_linear_497_909)"/>
<path d="M118.286 186.256C119.675 185.429 121.471 185.886 122.298 187.276C123.125 188.665 122.667 190.462 121.278 191.288C119.889 192.114 118.092 191.657 117.266 190.268C116.44 188.878 116.897 187.082 118.286 186.256Z" fill="white"/>
<path d="M114.947 191.183L115.355 191.868C115.554 192.204 115.445 192.639 115.108 192.838L101.706 200.808C101.369 201.008 100.935 200.898 100.735 200.562L100.328 199.877C100.128 199.541 100.238 199.106 100.574 198.907L113.977 190.937C114.313 190.737 114.748 190.847 114.947 191.183Z" fill="white"/>
<path d="M121.568 183.663L120.572 183.419C120.253 183.34 120.059 183.018 120.137 182.7L122.448 173.313C122.527 172.994 122.849 172.8 123.167 172.878L124.163 173.123C124.481 173.201 124.676 173.524 124.597 173.841L122.286 183.229C122.208 183.547 121.886 183.742 121.568 183.663Z" fill="white"/>
<path d="M219.716 81.0173C230.919 81.0173 240 71.9358 240 60.7332C240 49.5306 230.919 40.4491 219.716 40.4491C208.514 40.4491 199.432 49.5306 199.432 60.7332C199.432 71.9358 208.514 81.0173 219.716 81.0173Z" fill="url(#paint64_linear_497_909)"/>
<path d="M225.572 53.1699C223.952 51.5506 221.833 50.7379 219.715 50.7379C217.595 50.7379 215.483 51.5506 213.864 53.1699C210.626 56.4006 210.626 61.6399 213.864 64.8776L219.715 70.7276L225.572 64.8776C227.184 63.2584 227.997 61.1391 227.997 59.0198C227.997 56.9014 227.184 54.7822 225.572 53.1699ZM219.715 61.5084C218.339 61.5084 217.227 60.397 217.227 59.0207C217.227 57.6453 218.338 56.533 219.715 56.533C221.091 56.533 222.202 57.6444 222.202 59.0207C222.201 60.3961 221.09 61.5084 219.715 61.5084Z" fill="white"/>
<defs>
<linearGradient id="paint0_linear_497_909" x1="114.443" y1="140.086" x2="117.547" y2="310.225" gradientUnits="userSpaceOnUse">
<stop offset="5.3e-07" stop-color="#E0F0FF"/>
<stop offset="1" stop-color="#9CB1EC"/>
</linearGradient>
<linearGradient id="paint1_linear_497_909" x1="176.355" y1="-9.80843" x2="174.979" y2="223.494" gradientUnits="userSpaceOnUse">
<stop offset="5.3e-07" stop-color="#E0F0FF"/>
<stop offset="1" stop-color="#9CB1EC"/>
</linearGradient>
<linearGradient id="paint2_linear_497_909" x1="237.663" y1="77.1522" x2="658.171" y2="103.434" gradientUnits="userSpaceOnUse">
<stop offset="5.3e-07" stop-color="#E0F0FF"/>
<stop offset="1" stop-color="#9CB1EC"/>
</linearGradient>
<linearGradient id="paint3_linear_497_909" x1="84.5418" y1="-9.64564" x2="83.167" y2="223.387" gradientUnits="userSpaceOnUse">
<stop offset="5.3e-07" stop-color="#E0F0FF"/>
<stop offset="1" stop-color="#9CB1EC"/>
</linearGradient>
<linearGradient id="paint4_linear_497_909" x1="145.626" y1="75.6393" x2="561.598" y2="101.638" gradientUnits="userSpaceOnUse">
<stop offset="5.3e-07" stop-color="#E0F0FF"/>
<stop offset="1" stop-color="#9CB1EC"/>
</linearGradient>
<linearGradient id="paint5_linear_497_909" x1="110.742" y1="-103.515" x2="-5.0523" y2="216.719" gradientUnits="userSpaceOnUse">
<stop offset="0.014" stop-color="#FFBAC0"/>
<stop offset="1" stop-color="#F54A8F"/>
</linearGradient>
<linearGradient id="paint6_linear_497_909" x1="2.53028" y1="-48.6855" x2="86.9382" y2="84.1312" gradientUnits="userSpaceOnUse">
<stop offset="5.3e-07" stop-color="#E0F0FF"/>
<stop offset="1" stop-color="white"/>
</linearGradient>
<linearGradient id="paint7_linear_497_909" x1="10.0721" y1="10.9719" x2="30.4244" y2="54.8883" gradientUnits="userSpaceOnUse">
<stop offset="5.3e-07" stop-color="#E0F0FF"/>
<stop offset="1" stop-color="#9CB1EC"/>
</linearGradient>
<linearGradient id="paint8_linear_497_909" x1="14.383" y1="8.97495" x2="34.7348" y2="52.8901" gradientUnits="userSpaceOnUse">
<stop offset="5.3e-07" stop-color="#E0F0FF"/>
<stop offset="1" stop-color="#9CB1EC"/>
</linearGradient>
<linearGradient id="paint9_linear_497_909" x1="17.6941" y1="7.43954" x2="38.0465" y2="51.3559" gradientUnits="userSpaceOnUse">
<stop offset="5.3e-07" stop-color="#E0F0FF"/>
<stop offset="1" stop-color="#9CB1EC"/>
</linearGradient>
<linearGradient id="paint10_linear_497_909" x1="21.5665" y1="5.64519" x2="41.9185" y2="49.5608" gradientUnits="userSpaceOnUse">
<stop offset="5.3e-07" stop-color="#E0F0FF"/>
<stop offset="1" stop-color="#9CB1EC"/>
</linearGradient>
<linearGradient id="paint11_linear_497_909" x1="24.5333" y1="4.26981" x2="44.8854" y2="48.1861" gradientUnits="userSpaceOnUse">
<stop offset="5.3e-07" stop-color="#E0F0FF"/>
<stop offset="1" stop-color="#9CB1EC"/>
</linearGradient>
<linearGradient id="paint12_linear_497_909" x1="27.2891" y1="2.99304" x2="47.6412" y2="46.9089" gradientUnits="userSpaceOnUse">
<stop offset="5.3e-07" stop-color="#E0F0FF"/>
<stop offset="1" stop-color="#9CB1EC"/>
</linearGradient>
<linearGradient id="paint13_linear_497_909" x1="76.2191" y1="-0.343035" x2="98.1977" y2="91.8083" gradientUnits="userSpaceOnUse">
<stop offset="5.3e-07" stop-color="#E0F0FF"/>
<stop offset="1" stop-color="#9CB1EC"/>
</linearGradient>
<linearGradient id="paint14_linear_497_909" x1="53.7581" y1="87.6583" x2="222.63" y2="317.454" gradientUnits="userSpaceOnUse">
<stop offset="5.3e-07" stop-color="#E0F0FF"/>
<stop offset="1" stop-color="#9CB1EC"/>
</linearGradient>
<linearGradient id="paint15_linear_497_909" x1="63.784" y1="80.2901" x2="232.656" y2="310.086" gradientUnits="userSpaceOnUse">
<stop offset="5.3e-07" stop-color="#E0F0FF"/>
<stop offset="1" stop-color="#9CB1EC"/>
</linearGradient>
<linearGradient id="paint16_linear_497_909" x1="73.8101" y1="72.9219" x2="242.682" y2="302.717" gradientUnits="userSpaceOnUse">
<stop offset="5.3e-07" stop-color="#E0F0FF"/>
<stop offset="1" stop-color="#9CB1EC"/>
</linearGradient>
<linearGradient id="paint17_linear_497_909" x1="83.8359" y1="65.5537" x2="252.708" y2="295.35" gradientUnits="userSpaceOnUse">
<stop offset="5.3e-07" stop-color="#E0F0FF"/>
<stop offset="1" stop-color="#9CB1EC"/>
</linearGradient>
<linearGradient id="paint18_linear_497_909" x1="93.8618" y1="58.1854" x2="262.733" y2="287.981" gradientUnits="userSpaceOnUse">
<stop offset="5.3e-07" stop-color="#E0F0FF"/>
<stop offset="1" stop-color="#9CB1EC"/>
</linearGradient>
<linearGradient id="paint19_linear_497_909" x1="103.888" y1="50.8173" x2="272.76" y2="280.613" gradientUnits="userSpaceOnUse">
<stop offset="5.3e-07" stop-color="#E0F0FF"/>
<stop offset="1" stop-color="#9CB1EC"/>
</linearGradient>
<linearGradient id="paint20_linear_497_909" x1="113.914" y1="43.449" x2="282.786" y2="273.245" gradientUnits="userSpaceOnUse">
<stop offset="5.3e-07" stop-color="#E0F0FF"/>
<stop offset="1" stop-color="#9CB1EC"/>
</linearGradient>
<linearGradient id="paint21_linear_497_909" x1="48.8187" y1="91.2882" x2="217.691" y2="321.084" gradientUnits="userSpaceOnUse">
<stop offset="5.3e-07" stop-color="#E0F0FF"/>
<stop offset="1" stop-color="#9CB1EC"/>
</linearGradient>
<linearGradient id="paint22_linear_497_909" x1="58.8445" y1="83.92" x2="227.716" y2="313.716" gradientUnits="userSpaceOnUse">
<stop offset="5.3e-07" stop-color="#E0F0FF"/>
<stop offset="1" stop-color="#9CB1EC"/>
</linearGradient>
<linearGradient id="paint23_linear_497_909" x1="68.8708" y1="76.5517" x2="237.743" y2="306.348" gradientUnits="userSpaceOnUse">
<stop offset="5.3e-07" stop-color="#E0F0FF"/>
<stop offset="1" stop-color="#9CB1EC"/>
</linearGradient>
<linearGradient id="paint24_linear_497_909" x1="78.8967" y1="69.1835" x2="247.768" y2="298.979" gradientUnits="userSpaceOnUse">
<stop offset="5.3e-07" stop-color="#E0F0FF"/>
<stop offset="1" stop-color="#9CB1EC"/>
</linearGradient>
<linearGradient id="paint25_linear_497_909" x1="88.9224" y1="61.8153" x2="257.794" y2="291.611" gradientUnits="userSpaceOnUse">
<stop offset="5.3e-07" stop-color="#E0F0FF"/>
<stop offset="1" stop-color="#9CB1EC"/>
</linearGradient>
<linearGradient id="paint26_linear_497_909" x1="98.9487" y1="54.4471" x2="267.821" y2="284.243" gradientUnits="userSpaceOnUse">
<stop offset="5.3e-07" stop-color="#E0F0FF"/>
<stop offset="1" stop-color="#9CB1EC"/>
</linearGradient>
<linearGradient id="paint27_linear_497_909" x1="108.975" y1="47.0789" x2="277.846" y2="276.874" gradientUnits="userSpaceOnUse">
<stop offset="5.3e-07" stop-color="#E0F0FF"/>
<stop offset="1" stop-color="#9CB1EC"/>
</linearGradient>
<linearGradient id="paint28_linear_497_909" x1="43.8804" y1="94.918" x2="212.752" y2="324.714" gradientUnits="userSpaceOnUse">
<stop offset="5.3e-07" stop-color="#E0F0FF"/>
<stop offset="1" stop-color="#9CB1EC"/>
</linearGradient>
<linearGradient id="paint29_linear_497_909" x1="53.9061" y1="87.5497" x2="222.778" y2="317.346" gradientUnits="userSpaceOnUse">
<stop offset="5.3e-07" stop-color="#E0F0FF"/>
<stop offset="1" stop-color="#9CB1EC"/>
</linearGradient>
<linearGradient id="paint30_linear_497_909" x1="51.1317" y1="51.9353" x2="69.7601" y2="104.095" gradientUnits="userSpaceOnUse">
<stop stop-color="#D4B6FF"/>
<stop offset="1" stop-color="#7D35F0"/>
</linearGradient>
<linearGradient id="paint31_linear_497_909" x1="73.9582" y1="72.8134" x2="242.829" y2="302.609" gradientUnits="userSpaceOnUse">
<stop offset="5.3e-07" stop-color="#E0F0FF"/>
<stop offset="1" stop-color="#9CB1EC"/>
</linearGradient>
<linearGradient id="paint32_linear_497_909" x1="83.984" y1="65.4451" x2="252.856" y2="295.242" gradientUnits="userSpaceOnUse">
<stop offset="5.3e-07" stop-color="#E0F0FF"/>
<stop offset="1" stop-color="#9CB1EC"/>
</linearGradient>
<linearGradient id="paint33_linear_497_909" x1="94.0108" y1="58.0769" x2="262.883" y2="287.872" gradientUnits="userSpaceOnUse">
<stop offset="5.3e-07" stop-color="#E0F0FF"/>
<stop offset="1" stop-color="#9CB1EC"/>
</linearGradient>
<linearGradient id="paint34_linear_497_909" x1="104.036" y1="50.7087" x2="272.908" y2="280.505" gradientUnits="userSpaceOnUse">
<stop offset="5.3e-07" stop-color="#E0F0FF"/>
<stop offset="1" stop-color="#9CB1EC"/>
</linearGradient>
<linearGradient id="paint35_linear_497_909" x1="38.941" y1="98.5479" x2="207.813" y2="328.344" gradientUnits="userSpaceOnUse">
<stop offset="5.3e-07" stop-color="#E0F0FF"/>
<stop offset="1" stop-color="#9CB1EC"/>
</linearGradient>
<linearGradient id="paint36_linear_497_909" x1="48.9669" y1="91.1796" x2="217.839" y2="320.976" gradientUnits="userSpaceOnUse">
<stop offset="5.3e-07" stop-color="#E0F0FF"/>
<stop offset="1" stop-color="#9CB1EC"/>
</linearGradient>
<linearGradient id="paint37_linear_497_909" x1="58.9935" y1="83.8114" x2="227.865" y2="313.606" gradientUnits="userSpaceOnUse">
<stop offset="5.3e-07" stop-color="#E0F0FF"/>
<stop offset="1" stop-color="#9CB1EC"/>
</linearGradient>
<linearGradient id="paint38_linear_497_909" x1="69.0188" y1="76.4432" x2="237.891" y2="306.239" gradientUnits="userSpaceOnUse">
<stop offset="5.3e-07" stop-color="#E0F0FF"/>
<stop offset="1" stop-color="#9CB1EC"/>
</linearGradient>
<linearGradient id="paint39_linear_497_909" x1="79.0447" y1="69.0751" x2="247.916" y2="298.871" gradientUnits="userSpaceOnUse">
<stop offset="5.3e-07" stop-color="#E0F0FF"/>
<stop offset="1" stop-color="#9CB1EC"/>
</linearGradient>
<linearGradient id="paint40_linear_497_909" x1="89.0709" y1="61.7068" x2="257.943" y2="291.503" gradientUnits="userSpaceOnUse">
<stop offset="5.3e-07" stop-color="#E0F0FF"/>
<stop offset="1" stop-color="#9CB1EC"/>
</linearGradient>
<linearGradient id="paint41_linear_497_909" x1="99.0968" y1="54.3386" x2="267.968" y2="284.134" gradientUnits="userSpaceOnUse">
<stop offset="5.3e-07" stop-color="#E0F0FF"/>
<stop offset="1" stop-color="#9CB1EC"/>
</linearGradient>
<linearGradient id="paint42_linear_497_909" x1="28.5408" y1="7.05222" x2="29.9654" y2="18.1505" gradientUnits="userSpaceOnUse">
<stop stop-color="#2A3264"/>
<stop offset="1" stop-color="#4F61A5"/>
</linearGradient>
<linearGradient id="paint43_linear_497_909" x1="46.7351" y1="4.96397" x2="48.1597" y2="16.0623" gradientUnits="userSpaceOnUse">
<stop stop-color="#2A3264"/>
<stop offset="1" stop-color="#4F61A5"/>
</linearGradient>
<linearGradient id="paint44_linear_497_909" x1="64.9298" y1="2.87578" x2="66.3544" y2="13.9741" gradientUnits="userSpaceOnUse">
<stop stop-color="#2A3264"/>
<stop offset="1" stop-color="#4F61A5"/>
</linearGradient>
<linearGradient id="paint45_linear_497_909" x1="83.124" y1="0.787631" x2="84.5487" y2="11.886" gradientUnits="userSpaceOnUse">
<stop stop-color="#2A3264"/>
<stop offset="1" stop-color="#4F61A5"/>
</linearGradient>
<linearGradient id="paint46_linear_497_909" x1="101.318" y1="-1.30062" x2="102.743" y2="9.79772" gradientUnits="userSpaceOnUse">
<stop stop-color="#2A3264"/>
<stop offset="1" stop-color="#4F61A5"/>
</linearGradient>
<linearGradient id="paint47_linear_497_909" x1="170.291" y1="71.9209" x2="154.65" y2="203.636" gradientUnits="userSpaceOnUse">
<stop stop-color="#2A3264"/>
<stop offset="1" stop-color="#4F61A5"/>
</linearGradient>
<linearGradient id="paint48_linear_497_909" x1="153.187" y1="76.6163" x2="180.509" y2="228.748" gradientUnits="userSpaceOnUse">
<stop offset="2.7e-07" stop-color="#79D0FF"/>
<stop offset="1" stop-color="#0E3BF0"/>
</linearGradient>
<linearGradient id="paint49_linear_497_909" x1="143.235" y1="81.2493" x2="197.464" y2="190.95" gradientUnits="userSpaceOnUse">
<stop offset="2.7e-07" stop-color="#79D0FF"/>
<stop offset="1" stop-color="#0E3BF0"/>
</linearGradient>
<linearGradient id="paint50_linear_497_909" x1="114.301" y1="73.4372" x2="154.455" y2="165.958" gradientUnits="userSpaceOnUse">
<stop offset="2.7e-07" stop-color="#79D0FF"/>
<stop offset="1" stop-color="#0E3BF0"/>
</linearGradient>
<linearGradient id="paint51_linear_497_909" x1="110.15" y1="111.514" x2="170.537" y2="56.8707" gradientUnits="userSpaceOnUse">
<stop stop-color="#FFBFCD"/>
<stop offset="1" stop-color="#E16D90"/>
</linearGradient>
<linearGradient id="paint52_linear_497_909" x1="162.149" y1="64.0778" x2="163.08" y2="-28.1327" gradientUnits="userSpaceOnUse">
<stop stop-color="#2A3264"/>
<stop offset="1" stop-color="#4F61A5"/>
</linearGradient>
<linearGradient id="paint53_linear_497_909" x1="161.431" y1="62.6695" x2="156.93" y2="32.0879" gradientUnits="userSpaceOnUse">
<stop stop-color="#FFBFCD"/>
<stop offset="1" stop-color="#E16D90"/>
</linearGradient>
<linearGradient id="paint54_linear_497_909" x1="4.88578" y1="60.7101" x2="44.4193" y2="134.396" gradientUnits="userSpaceOnUse">
<stop stop-color="#7BFFB9"/>
<stop offset="1" stop-color="#0E9DFB"/>
</linearGradient>
<linearGradient id="paint55_linear_497_909" x1="54.3497" y1="118.56" x2="100.208" y2="206.33" gradientUnits="userSpaceOnUse">
<stop stop-color="#7BFFB9"/>
<stop offset="1" stop-color="#0E9DFB"/>
</linearGradient>
<linearGradient id="paint56_linear_497_909" x1="107.641" y1="130.296" x2="44.4581" y2="206.549" gradientUnits="userSpaceOnUse">
<stop stop-color="#7BFFB9"/>
<stop offset="1" stop-color="#0E9DFB"/>
</linearGradient>
<linearGradient id="paint57_linear_497_909" x1="82.3412" y1="97.5664" x2="78.926" y2="172.08" gradientUnits="userSpaceOnUse">
<stop stop-color="#7BFFB9"/>
<stop offset="1" stop-color="#0E9DFB"/>
</linearGradient>
<linearGradient id="paint58_linear_497_909" x1="66.0168" y1="183.313" x2="106.585" y2="112.111" gradientUnits="userSpaceOnUse">
<stop offset="5.3e-07" stop-color="#E0F0FF"/>
<stop offset="1" stop-color="#9CB1EC"/>
</linearGradient>
<linearGradient id="paint59_linear_497_909" x1="60.6632" y1="216.107" x2="110.96" y2="97.1957" gradientUnits="userSpaceOnUse">
<stop offset="5.3e-07" stop-color="#E0F0FF"/>
<stop offset="1" stop-color="#9CB1EC"/>
</linearGradient>
<linearGradient id="paint60_linear_497_909" x1="74.6161" y1="194.682" x2="79.9978" y2="162.6" gradientUnits="userSpaceOnUse">
<stop offset="5.3e-07" stop-color="#E0F0FF"/>
<stop offset="1" stop-color="#9CB1EC"/>
</linearGradient>
<linearGradient id="paint61_linear_497_909" x1="28.6068" y1="139.046" x2="82.0082" y2="31.4158" gradientUnits="userSpaceOnUse">
<stop offset="0.014" stop-color="#FFB8A4"/>
<stop offset="0.9911" stop-color="#F54F6E"/>
</linearGradient>
<linearGradient id="paint62_linear_497_909" x1="193.684" y1="165.212" x2="26.0674" y2="218.649" gradientUnits="userSpaceOnUse">
<stop stop-color="#D4B6FF"/>
<stop offset="1" stop-color="#7D35F0"/>
</linearGradient>
<linearGradient id="paint63_linear_497_909" x1="120.562" y1="192.528" x2="99.2428" y2="89.8565" gradientUnits="userSpaceOnUse">
<stop stop-color="#D4B6FF"/>
<stop offset="1" stop-color="#7D35F0"/>
</linearGradient>
<linearGradient id="paint64_linear_497_909" x1="222.799" y1="139.213" x2="218.245" y2="23.3028" gradientUnits="userSpaceOnUse">
<stop offset="0.014" stop-color="#FFBAC0"/>
<stop offset="1" stop-color="#F54A8F"/>
</linearGradient>
</defs>
</svg>
