<svg width="16" height="17" viewBox="0 0 16 17" fill="none" xmlns="http://www.w3.org/2000/svg">
<path d="M9.69887 4.82916H6.30332C5.33621 4.82916 4.54688 5.61494 4.54688 6.58561V9.98116C4.54688 10.9483 5.33265 11.7376 6.30332 11.7376H9.69887C10.666 11.7376 11.4553 10.9518 11.4553 9.98116V6.58561C11.4518 5.61494 10.666 4.82916 9.69887 4.82916ZM7.99932 10.5536C6.74776 10.5536 5.72732 9.53316 5.72732 8.28161C5.72732 7.03005 6.74776 6.00961 7.99932 6.00961C9.25087 6.00961 10.2713 7.03005 10.2713 8.28161C10.2713 9.53316 9.25087 10.5536 7.99932 10.5536ZM10.3851 6.26205C10.1718 6.26205 10.0011 6.09138 10.0011 5.87805C10.0011 5.66472 10.1718 5.49405 10.3851 5.49405C10.5984 5.49405 10.7691 5.66472 10.7691 5.87805C10.7691 6.09138 10.5984 6.26205 10.3851 6.26205Z" fill="#667085"/>
<path d="M9.38113 8.29839C9.39028 7.53648 8.78004 6.91142 8.01813 6.90228C7.25623 6.89314 6.63117 7.50337 6.62202 8.26528C6.61288 9.02719 7.22312 9.65225 7.98502 9.66139C8.74693 9.67053 9.37199 9.0603 9.38113 8.29839Z" fill="#667085"/>
<path d="M8 0.281616C3.58044 0.281616 0 3.86206 0 8.28162C0 12.7012 3.58044 16.2816 8 16.2816C12.4196 16.2816 16 12.7012 16 8.28162C16 3.86206 12.4196 0.281616 8 0.281616ZM12.4444 9.98117C12.4444 11.4958 11.2142 12.7261 9.69956 12.7261H6.304C4.78933 12.7261 3.55911 11.4958 3.55911 9.98117V6.58562C3.55911 5.07095 4.78933 3.84073 6.304 3.84073H9.69956C11.2142 3.84073 12.4444 5.07095 12.4444 6.58562V9.98117Z" fill="#667085"/>
</svg>
