<svg width="16" height="17" viewBox="0 0 16 17" fill="none" xmlns="http://www.w3.org/2000/svg">
<g clip-path="url(#clip0_324_1426)">
<path d="M8 0.281616C3.5824 0.281616 0 3.86401 0 8.28162C0 12.6992 3.5824 16.2816 8 16.2816C12.4176 16.2816 16 12.6992 16 8.28162C16 3.86401 12.4176 0.281616 8 0.281616ZM5.67529 12.3754H3.72693V6.51367H5.67529V12.3754ZM4.70117 5.71326H4.68848C4.03467 5.71326 3.61182 5.26318 3.61182 4.70068C3.61182 4.12549 4.04761 3.68787 4.71411 3.68787C5.38062 3.68787 5.79077 4.12549 5.80347 4.70068C5.80347 5.26318 5.38062 5.71326 4.70117 5.71326ZM12.7007 12.3754H10.7526V9.2395C10.7526 8.45142 10.4705 7.91394 9.7655 7.91394C9.22729 7.91394 8.90674 8.27649 8.76587 8.62646C8.71436 8.75171 8.70178 8.92676 8.70178 9.10193V12.3754H6.75354C6.75354 12.3754 6.77905 7.0636 6.75354 6.51367H8.70178V7.34363C8.96069 6.94421 9.42395 6.3761 10.4576 6.3761C11.7395 6.3761 12.7007 7.21387 12.7007 9.01428V12.3754Z" fill="#667085"/>
</g>
<defs>
<clipPath id="clip0_324_1426">
<rect width="16" height="16" fill="white" transform="translate(0 0.281616)"/>
</clipPath>
</defs>
</svg>
