<svg width="180" height="170" viewBox="0 0 180 170" fill="none" xmlns="http://www.w3.org/2000/svg">
<g clip-path="url(#clip0_504_2420)">
<path d="M83.9552 169.327C130.322 169.327 167.91 131.495 167.91 84.8271C167.91 38.1591 130.322 0.327118 83.9552 0.327118C37.588 0.327118 0 38.1591 0 84.8271C0 131.495 37.588 169.327 83.9552 169.327Z" fill="url(#paint0_linear_504_2420)"/>
<path opacity="0.25" d="M145.314 27.1547C143.252 30.1387 140.891 32.92 138.253 35.4212C124.446 48.5356 106.935 53.5187 95.3635 59.4288C81.8155 66.3627 76.5287 71.0657 66.3198 86.324C53.2324 105.88 36.9115 104.026 25.9445 99.1776C17.1652 95.2858 9.43173 84.576 2.30273 65.1072C11.1204 27.9562 44.3379 0.327118 83.9552 0.327118C108.173 0.327118 129.991 10.6506 145.314 27.1547Z" fill="url(#paint1_linear_504_2420)"/>
<path opacity="0.25" d="M167.22 95.6817C161.923 137.227 126.662 169.327 83.9552 169.327C56.629 169.327 32.3443 156.174 17.0117 135.826C20.1301 135.064 23.1716 134.407 26.0405 133.818C44.9904 129.974 62.0885 121.264 61.5608 79.844C61.033 38.4246 97.3209 20.9451 120.013 27.9369C148.644 36.7635 143.213 63.5911 151.59 77.7388C156.214 85.5611 161.559 91.2201 167.22 95.6817Z" fill="url(#paint2_linear_504_2420)"/>
<path d="M24.3525 140.027C24.3525 140.027 24.9378 136.155 32.4218 135.122C39.9058 134.079 46.8717 125.735 59.2203 126.942C71.569 128.149 81.8163 135.759 95.8632 133.422C109.92 131.094 118.718 134.059 121.875 136.406C125.032 138.743 138.071 135.855 139.04 140.143L24.3525 140.027Z" fill="#A8D29F"/>
<path d="M55.1231 47.8209C55.1231 47.8209 46.67 47.4057 51.1604 73.3254C51.1604 73.3254 54.1732 82.1231 50.3736 87.7918H106.408V47.8209H55.1231Z" fill="#AFCDFB"/>
<path d="M60.8796 115.208C60.8796 115.208 56.9649 110.612 60.6397 107.695C60.6397 107.695 63.3263 106.063 65.5139 106.189C65.5139 106.189 62.4148 111.423 63.4126 111.944C64.4201 112.466 66.4542 105.86 66.4542 105.86C66.4542 105.86 72.5566 105.262 74.5235 106.218C74.5235 106.218 69.3039 110.515 70.4073 110.776C71.5107 111.037 77.1429 106.816 77.1429 106.816C77.1429 106.816 82.8231 107.792 82.5256 111.278C82.2186 114.764 80.2613 115.846 79.4073 115.749C78.5438 115.653 73.5161 113.721 73.4009 114.436C73.2954 115.141 76.3178 117.468 78.4478 117.574C78.4478 117.574 74.4372 122.026 71.7794 120.742C69.1216 119.458 68.8913 117.42 67.2314 116.657C65.5715 115.894 64.1514 115.894 64.8423 116.676C65.5235 117.459 68.5363 118.212 69.4766 119.902C70.4265 121.592 71.2804 122.731 68.5267 122.316C65.773 121.901 61.2922 119.873 61.1003 117.546C60.8796 115.208 60.8796 115.208 60.8796 115.208Z" fill="#599DAD"/>
<path d="M79.7237 111.365C79.7237 111.365 64.2855 110.766 60.8793 115.208C60.8793 115.208 60.1213 117.478 57.8089 119.554L57.4443 120.549C57.4443 120.549 60.1213 117.71 61.0808 117.536C61.0808 117.536 59.584 112.031 79.7237 111.365Z" fill="#599DAD"/>
<path d="M57.8091 119.554C57.8091 119.554 54.4988 122.017 54.2686 126.43L54.873 126.488C54.873 126.488 55.9285 121.93 57.8475 120.153C59.7472 118.357 57.8091 119.554 57.8091 119.554Z" fill="#599DAD"/>
<path d="M47.1974 109.433C47.1974 109.433 53.4245 105.928 50.5173 101.157C50.5173 101.157 48.1953 98.2312 45.7006 97.4779C45.7006 97.4779 47.0247 104.586 45.7006 104.75C44.3765 104.914 44.7891 96.7247 44.7891 96.7247C44.7891 96.7247 38.2262 93.5475 35.6548 93.7986C35.6548 93.7986 39.723 100.732 38.3989 100.568C37.0748 100.404 32.5077 93.3833 32.5077 93.3833C32.5077 93.3833 25.7816 92.1279 24.707 96.1453C23.6228 100.153 25.3691 102.162 26.3669 102.413C27.3648 102.664 33.755 102.577 33.5919 103.417C33.4288 104.257 29.1111 105.59 26.7028 104.837C26.7028 104.837 29.3605 111.442 32.8435 111.104C36.3264 110.766 37.4106 108.593 39.5695 108.429C41.7283 108.265 43.3019 108.844 42.2273 109.433C41.1431 110.023 37.497 109.627 35.7507 111.114C34.0045 112.611 32.594 113.528 35.8371 114.194C39.0802 114.861 44.8851 114.446 46.046 111.935C47.1974 109.433 47.1974 109.433 47.1974 109.433Z" fill="#6BB7BF"/>
<path d="M27.7676 97.391C27.7676 97.391 45.2015 103.069 47.1972 109.424C47.1972 109.424 47.1109 112.263 48.8571 115.527V116.783C48.8571 116.783 47.0341 112.524 46.0362 111.935C46.0266 111.935 49.9318 106.42 27.7676 97.391Z" fill="#6BB7BF"/>
<path d="M48.8576 115.527C48.8576 115.527 51.5441 119.641 50.009 124.643L49.3181 124.46C49.3181 124.46 49.9898 118.946 48.5793 116.174C47.1785 113.403 48.8576 115.527 48.8576 115.527Z" fill="#6BB7BF"/>
<path d="M57.0989 104.586C57.0989 104.586 48.8857 99.9598 52.7236 93.6827C52.7236 93.6827 55.7844 89.8295 59.0755 88.8348C59.0755 88.8348 57.3196 98.2022 59.0755 98.4147C60.8313 98.6368 60.2748 87.8401 60.2748 87.8401C60.2748 87.8401 68.9198 83.6489 72.3164 83.9869C72.3164 83.9869 66.9529 93.1322 68.7087 92.9101C70.4646 92.688 76.4806 83.4365 76.4806 83.4365C76.4806 83.4365 85.3462 81.7851 86.7663 87.0676C88.1863 92.3597 85.8932 94.9961 84.5787 95.3341C83.2642 95.6624 74.8398 95.5562 75.0605 96.6571C75.2812 97.758 80.971 99.5253 84.1469 98.5306C84.1469 98.5306 80.6447 107.232 76.0488 106.797C71.4529 106.353 70.0328 103.494 67.1831 103.272C64.3335 103.05 62.261 103.823 63.681 104.595C65.101 105.368 69.9177 104.846 72.2204 106.816C74.5232 108.786 76.375 109.994 72.1149 110.872C67.8452 111.751 60.1885 111.201 58.6533 107.898C57.0989 104.586 57.0989 104.586 57.0989 104.586Z" fill="#86D1CD"/>
<path d="M82.7173 88.7286C82.7173 88.7286 59.7279 96.2225 57.1085 104.595C57.1085 104.595 57.2141 108.342 54.9209 112.64V114.291C54.9209 114.291 57.3292 108.671 58.6437 107.898C58.6341 107.898 53.4913 100.626 82.7173 88.7286Z" fill="#6BB7BF"/>
<path d="M54.9113 112.63C54.9113 112.63 51.3708 118.048 53.3857 124.643L54.2972 124.392C54.2972 124.392 53.4145 117.13 55.2663 113.47C57.1277 109.829 54.9113 112.63 54.9113 112.63Z" fill="#6BB7BF"/>
<path d="M56.8213 138.946C65.7061 138.946 72.9023 131.703 72.9023 122.76H40.7402C40.7402 131.703 47.946 138.946 56.8213 138.946Z" fill="#EFCBAB"/>
<path d="M60.7838 138.82C60.1313 138.907 59.4597 138.946 58.7881 138.946C49.9032 138.946 42.707 131.703 42.707 122.76H46.6985C46.6985 131.017 52.8392 137.835 60.7838 138.82Z" fill="#FFEBDC"/>
<path d="M73.1229 139.767H40.5195C40.5195 138.666 41.4119 137.768 42.5057 137.768H71.1464C72.2402 137.777 73.1229 138.666 73.1229 139.767Z" fill="#EFCBAB"/>
<path d="M73.2663 122.76H40.2119V123.253H73.2663V122.76Z" fill="#EFCDAF"/>
<path d="M115.015 61.225C115.015 61.225 112.194 55.875 116.416 53.8373C116.416 53.8373 119.39 52.833 121.491 53.451C121.491 53.451 117.327 57.874 118.191 58.5983C119.054 59.3322 122.48 53.3351 122.48 53.3351C122.48 53.3351 128.563 54.0981 130.28 55.4597C130.28 55.4597 124.245 58.5017 125.262 58.9942C126.279 59.4867 132.698 56.6186 132.698 56.6186C132.698 56.6186 138.033 58.8204 136.977 62.1618C135.922 65.5031 133.773 66.1212 132.957 65.8411C132.142 65.5611 127.651 62.5577 127.382 63.2337C127.123 63.9001 129.57 66.8358 131.614 67.4056C131.614 67.4056 126.74 70.8629 124.418 69.0183C122.096 67.1738 122.326 65.1458 120.868 64.0353C119.419 62.9247 118.027 62.6157 118.526 63.5234C119.025 64.4312 121.789 65.8315 122.345 67.6953C122.902 69.5495 123.487 70.8532 120.887 69.8392C118.287 68.8252 114.362 65.8508 114.679 63.5427C115.015 61.225 115.015 61.225 115.015 61.225Z" fill="#599DAD"/>
<path d="M134.243 61.6306C134.243 61.6306 119.313 57.6326 115.014 61.2154C115.014 61.2154 113.786 63.2627 111.071 64.7692L110.505 65.6576C110.505 65.6576 113.738 63.4751 114.707 63.5234C114.698 63.5331 114.439 57.8354 134.243 61.6306Z" fill="#599DAD"/>
<path d="M111.071 64.7788C111.071 64.7788 107.3 66.4495 106.11 70.6987L106.686 70.8822C106.686 70.8822 108.711 66.6716 110.965 65.3583C113.22 64.0449 111.071 64.7788 111.071 64.7788Z" fill="#599DAD"/>
<path d="M96.4674 51.5679C96.4674 51.5679 88.1295 47.1932 91.7659 40.8002C91.7659 40.8002 94.7115 36.8504 97.9642 35.7688C97.9642 35.7688 96.4866 45.1845 98.2521 45.3487C100.018 45.5129 99.1444 34.7452 99.1444 34.7452C99.1444 34.7452 107.665 30.3029 111.061 30.5346C111.061 30.5346 105.966 39.8345 107.713 39.5641C109.459 39.2937 115.197 29.8586 115.197 29.8586C115.197 29.8586 124.014 27.9369 125.588 33.1807C127.171 38.4245 124.945 41.1382 123.64 41.5052C122.335 41.8721 113.911 42.017 114.16 43.1082C114.41 44.1995 120.157 45.7929 123.295 44.7113C123.295 44.7113 120.052 53.5186 115.446 53.2096C110.841 52.9102 109.334 50.0904 106.484 49.9552C103.635 49.82 101.581 50.6505 103.021 51.3844C104.47 52.1087 109.267 51.452 111.618 53.3448C113.978 55.2376 115.868 56.3965 111.627 57.4105C107.386 58.4148 99.7105 58.0961 98.0793 54.8417C96.4674 51.5679 96.4674 51.5679 96.4674 51.5679Z" fill="#86D1CD"/>
<path d="M121.596 34.948C121.596 34.948 98.8372 43.1276 96.4673 51.5679C96.4673 51.5679 96.688 55.3052 94.5195 59.6703L94.5675 61.3216C94.5675 61.3216 96.8127 55.6336 98.0984 54.8224C98.0984 54.832 92.7349 47.7147 121.596 34.948Z" fill="#6BB7BF"/>
<path d="M94.5195 59.6799C94.5195 59.6799 91.1325 65.2038 93.349 71.732L94.2509 71.4616C94.2509 71.4616 93.1475 64.2284 94.8937 60.5201C96.64 56.8118 94.5195 59.6799 94.5195 59.6799Z" fill="#6BB7BF"/>
<path d="M117.192 63.1661H58.6826V139.96H117.192V63.1661Z" fill="#9ABCEF"/>
<path d="M118.113 63.1661H60.5918V139.96H118.113V63.1661Z" fill="#E9F3FE"/>
<path d="M158.671 139.767H147.081C146.457 139.235 147.512 138.028 148.606 137.951C149.086 137.912 149.69 138.019 150.372 138.164C150.535 136.029 151.446 126.449 154.872 126.826C158.729 127.261 154.872 131.046 153.778 133.296C152.972 134.957 152.118 137.343 151.724 138.463C152.041 138.53 152.358 138.598 152.694 138.656C153.202 137.072 155.111 131.761 157.529 132.07C160.369 132.437 159.228 134.561 157.213 135.826C155.735 136.754 153.922 138.077 153.058 138.724C153.787 138.84 154.555 138.926 155.323 138.907C157.328 138.868 158.297 139.458 158.671 139.767Z" fill="#A8D29F"/>
<path d="M118.114 63.1661H60.5926C60.9092 58.7915 60.4294 55.6046 59.6619 53.3255C58.1842 48.9315 55.6416 47.8306 55.6416 47.8306H109.891C114.525 47.8306 118.114 50.6408 119.093 54.3685C119.131 54.5133 119.16 54.6485 119.189 54.7837C120.119 59.0425 118.152 63.0889 118.114 63.1661Z" fill="#E9F3FE"/>
<path d="M118.113 63.1661H60.5918C60.9085 58.7914 60.4287 55.6046 59.6611 53.3255C65.5428 54.4071 80.0982 56.7152 95.6803 56.3289C105.765 56.0778 113.728 55.4018 119.188 54.7837C120.118 59.0425 118.152 63.0889 118.113 63.1661Z" fill="#D8E8FD"/>
<path d="M102.771 80.8677H72.5565C72.1631 80.8677 71.8369 80.5393 71.8369 80.1434C71.8369 79.7474 72.1631 79.4191 72.5565 79.4191H102.771C103.164 79.4191 103.49 79.7474 103.49 80.1434C103.49 80.549 103.164 80.8677 102.771 80.8677Z" fill="#BBD5FC"/>
<path d="M90.9789 83.2916H72.4224C72.1057 83.2916 71.8467 83.0309 71.8467 82.7122V82.4418C71.8467 82.1231 72.1057 81.8624 72.4224 81.8624H90.9789C91.2955 81.8624 91.5546 82.1231 91.5546 82.4418V82.7122C91.5642 83.0309 91.3051 83.2916 90.9789 83.2916Z" fill="#BBD5FC"/>
<path d="M68.9106 83.06V80.1146H68.5268C68.2965 80.1146 68.1718 80.018 68.1718 79.8249C68.1718 79.68 68.2677 79.5835 68.45 79.5255C68.546 79.4965 68.6899 79.4676 68.901 79.4579C69.1025 79.4386 69.2656 79.4386 69.3903 79.4386C69.5151 79.4386 69.5918 79.4676 69.6206 79.5159C69.6494 79.5641 69.6686 79.6897 69.6686 79.8925V83.0793H70.062C70.321 83.0793 70.4458 83.1952 70.4458 83.4173C70.4458 83.6491 70.321 83.7747 70.062 83.7747H68.4596C68.3445 83.7747 68.2485 83.7457 68.1718 83.6877C68.095 83.6298 68.0566 83.5429 68.0566 83.427C68.0566 83.1952 68.191 83.089 68.45 83.089H68.9106V83.06Z" fill="#BBD5FC"/>
<path d="M102.772 96.0391H72.5575C72.1641 96.0391 71.8379 95.7107 71.8379 95.3148C71.8379 94.9188 72.1641 94.5905 72.5575 94.5905H102.772C103.165 94.5905 103.491 94.9188 103.491 95.3148C103.491 95.7107 103.165 96.0391 102.772 96.0391Z" fill="#D2E4FD"/>
<path d="M90.9789 98.463H72.4224C72.1057 98.463 71.8467 98.2023 71.8467 97.8836V97.6132C71.8467 97.2945 72.1057 97.0338 72.4224 97.0338H90.9789C91.2955 97.0338 91.5546 97.2945 91.5546 97.6132V97.8836C91.5642 98.2023 91.3051 98.463 90.9789 98.463Z" fill="#D2E4FD"/>
<path d="M70.5038 98.1636C70.5038 98.3568 70.3695 98.4533 70.0912 98.4533H68.3929C68.1531 98.4533 68.0283 98.3568 68.0283 98.154C68.0283 98.096 68.0571 98.0188 68.1243 97.9319C68.2202 97.8256 68.3641 97.6518 68.5464 97.4297C68.8247 97.0724 69.0646 96.7633 69.2565 96.5026C69.3236 96.4157 69.41 96.2805 69.5347 96.1066C69.6307 95.9328 69.6882 95.7783 69.6882 95.6624C69.6882 95.5272 69.6499 95.4113 69.5635 95.3244C69.4771 95.2375 69.3716 95.1892 69.2373 95.1892C69.1029 95.1892 68.9974 95.2278 68.8919 95.3148C68.8247 95.3727 68.7767 95.4789 68.7383 95.6238C68.6904 95.8169 68.6616 95.9328 68.6424 95.9715C68.5944 96.0777 68.5081 96.1356 68.3929 96.1356C68.2874 96.1356 68.2106 96.097 68.1531 96.0197C68.0955 95.9521 68.0667 95.8652 68.0667 95.759C68.0667 95.6335 68.0859 95.5176 68.1243 95.392C68.2106 95.1216 68.3545 94.9188 68.5656 94.774C68.7671 94.6388 69.007 94.5712 69.2948 94.5712C69.6115 94.5712 69.8705 94.6677 70.0816 94.8609C70.3023 95.0637 70.4079 95.3148 70.4079 95.6335C70.4079 95.8652 70.3311 96.1066 70.1776 96.3481C70.0912 96.4833 69.9185 96.7247 69.6499 97.0627C69.5155 97.2365 69.2948 97.4973 68.9974 97.8353H70.1104C70.3695 97.8643 70.5038 97.9608 70.5038 98.1636Z" fill="#D2E4FD"/>
<path d="M102.772 108.69H72.5575C72.1641 108.69 71.8379 108.362 71.8379 107.966C71.8379 107.57 72.1641 107.241 72.5575 107.241H102.772C103.165 107.241 103.491 107.57 103.491 107.966C103.491 108.371 103.165 108.69 102.772 108.69Z" fill="#D2E4FD"/>
<path d="M90.9789 111.114H72.4224C72.1057 111.114 71.8467 110.853 71.8467 110.534V110.264C71.8467 109.945 72.1057 109.685 72.4224 109.685H90.9789C91.2955 109.685 91.5546 109.945 91.5546 110.264V110.534C91.5642 110.853 91.3051 111.114 90.9789 111.114Z" fill="#D2E4FD"/>
<path d="M70.5037 109.907C70.5037 110.274 70.379 110.573 70.12 110.795C69.8801 111.008 69.573 111.114 69.1988 111.114C68.911 111.114 68.6615 111.046 68.46 110.911C68.1338 110.689 67.9707 110.428 67.9707 110.119C67.9707 110.032 67.9995 109.955 68.0571 109.887C68.1146 109.82 68.1818 109.791 68.2777 109.791C68.3737 109.791 68.46 109.849 68.5368 109.974C68.6711 110.177 68.7383 110.293 68.7671 110.312C68.8822 110.438 69.0357 110.496 69.218 110.496C69.4675 110.496 69.6402 110.399 69.7458 110.216C69.7937 110.119 69.8225 110.003 69.8225 109.868C69.8225 109.52 69.621 109.327 69.218 109.289C68.9878 109.269 68.8726 109.173 68.8726 108.999C68.8726 108.873 68.9398 108.777 69.0741 108.729C69.3236 108.632 69.4483 108.593 69.4483 108.584C69.5826 108.497 69.6498 108.342 69.6498 108.12C69.6498 107.985 69.6114 107.888 69.5347 107.811C69.4579 107.734 69.3524 107.695 69.2276 107.695C69.0645 107.695 68.9398 107.734 68.8534 107.811C68.7767 107.879 68.7095 107.995 68.6615 108.159C68.6232 108.284 68.5368 108.342 68.4217 108.342C68.3353 108.342 68.2681 108.304 68.2106 108.226C68.153 108.149 68.1242 108.072 68.1242 107.985C68.1242 107.879 68.153 107.763 68.2106 107.657C68.3065 107.473 68.46 107.328 68.6615 107.222C68.8438 107.125 69.0549 107.077 69.2756 107.077C69.573 107.077 69.8225 107.164 70.024 107.348C70.2255 107.531 70.3214 107.772 70.3214 108.072C70.3214 108.429 70.1775 108.709 69.8801 108.922C70.2927 109.105 70.5037 109.433 70.5037 109.907Z" fill="#D2E4FD"/>
<path d="M99.1923 68.2651H80.5303C80.1081 68.2651 79.7627 67.9175 79.7627 67.4926V67.3573C79.7627 66.9324 80.1081 66.5848 80.5303 66.5848H99.1923C99.6145 66.5848 99.9599 66.9324 99.9599 67.3573V67.4926C99.9599 67.9175 99.6145 68.2651 99.1923 68.2651Z" fill="#BBD5FC"/>
<path d="M104.22 70.8436H75.5125C75.0519 70.8436 74.6777 70.467 74.6777 70.0034C74.6777 69.5399 75.0519 69.1632 75.5125 69.1632H104.211C104.671 69.1632 105.046 69.5399 105.046 70.0034C105.046 70.467 104.671 70.8436 104.22 70.8436Z" fill="#BBD5FC"/>
<path d="M87.6398 88.6417C81.3743 88.6417 75.4255 87.8498 70.9926 86.7199C66.5118 85.5804 64.1035 83.7069 64.1035 82.0555C64.1035 80.5587 66.0705 79.1777 69.7933 78.0575C66.224 79.1197 64.3242 80.6842 64.3242 82.0555C64.3242 83.5717 66.7997 85.0685 71.1078 86.1695C75.5214 87.2993 81.4031 87.9174 87.6494 87.9174C93.8956 87.9174 99.7773 87.2993 104.191 86.1695C108.499 85.0685 110.975 83.5717 110.975 82.0555C110.975 80.4524 108.374 78.4534 104.181 76.8503C99.4223 75.0251 93.5502 74.3491 87.6494 74.3491C76.5769 74.3491 72.0193 75.6528 68.0662 77.2849C72.0385 75.6432 76.5385 73.789 87.6494 73.789C93.5694 73.789 99.4703 74.803 104.249 76.6282C108.528 78.2699 111.186 80.3462 111.186 82.0555C111.186 83.7165 108.72 85.252 104.239 86.4012C99.7965 87.5215 93.9052 88.6417 87.6398 88.6417Z" fill="#C65447"/>
<path d="M125.693 103.427C125.693 103.427 125.482 105.445 125.262 105.831C125.031 106.218 124.072 107.434 123.659 107.676C123.247 107.917 123.909 106.063 123.822 105.706C123.736 105.349 123.486 106.363 123.304 106.382C123.122 106.401 123.17 105.493 123.16 105.155C123.151 104.827 124.043 104.006 124.35 103.292C124.667 102.587 125.693 103.427 125.693 103.427Z" fill="#FFB27D"/>
<path d="M101.044 84.7981L100.583 83.9193C100.583 83.9193 100.814 82.3549 98.866 81.3699C98.866 81.3699 98.156 81.0801 97.753 81.6596C97.3884 82.2004 98.4534 82.1038 98.3958 83.0212C98.3383 83.9387 98.77 84.4795 99.3745 84.7788L99.8734 85.3583L101.044 84.7981Z" fill="#FFB27D"/>
<path d="M119.399 82.7122C119.399 82.7122 117.73 90.9497 108.557 93.6441C105.688 94.4842 99.1826 84.9913 99.1826 84.9913C99.1826 84.9913 99.4129 84.1125 100.843 84.3153C100.843 84.3153 107.185 88.5354 107.981 88.999C108.691 89.4046 113.345 83.7648 115.465 82.857C117.586 81.9396 119.399 82.7122 119.399 82.7122Z" fill="#E58638"/>
<path d="M94.9746 81.0813L94.7139 82.7899L103.24 84.1078L103.5 82.3992L94.9746 81.0813Z" fill="#C65447"/>
<path d="M92.8594 81.6307L94.7112 82.7895L94.9702 81.0899L92.8594 81.6307Z" fill="#FFB27D"/>
<path d="M104.402 83.1274L104.316 83.6682C104.268 83.9966 103.961 84.2284 103.625 84.1801L103.231 84.1221L103.491 82.4128L103.922 82.4804C104.239 82.519 104.45 82.8088 104.402 83.1274Z" fill="#FFB27D"/>
<path d="M130.356 134.503C130.356 134.503 131.498 135.546 131.277 136.29C131.057 137.034 130.03 137.526 129.886 138.434C129.752 139.342 129.195 139.834 128.696 139.834C128.197 139.834 126.317 139.834 126.317 139.834C126.317 139.834 125.952 139.197 126.835 139.004C127.727 138.811 128.063 137.748 128.005 136.754C127.948 135.759 128.092 134.445 128.092 134.445L129.982 134.001L130.356 134.503Z" fill="#233862"/>
<path d="M116.386 137.207C116.386 137.207 116.587 139.583 116.088 139.834L109.688 139.825C109.688 139.825 109.688 139.081 110.715 138.917C111.742 138.753 113.546 138.144 113.853 136.802C114.169 135.45 116.386 137.207 116.386 137.207Z" fill="#233862"/>
<path d="M110.983 103.591C110.983 103.591 111.319 107.763 111.713 112.775C112.25 119.583 112.902 127.956 112.96 129.54C113.075 132.292 113.516 136.696 113.516 136.696C113.516 136.696 114.572 137.739 116.683 137.304C116.683 137.304 118.563 131.017 119.101 124.363C119.11 124.257 119.12 124.141 119.129 124.035C119.628 117.265 120.406 103.002 120.406 103.002L110.983 103.591Z" fill="#2B478B"/>
<path d="M110.983 103.591C110.983 103.591 111.319 107.763 111.713 112.775L119.101 124.363C119.11 124.257 119.12 124.141 119.129 124.035C119.628 117.265 120.406 103.002 120.406 103.002L110.983 103.591Z" fill="#233862"/>
<path d="M112.528 104.083C112.528 104.083 118.611 119.197 122.613 126.295C126.614 133.393 127.861 135.382 127.861 135.382C127.861 135.382 130.154 134.474 130.365 133.856C130.365 133.856 128.84 120.143 126.153 116.802C124.637 114.909 122.862 109.25 122.776 107.261C122.689 105.281 122.238 101.36 122.238 101.36L112.528 104.083Z" fill="#2B478B"/>
<path d="M120.531 80.7904C120.531 80.7904 116.415 82.7894 114.045 82.0458C114.045 82.0458 114.63 81.3022 115.647 80.7518C115.561 80.2689 115.503 79.8537 115.465 79.506C115.369 78.6948 115.369 78.2313 115.369 78.2313L116.952 76.9759L118.459 75.7687C118.343 79.1584 120.531 80.7904 120.531 80.7904Z" fill="#FFB27D"/>
<path d="M122.699 102.133C122.709 102.384 122.172 102.674 121.932 102.78C120.166 103.562 118.526 104.103 116.664 104.277C114.467 104.499 111.867 104.006 110.974 104.026C110.879 104.026 110.802 103.987 110.725 103.929C110.658 103.881 110.619 101.215 110.658 97.8643C110.658 97.7291 110.658 97.5939 110.667 97.4587V97.4104C110.687 96.097 110.735 94.7257 110.792 93.3544C110.917 90.3317 111.157 87.4249 111.56 85.8121C112.039 83.9097 113.143 82.6543 114.131 81.7465L114.956 81.0222C115.781 81.1864 116.645 81.1381 117.509 80.7132C118.458 80.2496 119.476 79.7571 119.648 79.8827C120.886 80.8001 121.73 82.8474 122.172 85.4741C122.431 86.9807 122.555 88.6707 122.546 90.4476C122.546 91.0946 122.527 91.7706 122.488 92.4273C122.268 96.0101 122.488 99.1197 122.613 100.916C122.661 101.437 122.69 101.843 122.699 102.133Z" fill="#EE9849"/>
<path d="M122.622 101.969C108.211 101.94 119.965 86.2274 119.965 86.2274L122.296 85.4645C122.478 87.0772 122.574 88.8831 122.565 90.7759C122.565 91.4712 122.555 92.1859 122.526 92.8908C122.373 96.7247 122.536 100.047 122.622 101.969Z" fill="#E58638"/>
<path d="M118.487 77.0724C118.487 77.0724 117.451 78.9845 115.465 79.5157C115.369 78.7045 115.369 78.2409 115.369 78.2409L116.952 76.9855L118.487 77.0724Z" fill="#ED985F"/>
<path d="M114.639 78.183C114.639 78.183 118.564 78.83 118.938 76.3964C119.302 73.9628 120.06 72.4177 117.566 71.8962C115.071 71.3843 114.447 72.2342 114.121 73.0164C113.805 73.7986 113.632 77.9512 114.639 78.183Z" fill="#FFB27D"/>
<path d="M120.359 71.6065C120.397 71.5678 120.474 71.5292 120.656 71.5196C120.656 71.5196 120.512 71.423 120.311 71.423C120.272 71.1622 120.138 70.718 119.697 70.6021C119.697 70.6021 119.937 70.7277 119.965 70.9981C119.457 70.4766 118.373 70.0903 115.36 70.3317C111.397 70.6504 112.702 73.1999 113.211 73.5089C113.729 73.818 115.014 72.9778 115.974 73.055C116.933 73.1323 117.116 74.5229 117.432 74.7161C117.758 74.9092 117.634 74.5712 118.066 74.3684C118.507 74.1656 118.545 74.8996 118.421 75.3728C118.296 75.846 118.9 76.4737 118.9 76.4737C118.9 76.4737 118.9 76.4737 119.514 75.817C120.128 75.1603 120.695 72.3597 120.426 71.761C120.407 71.7127 120.387 71.6644 120.359 71.6065Z" fill="#2C3A64"/>
<path d="M119.649 79.8537C119.649 79.8537 122.134 81.0415 123.323 82.857C125.175 85.6769 127.315 95.9714 127.353 96.9178C127.392 97.8739 125.789 104.595 125.789 104.595C125.789 104.595 124.168 104.489 123.746 103.659C123.746 103.659 124.072 96.744 123.861 96.2998C123.659 95.8556 117.087 87.0289 117.825 85.1458C118.564 83.2723 119.649 79.8537 119.649 79.8537Z" fill="#EE9849"/>
<path d="M100.574 83.8807C100.574 83.8807 100.708 83.3399 100.344 83.0985C99.9695 82.8571 99.6337 82.2004 99.4802 82.2873C99.1539 82.4708 99.6529 83.0405 99.5665 83.7552C99.5281 84.0159 100.104 84.6726 100.574 83.8807Z" fill="#FFB27D"/>
<path d="M40.2129 134.745C40.2129 134.745 34.3792 119.709 30.2822 122.104C26.1948 124.489 40.2129 134.745 40.2129 134.745Z" fill="#A8D29F"/>
<path d="M37.3343 134.745C37.3343 134.745 29.6296 128.043 26.1083 129.289C22.5774 130.525 37.3343 134.745 37.3343 134.745Z" fill="#A8D29F"/>
<path d="M118.948 136.908C118.948 136.908 120.723 130.689 122.805 131.423C124.887 132.157 118.948 136.908 118.948 136.908Z" fill="#A8D29F"/>
<path d="M120.569 136.57C120.569 136.57 125.108 133.576 126.096 134.503C127.094 135.421 120.569 136.57 120.569 136.57Z" fill="#A8D29F"/>
<path d="M105.074 123.263H69.6974C69.4575 123.263 69.2656 123.069 69.2656 122.828C69.2656 122.587 69.4575 122.393 69.6974 122.393H105.074C105.314 122.393 105.505 122.587 105.505 122.828C105.505 123.06 105.314 123.263 105.074 123.263Z" fill="#D2E4FD"/>
<path d="M105.074 124.991H69.6974C69.4575 124.991 69.2656 124.798 69.2656 124.557C69.2656 124.315 69.4575 124.122 69.6974 124.122H105.074C105.314 124.122 105.505 124.315 105.505 124.557C105.505 124.798 105.314 124.991 105.074 124.991Z" fill="#D2E4FD"/>
<path d="M105.074 126.913H69.6974C69.4575 126.913 69.2656 126.72 69.2656 126.478C69.2656 126.237 69.4575 126.044 69.6974 126.044H105.074C105.314 126.044 105.505 126.237 105.505 126.478C105.505 126.72 105.314 126.913 105.074 126.913Z" fill="#D2E4FD"/>
<path d="M100.401 128.835H69.6974C69.4575 128.835 69.2656 128.642 69.2656 128.4C69.2656 128.159 69.4575 127.966 69.6974 127.966H100.401C100.641 127.966 100.833 128.159 100.833 128.4C100.833 128.642 100.641 128.835 100.401 128.835Z" fill="#D2E4FD"/>
<path d="M179.818 140.143H4.43328C4.32774 140.143 4.25098 140.056 4.25098 139.96C4.25098 139.854 4.33733 139.776 4.43328 139.776H179.809C179.914 139.776 179.991 139.863 179.991 139.96C180 140.066 179.914 140.143 179.818 140.143Z" fill="#1C468A"/>
</g>
<defs>
<linearGradient id="paint0_linear_504_2420" x1="24.5899" y1="25.0766" x2="144.088" y2="143.805" gradientUnits="userSpaceOnUse">
<stop stop-color="#636284"/>
<stop offset="1" stop-color="#100F2E"/>
</linearGradient>
<linearGradient id="paint1_linear_504_2420" x1="2.3003" y1="51.359" x2="145.31" y2="51.359" gradientUnits="userSpaceOnUse">
<stop stop-color="#636284"/>
<stop offset="1" stop-color="#100F2E"/>
</linearGradient>
<linearGradient id="paint2_linear_504_2420" x1="167.222" y1="97.8845" x2="17.015" y2="97.8845" gradientUnits="userSpaceOnUse">
<stop stop-color="#636284"/>
<stop offset="1" stop-color="#100F2E"/>
</linearGradient>
<clipPath id="clip0_504_2420">
<rect width="180" height="169" fill="white" transform="translate(0 0.327118)"/>
</clipPath>
</defs>
</svg>
