<svg width="103" height="41" viewBox="0 0 103 41" fill="none" xmlns="http://www.w3.org/2000/svg">
<path d="M99.3647 16.3788C100.917 16.5392 102.134 16.6824 102.134 16.6824L99.3993 13.6708C99.4116 13.3746 99.4264 13.0932 99.4462 12.829C99.5696 11.3504 98.6365 10.0075 98.6735 12.871L89.9102 3.224L66.1828 0.656738L74.1956 9.79769C79.4338 1.57997 89.9102 9.84953 89.9102 9.84953C83.028 6.61329 79.6387 6.71697 76.9678 8.5659C74.0969 10.9011 71.6802 15.2087 76.2272 17.2403C81.1248 19.6397 87.6096 22.1699 92.8898 19.968L92.9416 16.0134C93.455 15.8431 96.2223 16.0653 98.5896 16.2998C98.7426 21.0937 97.6886 24.2855 97.6663 28.0993C97.6663 28.0993 99.5844 29.2645 100.473 28.0993C100.061 23.2956 99.2734 21.4516 99.3647 16.3788ZM91.4111 19.0127C91.1396 21.3948 74.1857 16.9638 75.1164 14.752C75.3879 12.3699 92.3442 16.8034 91.4111 19.0127Z" fill="#F37124"/>
<path d="M0.45177 37.8423H0.180196L0.123413 36.6375H0.508554L0.45177 37.8423ZM1.464 37.8423H1.19489L1.13811 36.6375H1.52325L1.464 37.8423Z" fill="#515251"/>
<path d="M2.37967 36.7338H2.76234V40.5655H2.37967V36.7338Z" fill="#515251"/>
<path d="M3.90027 37.7311H4.26566V38.2397C4.41132 38.0447 4.57179 37.899 4.74955 37.8027C4.92731 37.7065 5.11988 37.6571 5.32726 37.6571C5.53958 37.6571 5.72721 37.7114 5.89016 37.8176C6.0531 37.9262 6.17654 38.0694 6.25308 38.2521C6.33208 38.4348 6.36911 38.7187 6.36911 39.1038V40.5629H6.00372V39.2124C6.00372 38.8866 5.98891 38.6668 5.96422 38.5582C5.92225 38.3706 5.84078 38.2298 5.72228 38.136C5.6013 38.0422 5.44576 37.9953 5.25319 37.9953C5.03347 37.9953 4.83596 38.0694 4.66067 38.215C4.48538 38.3607 4.37182 38.5409 4.31503 38.7557C4.28047 38.8964 4.26319 39.1532 4.26319 39.526V40.5654H3.8978V37.7311H3.90027Z" fill="#515251"/>
<path d="M7.47226 37.7311H7.83765V38.2397C7.98331 38.0447 8.14378 37.899 8.32154 37.8027C8.4993 37.7065 8.69187 37.6571 8.89925 37.6571C9.11157 37.6571 9.2992 37.7114 9.46215 37.8176C9.62509 37.9262 9.74853 38.0694 9.82507 38.2521C9.90407 38.4348 9.9411 38.7187 9.9411 39.1038V40.5629H9.57571V39.2124C9.57571 38.8866 9.5609 38.6668 9.53621 38.5582C9.49424 38.3706 9.41277 38.2298 9.29427 38.136C9.17329 38.0422 9.01775 37.9953 8.82518 37.9953C8.60546 37.9953 8.40795 38.0694 8.23266 38.215C8.05737 38.3607 7.94381 38.5409 7.88702 38.7557C7.85246 38.8964 7.83518 39.1532 7.83518 39.526V40.5654H7.46979V37.7311H7.47226Z" fill="#515251"/>
<path d="M12.3848 37.6571C12.8218 37.6571 13.1823 37.8151 13.4711 38.1311C13.7328 38.4199 13.8612 38.7607 13.8612 39.1557C13.8612 39.5507 13.7229 39.8988 13.4489 40.1926C13.1724 40.4888 12.8193 40.637 12.3848 40.637C11.9503 40.637 11.5948 40.4888 11.3183 40.1926C11.0418 39.8963 10.9035 39.5507 10.9035 39.1557C10.9035 38.7631 11.0344 38.4224 11.2936 38.136C11.5849 37.8175 11.9478 37.6571 12.3848 37.6571ZM12.3848 38.0151C12.0811 38.0151 11.8219 38.1262 11.6022 38.3508C11.3849 38.5755 11.2763 38.8446 11.2763 39.1631C11.2763 39.368 11.3257 39.5581 11.4244 39.7358C11.5232 39.9136 11.659 40.0494 11.8269 40.1457C11.9947 40.242 12.1824 40.2913 12.3823 40.2913C12.5848 40.2913 12.77 40.242 12.9378 40.1457C13.1057 40.0494 13.2415 39.9136 13.3403 39.7358C13.439 39.5581 13.4884 39.368 13.4884 39.1631C13.4884 38.8446 13.3798 38.5755 13.16 38.3508C12.9452 38.1262 12.686 38.0151 12.3848 38.0151Z" fill="#515251"/>
<path d="M14.5888 37.731H14.9764L15.9269 39.7974L16.8675 37.731H17.2576L15.9615 40.5652H15.8948L14.5888 37.731Z" fill="#515251"/>
<path d="M20.9555 37.7311V40.5653H20.595V40.079C20.4419 40.2641 20.2716 40.4049 20.0815 40.4987C19.8914 40.5925 19.684 40.6394 19.4569 40.6394C19.0569 40.6394 18.7137 40.4937 18.4298 40.2024C18.1459 39.9111 18.0052 39.5581 18.0052 39.1408C18.0052 38.7335 18.1484 38.3829 18.4348 38.094C18.7212 37.8052 19.0668 37.6595 19.4692 37.6595C19.7013 37.6595 19.9111 37.7089 20.1012 37.8076C20.2889 37.9064 20.4543 38.0545 20.5975 38.252V37.7311H20.9555ZM19.4988 38.0101C19.2964 38.0101 19.1088 38.0595 18.9359 38.1607C18.7631 38.2594 18.6273 38.4002 18.5261 38.5804C18.4249 38.7606 18.373 38.9507 18.373 39.1532C18.373 39.3531 18.4249 39.5432 18.5261 39.7259C18.6273 39.9086 18.7656 40.0494 18.9384 40.1506C19.1112 40.2518 19.2964 40.3036 19.4939 40.3036C19.6939 40.3036 19.8815 40.2543 20.0617 40.153C20.2395 40.0518 20.3778 39.916 20.474 39.7457C20.5703 39.5729 20.6197 39.3803 20.6197 39.1655C20.6197 38.8372 20.5111 38.5631 20.2963 38.3434C20.079 38.1187 19.8124 38.0101 19.4988 38.0101Z" fill="#515251"/>
<path d="M22.4115 36.6795H22.7769V37.7313H23.3546V38.0473H22.7769V40.5655H22.4115V38.0473H21.9153V37.7313H22.4115V36.6795Z" fill="#515251"/>
<path d="M26.6082 39.6247L26.9144 39.7852C26.8132 39.9827 26.6971 40.1432 26.5638 40.2641C26.433 40.3851 26.2824 40.4789 26.1169 40.5407C25.9515 40.6049 25.7639 40.6369 25.5565 40.6369C25.0948 40.6369 24.7319 40.4863 24.4727 40.1827C24.211 39.879 24.0826 39.5383 24.0826 39.1556C24.0826 38.7952 24.1937 38.4767 24.4134 38.1953C24.6924 37.8373 25.0677 37.6595 25.5368 37.6595C26.0207 37.6595 26.4058 37.8422 26.6947 38.2101C26.8996 38.4693 27.0033 38.7927 27.0082 39.1779H24.4579C24.4653 39.5062 24.569 39.7778 24.7739 39.9876C24.9763 40.1975 25.2282 40.3036 25.5269 40.3036C25.6701 40.3036 25.8108 40.279 25.9491 40.2296C26.0848 40.1802 26.2009 40.1135 26.2972 40.0296C26.3935 39.9432 26.4971 39.8099 26.6082 39.6247ZM26.6082 38.8618C26.5589 38.6668 26.4897 38.5113 26.3959 38.3952C26.3021 38.2792 26.1811 38.1854 26.0281 38.1138C25.875 38.0422 25.7145 38.0076 25.5466 38.0076C25.2677 38.0076 25.0282 38.0965 24.8307 38.2767C24.685 38.4076 24.5739 38.6026 24.4998 38.8618H26.6082Z" fill="#515251"/>
<path d="M28.4099 39.9897C28.4988 39.9897 28.5729 40.0218 28.637 40.0835C28.6988 40.1452 28.7309 40.2218 28.7309 40.3131C28.7309 40.402 28.6988 40.4785 28.637 40.5402C28.5753 40.6044 28.4988 40.6365 28.4099 40.6365C28.321 40.6365 28.247 40.6044 28.1828 40.5402C28.1211 40.4761 28.089 40.402 28.089 40.3131C28.089 40.2218 28.1211 40.1477 28.1828 40.0835C28.2445 40.0218 28.321 39.9897 28.4099 39.9897Z" fill="#515251"/>
<path d="M31.6633 36.7338H33.8581V37.1091H32.046V38.309H33.8433V38.6842H32.046V40.1902H33.8433V40.5655H31.6633V36.7338Z" fill="#515251"/>
<path d="M37.6079 36.6375V40.5655H37.2475V40.0791C37.0944 40.2643 36.9241 40.405 36.734 40.4988C36.5439 40.5926 36.3365 40.6395 36.1093 40.6395C35.7094 40.6395 35.3662 40.4939 35.0823 40.2026C34.7984 39.9112 34.6577 39.5582 34.6577 39.141C34.6577 38.7336 34.8008 38.383 35.0872 38.0942C35.3736 37.8053 35.7193 37.6596 36.1217 37.6596C36.3538 37.6596 36.5636 37.709 36.7537 37.8078C36.9413 37.9065 37.1068 38.0547 37.2499 38.2522V36.6375H37.6079ZM36.1513 38.0102C35.9489 38.0102 35.7612 38.0596 35.5884 38.1608C35.4156 38.262 35.2798 38.4003 35.1786 38.5805C35.0774 38.7608 35.0255 38.9509 35.0255 39.1533C35.0255 39.3533 35.0774 39.5434 35.1786 39.7261C35.2798 39.9088 35.4181 40.0495 35.5909 40.1507C35.7637 40.2519 35.9489 40.3038 36.1464 40.3038C36.3463 40.3038 36.534 40.2544 36.7142 40.1532C36.892 40.052 37.0302 39.9162 37.1265 39.7458C37.2228 39.573 37.2697 39.3804 37.2697 39.1656C37.2697 38.8373 37.1611 38.5632 36.9463 38.3435C36.7315 38.1188 36.4673 38.0102 36.1513 38.0102Z" fill="#515251"/>
<path d="M38.706 37.7311H39.0714V39.0544C39.0714 39.3778 39.0886 39.6 39.1232 39.721C39.175 39.8938 39.2738 40.0321 39.4219 40.1333C39.5701 40.2345 39.7429 40.2839 39.9478 40.2839C40.1502 40.2839 40.3231 40.2345 40.4663 40.1358C40.607 40.037 40.7057 39.9087 40.76 39.7482C40.7971 39.6395 40.8144 39.4075 40.8144 39.052V37.7287H41.1872V39.1186C41.1872 39.5087 41.1427 39.8025 41.0514 40.0025C40.96 40.2 40.8242 40.3555 40.6391 40.4666C40.4564 40.5777 40.2268 40.6345 39.9503 40.6345C39.6738 40.6345 39.4442 40.5777 39.259 40.4666C39.0738 40.3555 38.9356 40.1975 38.8442 39.9975C38.7529 39.7976 38.7084 39.4964 38.7084 39.0915V37.7311H38.706Z" fill="#515251"/>
<path d="M45.0652 38.3187L44.7764 38.4989C44.527 38.1681 44.1863 38.0027 43.7543 38.0027C43.4086 38.0027 43.1222 38.1138 42.8951 38.336C42.668 38.5582 42.5519 38.8273 42.5519 39.1458C42.5519 39.3531 42.6038 39.5457 42.7099 39.7284C42.8161 39.9111 42.9593 40.0518 43.142 40.153C43.3247 40.2543 43.5296 40.3036 43.7567 40.3036C44.174 40.3036 44.5122 40.1382 44.7764 39.8074L45.0652 39.9975C44.9294 40.2024 44.7467 40.3604 44.5196 40.4715C44.2925 40.5851 44.0308 40.6394 43.7395 40.6394C43.2926 40.6394 42.9198 40.4962 42.626 40.2123C42.3322 39.9284 42.1841 39.5803 42.1841 39.1729C42.1841 38.8989 42.2532 38.6446 42.3915 38.4076C42.5297 38.173 42.7198 37.9879 42.9618 37.857C43.2037 37.7262 43.4728 37.6595 43.7715 37.6595C43.9592 37.6595 44.1394 37.6891 44.3147 37.7459C44.49 37.8027 44.6381 37.8768 44.7591 37.9706C44.8776 38.0595 44.9788 38.178 45.0652 38.3187Z" fill="#515251"/>
<path d="M48.9087 37.7311V40.5653H48.5482V40.079C48.3952 40.2641 48.2248 40.4049 48.0347 40.4987C47.8446 40.5925 47.6372 40.6394 47.4101 40.6394C47.0101 40.6394 46.667 40.4937 46.383 40.2024C46.0991 39.9111 45.9584 39.5581 45.9584 39.1408C45.9584 38.7335 46.1016 38.3829 46.388 38.094C46.6744 37.8052 47.02 37.6595 47.4224 37.6595C47.6545 37.6595 47.8644 37.7089 48.0545 37.8076C48.2421 37.9064 48.4075 38.0545 48.5507 38.252V37.7311H48.9087ZM47.4521 38.0101C47.2496 38.0101 47.062 38.0595 46.8892 38.1607C46.7163 38.2594 46.5806 38.4002 46.4793 38.5804C46.3781 38.7606 46.3263 38.9507 46.3263 39.1532C46.3263 39.3531 46.3781 39.5432 46.4793 39.7259C46.5806 39.9086 46.7188 40.0494 46.8916 40.1506C47.0644 40.2518 47.2496 40.3036 47.4471 40.3036C47.6471 40.3036 47.8347 40.2543 48.015 40.153C48.1927 40.0518 48.331 39.916 48.4273 39.7457C48.5235 39.5729 48.5729 39.3803 48.5729 39.1655C48.5729 38.8372 48.4643 38.5631 48.2495 38.3434C48.0322 38.1187 47.7656 38.0101 47.4521 38.0101Z" fill="#515251"/>
<path d="M50.3647 36.6795H50.7301V37.7313H51.3078V38.0473H50.7301V40.5655H50.3647V38.0473H49.8685V37.7313H50.3647V36.6795Z" fill="#515251"/>
<path d="M54.5615 39.6247L54.8676 39.7852C54.7664 39.9827 54.6504 40.1432 54.5195 40.2641C54.3887 40.3851 54.2381 40.4789 54.0727 40.5407C53.9072 40.6049 53.7196 40.6369 53.5122 40.6369C53.0506 40.6369 52.6876 40.4863 52.4284 40.1827C52.1692 39.879 52.0383 39.5383 52.0383 39.1556C52.0383 38.7952 52.1494 38.4767 52.3692 38.1953C52.6481 37.8373 53.0234 37.6595 53.4925 37.6595C53.9764 37.6595 54.3615 37.8422 54.6504 38.2101C54.8553 38.4693 54.959 38.7927 54.9639 39.1779H52.4136C52.421 39.5062 52.5247 39.7778 52.7296 39.9876C52.9321 40.1975 53.1839 40.3036 53.4826 40.3036C53.6258 40.3036 53.7665 40.279 53.9048 40.2296C54.0406 40.1802 54.1566 40.1135 54.2529 40.0296C54.3467 39.9432 54.4504 39.8099 54.5615 39.6247ZM54.5615 38.8618C54.5121 38.6668 54.443 38.5113 54.3492 38.3952C54.2554 38.2792 54.1319 38.1854 53.9813 38.1138C53.8282 38.0422 53.6678 38.0076 53.4999 38.0076C53.2209 38.0076 52.9814 38.0965 52.7839 38.2767C52.6383 38.4076 52.5272 38.6026 52.4531 38.8618H54.5615Z" fill="#515251"/>
<path d="M56.3607 39.9897C56.4496 39.9897 56.5236 40.0218 56.5878 40.0835C56.6495 40.1452 56.6816 40.2218 56.6816 40.3131C56.6816 40.402 56.6495 40.4785 56.5878 40.5402C56.5261 40.6044 56.4496 40.6365 56.3607 40.6365C56.2718 40.6365 56.1977 40.6044 56.1335 40.5402C56.0718 40.4761 56.0397 40.402 56.0397 40.3131C56.0397 40.2218 56.0718 40.1477 56.1335 40.0835C56.1977 40.0218 56.2743 39.9897 56.3607 39.9897Z" fill="#515251"/>
<path d="M59.2167 39.852L59.5426 39.6569C59.7722 40.0791 60.0364 40.289 60.3376 40.289C60.4659 40.289 60.5869 40.2593 60.7005 40.2001C60.814 40.1408 60.9005 40.0594 60.9572 39.9581C61.0165 39.8569 61.0461 39.7508 61.0461 39.6372C61.0461 39.5088 61.0017 39.3829 60.9153 39.2595C60.7943 39.0891 60.577 38.8842 60.2586 38.6447C59.9401 38.4028 59.7401 38.2299 59.6611 38.1213C59.5253 37.9411 59.4586 37.7461 59.4586 37.5362C59.4586 37.3708 59.4982 37.2177 59.5772 37.0795C59.6562 36.9412 59.7697 36.835 59.9154 36.756C60.061 36.677 60.2191 36.6375 60.3869 36.6375C60.5672 36.6375 60.735 36.682 60.8931 36.7709C61.0511 36.8597 61.2165 37.0252 61.3918 37.2646L61.0782 37.5016C60.935 37.3115 60.8116 37.1856 60.7104 37.1239C60.6091 37.0622 60.498 37.0326 60.3771 37.0326C60.2215 37.0326 60.0956 37.0795 59.9993 37.1733C59.9006 37.2671 59.8512 37.3831 59.8512 37.5189C59.8512 37.6029 59.8685 37.6819 59.903 37.7609C59.9376 37.8399 60.0018 37.9238 60.0931 38.0152C60.1425 38.0645 60.3079 38.1904 60.5869 38.3978C60.9177 38.6422 61.1449 38.8595 61.2683 39.0521C61.3918 39.2422 61.4535 39.4347 61.4535 39.6273C61.4535 39.9038 61.3473 40.1458 61.1375 40.3507C60.9251 40.5556 60.6709 40.6568 60.3672 40.6568C60.1351 40.6568 59.9228 40.5951 59.7352 40.4717C59.5525 40.3507 59.3772 40.1433 59.2167 39.852Z" fill="#515251"/>
<path d="M62.4825 37.7311H62.8479V39.0544C62.8479 39.3778 62.8652 39.6 62.8997 39.721C62.9516 39.8938 63.0504 40.0321 63.1985 40.1333C63.3441 40.2345 63.5194 40.2839 63.7243 40.2839C63.9268 40.2839 64.0996 40.2345 64.2428 40.1358C64.3835 40.037 64.4823 39.9087 64.5366 39.7482C64.5736 39.6395 64.5909 39.4075 64.5909 39.052V37.7287H64.9637V39.1186C64.9637 39.5087 64.9193 39.8025 64.8279 40.0025C64.7366 40.2 64.6008 40.3555 64.4156 40.4666C64.2329 40.5777 64.0033 40.6345 63.7268 40.6345C63.4503 40.6345 63.2207 40.5777 63.0355 40.4666C62.8504 40.3555 62.7121 40.1975 62.6208 39.9975C62.5294 39.7976 62.485 39.4964 62.485 39.0915V37.7311H62.4825Z" fill="#515251"/>
<path d="M68.8418 38.3187L68.5529 38.4989C68.3036 38.1681 67.9629 38.0027 67.5308 38.0027C67.1852 38.0027 66.8988 38.1138 66.6717 38.336C66.4445 38.5582 66.3285 38.8273 66.3285 39.1458C66.3285 39.3531 66.3803 39.5457 66.4865 39.7284C66.5902 39.9111 66.7358 40.0518 66.9185 40.153C67.1012 40.2543 67.3062 40.3036 67.5333 40.3036C67.9505 40.3036 68.2888 40.1382 68.5529 39.8074L68.8418 39.9975C68.706 40.2024 68.5233 40.3604 68.2962 40.4715C68.0666 40.5851 67.8073 40.6394 67.516 40.6394C67.0691 40.6394 66.6963 40.4962 66.4026 40.2123C66.1063 39.9284 65.9606 39.5803 65.9606 39.1729C65.9606 38.8989 66.0298 38.6446 66.168 38.4076C66.3063 38.173 66.4964 37.9879 66.7383 37.857C66.9803 37.7262 67.2494 37.6595 67.5481 37.6595C67.7357 37.6595 67.916 37.6891 68.0912 37.7459C68.2665 37.8027 68.4147 37.8768 68.5356 37.9706C68.6541 38.0595 68.7554 38.178 68.8418 38.3187Z" fill="#515251"/>
<path d="M72.6112 38.3187L72.3223 38.4989C72.073 38.1681 71.7323 38.0027 71.3002 38.0027C70.9546 38.0027 70.6682 38.1138 70.4411 38.336C70.2139 38.5582 70.0979 38.8273 70.0979 39.1458C70.0979 39.3531 70.1497 39.5457 70.2559 39.7284C70.3596 39.9111 70.5053 40.0518 70.688 40.153C70.8707 40.2543 71.0756 40.3036 71.3027 40.3036C71.7199 40.3036 72.0582 40.1382 72.3223 39.8074L72.6112 39.9975C72.4754 40.2024 72.2927 40.3604 72.0656 40.4715C71.836 40.5851 71.5767 40.6394 71.2854 40.6394C70.8386 40.6394 70.4658 40.4962 70.172 40.2123C69.8757 39.9284 69.73 39.5803 69.73 39.1729C69.73 38.8989 69.7992 38.6446 69.9374 38.4076C70.0757 38.173 70.2658 37.9879 70.5077 37.857C70.7497 37.7262 71.0188 37.6595 71.3175 37.6595C71.5051 37.6595 71.6854 37.6891 71.8607 37.7459C72.0359 37.8027 72.1841 37.8768 72.305 37.9706C72.4236 38.0595 72.5272 38.178 72.6112 38.3187Z" fill="#515251"/>
<path d="M76.0176 39.6247L76.3237 39.7852C76.2225 39.9827 76.1065 40.1432 75.9756 40.2641C75.8448 40.3851 75.6942 40.4789 75.5288 40.5407C75.3634 40.6049 75.1757 40.6369 74.9683 40.6369C74.5067 40.6369 74.1437 40.4863 73.8845 40.1827C73.6253 39.879 73.4944 39.5383 73.4944 39.1556C73.4944 38.7952 73.6055 38.4767 73.8253 38.1953C74.1043 37.8373 74.4795 37.6595 74.9486 37.6595C75.4325 37.6595 75.8176 37.8422 76.1065 38.2101C76.3114 38.4693 76.4151 38.7927 76.42 39.1779H73.8697C73.8771 39.5062 73.9808 39.7778 74.1857 39.9876C74.3882 40.1975 74.64 40.3036 74.9387 40.3036C75.0819 40.3036 75.2226 40.279 75.3609 40.2296C75.4967 40.1802 75.6127 40.1135 75.709 40.0296C75.8028 39.9432 75.9065 39.8099 76.0176 39.6247ZM76.0176 38.8618C75.9682 38.6668 75.8991 38.5113 75.8053 38.3952C75.7115 38.2792 75.588 38.1854 75.4374 38.1138C75.2844 38.0422 75.1239 38.0076 74.956 38.0076C74.677 38.0076 74.4375 38.0965 74.24 38.2767C74.0944 38.4076 73.9833 38.6026 73.9092 38.8618H76.0176Z" fill="#515251"/>
<path d="M79.8043 39.6247L80.1105 39.7852C80.0092 39.9827 79.8932 40.1432 79.7623 40.2641C79.6315 40.3851 79.4809 40.4789 79.3155 40.5407C79.1501 40.6049 78.9624 40.6369 78.7551 40.6369C78.2934 40.6369 77.9305 40.4863 77.6712 40.1827C77.412 39.879 77.2812 39.5383 77.2812 39.1556C77.2812 38.7952 77.3923 38.4767 77.612 38.1953C77.891 37.8373 78.2662 37.6595 78.7353 37.6595C79.2192 37.6595 79.6043 37.8422 79.8932 38.2101C80.0981 38.4693 80.2018 38.7927 80.2067 39.1779H77.6564C77.6638 39.5062 77.7675 39.7778 77.9724 39.9876C78.1749 40.1975 78.4267 40.3036 78.7254 40.3036C78.8686 40.3036 79.0094 40.279 79.1476 40.2296C79.2834 40.1802 79.3994 40.1135 79.4957 40.0296C79.5895 39.9432 79.6932 39.8099 79.8043 39.6247ZM79.8043 38.8618C79.7549 38.6668 79.6858 38.5113 79.592 38.3952C79.4982 38.2792 79.3747 38.1854 79.2241 38.1138C79.0711 38.0422 78.9106 38.0076 78.7427 38.0076C78.4637 38.0076 78.2243 38.0965 78.0267 38.2767C77.8811 38.4076 77.77 38.6026 77.6959 38.8618H79.8043Z" fill="#515251"/>
<path d="M84.0329 36.6375V40.5655H83.6725V40.0791C83.5194 40.2643 83.349 40.405 83.1589 40.4988C82.9688 40.5926 82.7615 40.6395 82.5343 40.6395C82.1344 40.6395 81.7912 40.4939 81.5073 40.2026C81.2234 39.9112 81.0802 39.5582 81.0802 39.141C81.0802 38.7336 81.2234 38.383 81.5097 38.0942C81.7961 37.8053 82.1418 37.6596 82.5442 37.6596C82.7763 37.6596 82.9886 37.709 83.1762 37.8078C83.3639 37.9065 83.5293 38.0547 83.6725 38.2522V36.6375H84.0329ZM82.5738 38.0102C82.3714 38.0102 82.1837 38.0596 82.0109 38.1608C81.8381 38.2596 81.7023 38.4003 81.6011 38.5805C81.4999 38.7608 81.448 38.9509 81.448 39.1533C81.448 39.3533 81.4999 39.5434 81.6011 39.7261C81.7023 39.9088 81.8406 40.0495 82.0134 40.1507C82.1862 40.2519 82.3714 40.3038 82.5689 40.3038C82.7689 40.3038 82.9565 40.2544 83.1367 40.1532C83.3145 40.052 83.4527 39.9162 83.549 39.7458C83.6453 39.573 83.6922 39.3804 83.6922 39.1656C83.6922 38.8373 83.5836 38.5632 83.3688 38.3435C83.1565 38.1188 82.8898 38.0102 82.5738 38.0102Z" fill="#515251"/>
<path d="M85.5778 39.9897C85.6667 39.9897 85.7407 40.0218 85.8049 40.0835C85.8666 40.1452 85.8987 40.2218 85.8987 40.3131C85.8987 40.402 85.8666 40.4785 85.8049 40.5402C85.7432 40.6044 85.6667 40.6365 85.5778 40.6365C85.4889 40.6365 85.4148 40.6044 85.3507 40.5402C85.2889 40.4761 85.2568 40.402 85.2568 40.3131C85.2568 40.2218 85.2889 40.1477 85.3507 40.0835C85.4148 40.0218 85.4889 39.9897 85.5778 39.9897Z" fill="#515251"/>
<path d="M87.0194 37.8423H86.7478L86.691 36.6375H87.0761L87.0194 37.8423ZM88.0316 37.8423H87.7625L87.7057 36.6375H88.0908L88.0316 37.8423Z" fill="#515251"/>
<path d="M14.2631 22.2808C14.2459 22.9991 14.1175 23.6113 13.8706 24.1149C13.6263 24.6209 13.2338 25.1097 12.6956 25.5837C13.2338 26.0576 13.6263 26.5464 13.8706 27.0524C14.115 27.5585 14.2459 28.1707 14.2631 28.8866C14.2631 29.6049 14.1298 30.2813 13.8583 30.9182C13.5868 31.555 13.219 32.108 12.745 32.5819C12.271 33.0559 11.7181 33.4262 11.0812 33.6952C10.4443 33.9643 9.76796 34.1001 9.04962 34.1001H6.53172H3.76697H0V17.0697H3.76697H7.43767H9.05208C9.77042 17.0697 10.4468 17.2055 11.0837 17.4746C11.7206 17.7436 12.2735 18.1139 12.7475 18.5879C13.2214 19.0618 13.5917 19.6148 13.8608 20.2517C14.1298 20.8861 14.2631 21.5624 14.2631 22.2808ZM10.4962 22.2808C10.4962 21.8883 10.3579 21.555 10.079 21.2786C9.80252 21.0021 9.45939 20.8614 9.05208 20.8614H3.76697V23.7002H9.05208C9.45939 23.7002 9.80252 23.5619 10.079 23.2855C10.3579 23.0065 10.4962 22.6708 10.4962 22.2808ZM10.4962 28.8742C10.4962 28.4867 10.3579 28.1583 10.079 27.8917C9.80252 27.6251 9.45939 27.4918 9.05208 27.4918H3.76697V30.306H9.05208C9.45939 30.306 9.80252 30.1677 10.079 29.8937C10.3579 29.6172 10.4962 29.2791 10.4962 28.8742Z" fill="#243B79"/>
<path d="M30.022 34.0977H26.2303V28.4448H20.5527V34.0977H16.761V17.092H20.5527V24.6531H26.2303V17.092H30.022V34.0977Z" fill="#243B79"/>
<path d="M44.0652 34.0976H36.4795H34.596H32.7125V20.8614V17.0697H36.4795H44.0652V20.8614H36.4795V23.6755H44.0652V27.4672H36.4795V30.306H44.0652V34.0976Z" fill="#243B79"/>
<path d="M65.3881 17.0673V26.855C65.3881 27.8498 65.1956 28.7878 64.8129 29.6691C64.4303 30.5504 63.9119 31.3156 63.2602 31.9698C62.6085 32.6215 61.8359 33.1399 60.9472 33.5225C60.0586 33.9051 59.1156 34.0976 58.1208 34.0976C57.1087 34.0976 56.1632 33.9051 55.282 33.5225C54.4007 33.1399 53.6355 32.6215 52.9813 31.9698C52.3296 31.3181 51.8112 30.5504 51.4286 29.6691C51.046 28.7878 50.8534 27.8498 50.8534 26.855V17.0673H54.6451V26.8377C54.6451 27.3092 54.734 27.7585 54.9142 28.1806C55.0944 28.6052 55.3437 28.9755 55.6596 29.2914C55.9781 29.6099 56.3459 29.8567 56.7606 30.0369C57.1778 30.2171 57.6295 30.306 58.1183 30.306C58.5923 30.306 59.0391 30.2171 59.4636 30.0369C59.8882 29.8592 60.2585 29.6099 60.5769 29.2914C60.8954 28.973 61.1447 28.6027 61.3224 28.1806C61.5026 27.7585 61.5915 27.3092 61.5915 26.8377V17.0673H65.3881Z" fill="#263A7F"/>
<path d="M81.7888 34.0977L71.5123 25.29V34.0977H67.7207V17.0673L78.0218 25.875V17.0673H81.7888V34.0977Z" fill="#263A7F"/>
<path d="M87.9254 34.0977H84.1584V17.0673H87.9254V34.0977Z" fill="#263A7F"/>
</svg>
