<svg width="16" height="17" viewBox="0 0 16 17" fill="none" xmlns="http://www.w3.org/2000/svg">
<g clip-path="url(#clip0_500_1378)">
<path d="M7.99969 16.1819C12.418 16.1819 15.9997 12.6002 15.9997 8.18188C15.9997 3.76361 12.418 0.181885 7.99969 0.181885C3.58142 0.181885 -0.000305176 3.76361 -0.000305176 8.18188C-0.000305176 12.6002 3.58142 16.1819 7.99969 16.1819Z" fill="#667085"/>
<path d="M11.9593 9.07146C12.5688 6.33461 10.1698 3.84619 7.35403 4.32303C5.82455 3.37461 3.78876 4.44619 3.78876 6.26619C3.7879 6.67354 3.897 7.07358 4.10455 7.42409C3.53824 10.1683 5.95718 12.6199 8.77087 12.1094C10.7635 13.1641 12.9624 11.0662 11.9593 9.07146ZM9.28245 10.722C8.54561 11.0262 7.32666 11.0283 6.59087 10.643C5.53824 10.083 5.35508 8.82303 6.26034 8.82303C6.94245 8.82303 6.72666 9.61882 7.41824 9.94304C7.73403 10.0894 8.41403 10.1041 8.80876 9.83777C9.2035 9.57146 9.15718 9.16619 8.94666 8.96935C8.38455 8.4504 6.77718 8.65356 6.04139 7.7483C5.86994 7.51755 5.7785 7.23714 5.78097 6.94969C5.78344 6.66223 5.87969 6.38343 6.05508 6.15567C6.73929 5.27461 8.74666 5.22093 9.61087 5.88619C10.4077 6.50303 10.193 7.32198 9.54876 7.32198C8.77508 7.32198 9.18245 6.30935 7.93297 6.30935C7.02771 6.30935 6.66982 6.95356 7.30876 7.26724C8.17613 7.69672 10.3782 7.5504 10.3782 9.23461C10.3782 9.93251 9.94876 10.4536 9.28245 10.7251V10.722Z" fill="white"/>
</g>
<defs>
<clipPath id="clip0_500_1378">
<rect width="16" height="16" fill="white" transform="translate(-0.000305176 0.181885)"/>
</clipPath>
</defs>
</svg>
