<svg width="16" height="17" viewBox="0 0 16 17" fill="none" xmlns="http://www.w3.org/2000/svg">
<g clip-path="url(#clip0_500_1375)">
<path d="M7.99969 0.181885C3.58209 0.181885 -0.000305176 3.76428 -0.000305176 8.18188C-0.000305176 12.5995 3.58209 16.1819 7.99969 16.1819C12.4173 16.1819 15.9997 12.5995 15.9997 8.18188C15.9997 3.76428 12.4173 0.181885 7.99969 0.181885ZM8.16925 12.8397C8.16913 12.8397 8.16937 12.8397 8.16925 12.8397H8.1673C7.36591 12.8394 6.57843 12.6384 5.87909 12.2571L3.34088 12.9227L4.0202 10.4423C3.60114 9.71643 3.38068 8.89294 3.38104 8.04932C3.38214 5.41016 5.53009 3.26306 8.16925 3.26306C9.45001 3.26355 10.6523 3.76208 11.5562 4.66675C12.4603 5.57153 12.9578 6.77417 12.9573 8.0531C12.9562 10.6924 10.808 12.8397 8.16925 12.8397Z" fill="#667085"/>
<path d="M8.17255 4.07153C5.97736 4.07153 4.19208 5.85608 4.1911 8.04968C4.19086 8.80139 4.40131 9.53345 4.79962 10.1669L4.89423 10.3174L4.49213 11.7855L5.99835 11.3905L6.14374 11.4767C6.7547 11.8392 7.45514 12.031 8.16925 12.0312H8.17084C10.3643 12.0312 12.1496 10.2466 12.1506 8.05286C12.1509 6.98975 11.7374 5.99023 10.986 5.23828C10.2347 4.48633 9.23541 4.0719 8.17255 4.07153ZM10.5134 9.76013C10.4136 10.0394 9.93573 10.2944 9.70587 10.3289C9.49969 10.3596 9.23895 10.3724 8.95233 10.2815C8.7785 10.2263 8.55573 10.1527 8.2702 10.0295C7.07013 9.51147 6.28632 8.30347 6.2265 8.22363C6.16669 8.1438 5.73798 7.57507 5.73798 6.98633C5.73798 6.39771 6.04706 6.10828 6.15668 5.98865C6.26642 5.8689 6.39606 5.83899 6.47577 5.83899C6.55548 5.83899 6.63532 5.83972 6.70502 5.84314C6.7785 5.8468 6.87714 5.81519 6.97418 6.04846C7.07391 6.28796 7.31317 6.87659 7.34308 6.9364C7.37299 6.99634 7.39288 7.06616 7.35309 7.146C7.31317 7.22583 7.1806 7.39807 7.05402 7.55505C7.00092 7.62085 6.9317 7.67944 7.00153 7.79919C7.07123 7.91882 7.31146 8.31055 7.66705 8.62769C8.12408 9.03516 8.50958 9.16138 8.62921 9.22131C8.74872 9.28113 8.81854 9.27112 8.88837 9.19141C8.95807 9.11157 9.18744 8.84216 9.26715 8.72241C9.34686 8.60266 9.4267 8.62268 9.53632 8.6626C9.64606 8.70239 10.2342 8.99182 10.3538 9.05164C10.4734 9.11157 10.5532 9.14148 10.5831 9.19141C10.6131 9.24133 10.6131 9.48071 10.5134 9.76013Z" fill="#667085"/>
</g>
<defs>
<clipPath id="clip0_500_1375">
<rect width="16" height="16" fill="white" transform="translate(-0.000305176 0.181885)"/>
</clipPath>
</defs>
</svg>
