<svg width="16" height="17" viewBox="0 0 16 17" fill="none" xmlns="http://www.w3.org/2000/svg">
<g clip-path="url(#clip0_324_1422)">
<path d="M8 0.281616C3.58187 0.281616 0 3.86349 0 8.28162C0 12.6997 3.58187 16.2816 8 16.2816C12.4181 16.2816 16 12.6997 16 8.28162C16 3.86349 12.4181 0.281616 8 0.281616Z" fill="#667085"/>
<path d="M8.87336 7.55747L12.2981 3.57654H11.4865L8.51284 7.03314L6.13779 3.57654H3.39844L6.98999 8.80352L3.39844 12.9781H4.21003L7.35031 9.32787L9.85854 12.9781H12.5979L8.87315 7.55747H8.87336ZM4.50245 4.1875H5.749L11.4869 12.395H10.2403L4.50245 4.1875Z" fill="white"/>
</g>
<defs>
<clipPath id="clip0_324_1422">
<rect width="16" height="16" fill="white" transform="translate(0 0.281616)"/>
</clipPath>
</defs>
</svg>
