<svg width="16" height="17" viewBox="0 0 16 17" fill="none" xmlns="http://www.w3.org/2000/svg">
<g clip-path="url(#clip0_324_1428)">
<path d="M6.91406 9.91122L9.63006 8.28172L6.91406 6.65222V9.91122Z" fill="#667085"/>
<path d="M8 0.281616C3.582 0.281616 0 3.86312 0 8.28162C0 12.7001 3.582 16.2816 8 16.2816C12.418 16.2816 16 12.6996 16 8.28162C16 3.86362 12.418 0.281616 8 0.281616ZM12.344 8.63212C12.344 9.38212 12.257 10.1321 12.257 10.1321C12.257 10.1321 12.172 10.7711 11.912 11.0516C11.5815 11.4206 11.2115 11.4226 11.0415 11.4446C9.8255 11.5376 8 11.5406 8 11.5406C8 11.5406 5.741 11.5186 5.046 11.4476C4.8525 11.4091 4.419 11.4201 4.088 11.0516C3.8275 10.7706 3.743 10.1321 3.743 10.1321C3.743 10.1321 3.656 9.38262 3.656 8.63212V7.92912C3.656 7.17912 3.743 6.42962 3.743 6.42962C3.743 6.42962 3.828 5.79062 4.088 5.50912C4.4185 5.13962 4.7885 5.13762 4.9585 5.11662C6.174 5.02262 7.998 5.02262 7.998 5.02262H8.002C8.002 5.02262 9.826 5.02262 11.0415 5.11662C11.211 5.13762 11.5815 5.13962 11.912 5.50862C12.1725 5.79012 12.257 6.42912 12.257 6.42912C12.257 6.42912 12.344 7.17912 12.344 7.92912V8.63212Z" fill="#667085"/>
</g>
<defs>
<clipPath id="clip0_324_1428">
<rect width="16" height="16" fill="white" transform="translate(0 0.281616)"/>
</clipPath>
</defs>
</svg>
